%TF.GenerationSoftware,KiCad,Pcbnew,(5.1.7-0-10_14)*%
%TF.CreationDate,2021-01-04T14:16:26+09:00*%
%TF.ProjectId,rotomdriver,726f746f-6d64-4726-9976-65722e6b6963,rev?*%
%TF.SameCoordinates,Original*%
%TF.FileFunction,Legend,Top*%
%TF.FilePolarity,Positive*%
%FSLAX46Y46*%
G04 Gerber Fmt 4.6, Leading zero omitted, Abs format (unit mm)*
G04 Created by KiCad (PCBNEW (5.1.7-0-10_14)) date 2021-01-04 14:16:26*
%MOMM*%
%LPD*%
G01*
G04 APERTURE LIST*
%ADD10C,0.120000*%
%ADD11C,0.200000*%
%ADD12C,0.152400*%
%ADD13C,0.150000*%
G04 APERTURE END LIST*
D10*
X9626666Y-55022000D02*
X9560000Y-54988666D01*
X9460000Y-54988666D01*
X9360000Y-55022000D01*
X9293333Y-55088666D01*
X9260000Y-55155333D01*
X9226666Y-55288666D01*
X9226666Y-55388666D01*
X9260000Y-55522000D01*
X9293333Y-55588666D01*
X9360000Y-55655333D01*
X9460000Y-55688666D01*
X9526666Y-55688666D01*
X9626666Y-55655333D01*
X9660000Y-55622000D01*
X9660000Y-55388666D01*
X9526666Y-55388666D01*
X9960000Y-55688666D02*
X9960000Y-54988666D01*
X10360000Y-55688666D01*
X10360000Y-54988666D01*
X10693333Y-55688666D02*
X10693333Y-54988666D01*
X10860000Y-54988666D01*
X10960000Y-55022000D01*
X11026666Y-55088666D01*
X11060000Y-55155333D01*
X11093333Y-55288666D01*
X11093333Y-55388666D01*
X11060000Y-55522000D01*
X11026666Y-55588666D01*
X10960000Y-55655333D01*
X10860000Y-55688666D01*
X10693333Y-55688666D01*
X6578666Y-55022000D02*
X6512000Y-54988666D01*
X6412000Y-54988666D01*
X6312000Y-55022000D01*
X6245333Y-55088666D01*
X6212000Y-55155333D01*
X6178666Y-55288666D01*
X6178666Y-55388666D01*
X6212000Y-55522000D01*
X6245333Y-55588666D01*
X6312000Y-55655333D01*
X6412000Y-55688666D01*
X6478666Y-55688666D01*
X6578666Y-55655333D01*
X6612000Y-55622000D01*
X6612000Y-55388666D01*
X6478666Y-55388666D01*
X6912000Y-55688666D02*
X6912000Y-54988666D01*
X7312000Y-55688666D01*
X7312000Y-54988666D01*
X7645333Y-55688666D02*
X7645333Y-54988666D01*
X7812000Y-54988666D01*
X7912000Y-55022000D01*
X7978666Y-55088666D01*
X8012000Y-55155333D01*
X8045333Y-55288666D01*
X8045333Y-55388666D01*
X8012000Y-55522000D01*
X7978666Y-55588666D01*
X7912000Y-55655333D01*
X7812000Y-55688666D01*
X7645333Y-55688666D01*
X8926666Y-52882000D02*
X9460000Y-52882000D01*
X9193333Y-53148666D02*
X9193333Y-52615333D01*
X9726666Y-52448666D02*
X10160000Y-52448666D01*
X9926666Y-52715333D01*
X10026666Y-52715333D01*
X10093333Y-52748666D01*
X10126666Y-52782000D01*
X10160000Y-52848666D01*
X10160000Y-53015333D01*
X10126666Y-53082000D01*
X10093333Y-53115333D01*
X10026666Y-53148666D01*
X9826666Y-53148666D01*
X9760000Y-53115333D01*
X9726666Y-53082000D01*
X10360000Y-52448666D02*
X10593333Y-53148666D01*
X10826666Y-52448666D01*
X10993333Y-52448666D02*
X11426666Y-52448666D01*
X11193333Y-52715333D01*
X11293333Y-52715333D01*
X11360000Y-52748666D01*
X11393333Y-52782000D01*
X11426666Y-52848666D01*
X11426666Y-53015333D01*
X11393333Y-53082000D01*
X11360000Y-53115333D01*
X11293333Y-53148666D01*
X11093333Y-53148666D01*
X11026666Y-53115333D01*
X10993333Y-53082000D01*
X6212000Y-52882000D02*
X6745333Y-52882000D01*
X6478666Y-53148666D02*
X6478666Y-52615333D01*
X7412000Y-52448666D02*
X7078666Y-52448666D01*
X7045333Y-52782000D01*
X7078666Y-52748666D01*
X7145333Y-52715333D01*
X7312000Y-52715333D01*
X7378666Y-52748666D01*
X7412000Y-52782000D01*
X7445333Y-52848666D01*
X7445333Y-53015333D01*
X7412000Y-53082000D01*
X7378666Y-53115333D01*
X7312000Y-53148666D01*
X7145333Y-53148666D01*
X7078666Y-53115333D01*
X7045333Y-53082000D01*
X7645333Y-52448666D02*
X7878666Y-53148666D01*
X8112000Y-52448666D01*
X9626666Y-49942000D02*
X9560000Y-49908666D01*
X9460000Y-49908666D01*
X9360000Y-49942000D01*
X9293333Y-50008666D01*
X9260000Y-50075333D01*
X9226666Y-50208666D01*
X9226666Y-50308666D01*
X9260000Y-50442000D01*
X9293333Y-50508666D01*
X9360000Y-50575333D01*
X9460000Y-50608666D01*
X9526666Y-50608666D01*
X9626666Y-50575333D01*
X9660000Y-50542000D01*
X9660000Y-50308666D01*
X9526666Y-50308666D01*
X9960000Y-50608666D02*
X9960000Y-49908666D01*
X10360000Y-50608666D01*
X10360000Y-49908666D01*
X10693333Y-50608666D02*
X10693333Y-49908666D01*
X10860000Y-49908666D01*
X10960000Y-49942000D01*
X11026666Y-50008666D01*
X11060000Y-50075333D01*
X11093333Y-50208666D01*
X11093333Y-50308666D01*
X11060000Y-50442000D01*
X11026666Y-50508666D01*
X10960000Y-50575333D01*
X10860000Y-50608666D01*
X10693333Y-50608666D01*
X5845333Y-49908666D02*
X6245333Y-49908666D01*
X6045333Y-50608666D02*
X6045333Y-49908666D01*
X6478666Y-50242000D02*
X6712000Y-50242000D01*
X6812000Y-50608666D02*
X6478666Y-50608666D01*
X6478666Y-49908666D01*
X6812000Y-49908666D01*
X7112000Y-50608666D02*
X7112000Y-49908666D01*
X7345333Y-50408666D01*
X7578666Y-49908666D01*
X7578666Y-50608666D01*
X7912000Y-50608666D02*
X7912000Y-49908666D01*
X8178666Y-49908666D01*
X8245333Y-49942000D01*
X8278666Y-49975333D01*
X8312000Y-50042000D01*
X8312000Y-50142000D01*
X8278666Y-50208666D01*
X8245333Y-50242000D01*
X8178666Y-50275333D01*
X7912000Y-50275333D01*
X9310000Y-48002000D02*
X9276666Y-48035333D01*
X9176666Y-48068666D01*
X9110000Y-48068666D01*
X9010000Y-48035333D01*
X8943333Y-47968666D01*
X8910000Y-47902000D01*
X8876666Y-47768666D01*
X8876666Y-47668666D01*
X8910000Y-47535333D01*
X8943333Y-47468666D01*
X9010000Y-47402000D01*
X9110000Y-47368666D01*
X9176666Y-47368666D01*
X9276666Y-47402000D01*
X9310000Y-47435333D01*
X9610000Y-47368666D02*
X9610000Y-47935333D01*
X9643333Y-48002000D01*
X9676666Y-48035333D01*
X9743333Y-48068666D01*
X9876666Y-48068666D01*
X9943333Y-48035333D01*
X9976666Y-48002000D01*
X10010000Y-47935333D01*
X10010000Y-47368666D01*
X10743333Y-48068666D02*
X10510000Y-47735333D01*
X10343333Y-48068666D02*
X10343333Y-47368666D01*
X10610000Y-47368666D01*
X10676666Y-47402000D01*
X10710000Y-47435333D01*
X10743333Y-47502000D01*
X10743333Y-47602000D01*
X10710000Y-47668666D01*
X10676666Y-47702000D01*
X10610000Y-47735333D01*
X10343333Y-47735333D01*
X11443333Y-48002000D02*
X11410000Y-48035333D01*
X11310000Y-48068666D01*
X11243333Y-48068666D01*
X11143333Y-48035333D01*
X11076666Y-47968666D01*
X11043333Y-47902000D01*
X11010000Y-47768666D01*
X11010000Y-47668666D01*
X11043333Y-47535333D01*
X11076666Y-47468666D01*
X11143333Y-47402000D01*
X11243333Y-47368666D01*
X11310000Y-47368666D01*
X11410000Y-47402000D01*
X11443333Y-47435333D01*
X6262000Y-48002000D02*
X6228666Y-48035333D01*
X6128666Y-48068666D01*
X6062000Y-48068666D01*
X5962000Y-48035333D01*
X5895333Y-47968666D01*
X5862000Y-47902000D01*
X5828666Y-47768666D01*
X5828666Y-47668666D01*
X5862000Y-47535333D01*
X5895333Y-47468666D01*
X5962000Y-47402000D01*
X6062000Y-47368666D01*
X6128666Y-47368666D01*
X6228666Y-47402000D01*
X6262000Y-47435333D01*
X6562000Y-47368666D02*
X6562000Y-47935333D01*
X6595333Y-48002000D01*
X6628666Y-48035333D01*
X6695333Y-48068666D01*
X6828666Y-48068666D01*
X6895333Y-48035333D01*
X6928666Y-48002000D01*
X6962000Y-47935333D01*
X6962000Y-47368666D01*
X7695333Y-48068666D02*
X7462000Y-47735333D01*
X7295333Y-48068666D02*
X7295333Y-47368666D01*
X7562000Y-47368666D01*
X7628666Y-47402000D01*
X7662000Y-47435333D01*
X7695333Y-47502000D01*
X7695333Y-47602000D01*
X7662000Y-47668666D01*
X7628666Y-47702000D01*
X7562000Y-47735333D01*
X7295333Y-47735333D01*
X8228666Y-47702000D02*
X8328666Y-47735333D01*
X8362000Y-47768666D01*
X8395333Y-47835333D01*
X8395333Y-47935333D01*
X8362000Y-48002000D01*
X8328666Y-48035333D01*
X8262000Y-48068666D01*
X7995333Y-48068666D01*
X7995333Y-47368666D01*
X8228666Y-47368666D01*
X8295333Y-47402000D01*
X8328666Y-47435333D01*
X8362000Y-47502000D01*
X8362000Y-47568666D01*
X8328666Y-47635333D01*
X8295333Y-47668666D01*
X8228666Y-47702000D01*
X7995333Y-47702000D01*
X9360000Y-45462000D02*
X9326666Y-45495333D01*
X9226666Y-45528666D01*
X9160000Y-45528666D01*
X9060000Y-45495333D01*
X8993333Y-45428666D01*
X8960000Y-45362000D01*
X8926666Y-45228666D01*
X8926666Y-45128666D01*
X8960000Y-44995333D01*
X8993333Y-44928666D01*
X9060000Y-44862000D01*
X9160000Y-44828666D01*
X9226666Y-44828666D01*
X9326666Y-44862000D01*
X9360000Y-44895333D01*
X9660000Y-44828666D02*
X9660000Y-45395333D01*
X9693333Y-45462000D01*
X9726666Y-45495333D01*
X9793333Y-45528666D01*
X9926666Y-45528666D01*
X9993333Y-45495333D01*
X10026666Y-45462000D01*
X10060000Y-45395333D01*
X10060000Y-44828666D01*
X10793333Y-45528666D02*
X10560000Y-45195333D01*
X10393333Y-45528666D02*
X10393333Y-44828666D01*
X10660000Y-44828666D01*
X10726666Y-44862000D01*
X10760000Y-44895333D01*
X10793333Y-44962000D01*
X10793333Y-45062000D01*
X10760000Y-45128666D01*
X10726666Y-45162000D01*
X10660000Y-45195333D01*
X10393333Y-45195333D01*
X11060000Y-45328666D02*
X11393333Y-45328666D01*
X10993333Y-45528666D02*
X11226666Y-44828666D01*
X11460000Y-45528666D01*
X6312000Y-45462000D02*
X6278666Y-45495333D01*
X6178666Y-45528666D01*
X6112000Y-45528666D01*
X6012000Y-45495333D01*
X5945333Y-45428666D01*
X5912000Y-45362000D01*
X5878666Y-45228666D01*
X5878666Y-45128666D01*
X5912000Y-44995333D01*
X5945333Y-44928666D01*
X6012000Y-44862000D01*
X6112000Y-44828666D01*
X6178666Y-44828666D01*
X6278666Y-44862000D01*
X6312000Y-44895333D01*
X6612000Y-44828666D02*
X6612000Y-45395333D01*
X6645333Y-45462000D01*
X6678666Y-45495333D01*
X6745333Y-45528666D01*
X6878666Y-45528666D01*
X6945333Y-45495333D01*
X6978666Y-45462000D01*
X7012000Y-45395333D01*
X7012000Y-44828666D01*
X7745333Y-45528666D02*
X7512000Y-45195333D01*
X7345333Y-45528666D02*
X7345333Y-44828666D01*
X7612000Y-44828666D01*
X7678666Y-44862000D01*
X7712000Y-44895333D01*
X7745333Y-44962000D01*
X7745333Y-45062000D01*
X7712000Y-45128666D01*
X7678666Y-45162000D01*
X7612000Y-45195333D01*
X7345333Y-45195333D01*
X8278666Y-45162000D02*
X8045333Y-45162000D01*
X8045333Y-45528666D02*
X8045333Y-44828666D01*
X8378666Y-44828666D01*
X9626666Y-42322000D02*
X9560000Y-42288666D01*
X9460000Y-42288666D01*
X9360000Y-42322000D01*
X9293333Y-42388666D01*
X9260000Y-42455333D01*
X9226666Y-42588666D01*
X9226666Y-42688666D01*
X9260000Y-42822000D01*
X9293333Y-42888666D01*
X9360000Y-42955333D01*
X9460000Y-42988666D01*
X9526666Y-42988666D01*
X9626666Y-42955333D01*
X9660000Y-42922000D01*
X9660000Y-42688666D01*
X9526666Y-42688666D01*
X9960000Y-42988666D02*
X9960000Y-42288666D01*
X10360000Y-42988666D01*
X10360000Y-42288666D01*
X10693333Y-42988666D02*
X10693333Y-42288666D01*
X10860000Y-42288666D01*
X10960000Y-42322000D01*
X11026666Y-42388666D01*
X11060000Y-42455333D01*
X11093333Y-42588666D01*
X11093333Y-42688666D01*
X11060000Y-42822000D01*
X11026666Y-42888666D01*
X10960000Y-42955333D01*
X10860000Y-42988666D01*
X10693333Y-42988666D01*
X5928666Y-42955333D02*
X6028666Y-42988666D01*
X6195333Y-42988666D01*
X6262000Y-42955333D01*
X6295333Y-42922000D01*
X6328666Y-42855333D01*
X6328666Y-42788666D01*
X6295333Y-42722000D01*
X6262000Y-42688666D01*
X6195333Y-42655333D01*
X6062000Y-42622000D01*
X5995333Y-42588666D01*
X5962000Y-42555333D01*
X5928666Y-42488666D01*
X5928666Y-42422000D01*
X5962000Y-42355333D01*
X5995333Y-42322000D01*
X6062000Y-42288666D01*
X6228666Y-42288666D01*
X6328666Y-42322000D01*
X6628666Y-42622000D02*
X6862000Y-42622000D01*
X6962000Y-42988666D02*
X6628666Y-42988666D01*
X6628666Y-42288666D01*
X6962000Y-42288666D01*
X7262000Y-42988666D02*
X7262000Y-42288666D01*
X7662000Y-42988666D01*
X7662000Y-42288666D01*
X8228666Y-42622000D02*
X7995333Y-42622000D01*
X7995333Y-42988666D02*
X7995333Y-42288666D01*
X8328666Y-42288666D01*
X8943333Y-40415333D02*
X9043333Y-40448666D01*
X9210000Y-40448666D01*
X9276666Y-40415333D01*
X9310000Y-40382000D01*
X9343333Y-40315333D01*
X9343333Y-40248666D01*
X9310000Y-40182000D01*
X9276666Y-40148666D01*
X9210000Y-40115333D01*
X9076666Y-40082000D01*
X9010000Y-40048666D01*
X8976666Y-40015333D01*
X8943333Y-39948666D01*
X8943333Y-39882000D01*
X8976666Y-39815333D01*
X9010000Y-39782000D01*
X9076666Y-39748666D01*
X9243333Y-39748666D01*
X9343333Y-39782000D01*
X9643333Y-40082000D02*
X9876666Y-40082000D01*
X9976666Y-40448666D02*
X9643333Y-40448666D01*
X9643333Y-39748666D01*
X9976666Y-39748666D01*
X10276666Y-40448666D02*
X10276666Y-39748666D01*
X10676666Y-40448666D01*
X10676666Y-39748666D01*
X10976666Y-40415333D02*
X11076666Y-40448666D01*
X11243333Y-40448666D01*
X11310000Y-40415333D01*
X11343333Y-40382000D01*
X11376666Y-40315333D01*
X11376666Y-40248666D01*
X11343333Y-40182000D01*
X11310000Y-40148666D01*
X11243333Y-40115333D01*
X11110000Y-40082000D01*
X11043333Y-40048666D01*
X11010000Y-40015333D01*
X10976666Y-39948666D01*
X10976666Y-39882000D01*
X11010000Y-39815333D01*
X11043333Y-39782000D01*
X11110000Y-39748666D01*
X11276666Y-39748666D01*
X11376666Y-39782000D01*
X5878666Y-40415333D02*
X5978666Y-40448666D01*
X6145333Y-40448666D01*
X6212000Y-40415333D01*
X6245333Y-40382000D01*
X6278666Y-40315333D01*
X6278666Y-40248666D01*
X6245333Y-40182000D01*
X6212000Y-40148666D01*
X6145333Y-40115333D01*
X6012000Y-40082000D01*
X5945333Y-40048666D01*
X5912000Y-40015333D01*
X5878666Y-39948666D01*
X5878666Y-39882000D01*
X5912000Y-39815333D01*
X5945333Y-39782000D01*
X6012000Y-39748666D01*
X6178666Y-39748666D01*
X6278666Y-39782000D01*
X6578666Y-40082000D02*
X6812000Y-40082000D01*
X6912000Y-40448666D02*
X6578666Y-40448666D01*
X6578666Y-39748666D01*
X6912000Y-39748666D01*
X7212000Y-40448666D02*
X7212000Y-39748666D01*
X7612000Y-40448666D01*
X7612000Y-39748666D01*
X8345333Y-40382000D02*
X8312000Y-40415333D01*
X8212000Y-40448666D01*
X8145333Y-40448666D01*
X8045333Y-40415333D01*
X7978666Y-40348666D01*
X7945333Y-40282000D01*
X7912000Y-40148666D01*
X7912000Y-40048666D01*
X7945333Y-39915333D01*
X7978666Y-39848666D01*
X8045333Y-39782000D01*
X8145333Y-39748666D01*
X8212000Y-39748666D01*
X8312000Y-39782000D01*
X8345333Y-39815333D01*
X8926666Y-37875333D02*
X9026666Y-37908666D01*
X9193333Y-37908666D01*
X9260000Y-37875333D01*
X9293333Y-37842000D01*
X9326666Y-37775333D01*
X9326666Y-37708666D01*
X9293333Y-37642000D01*
X9260000Y-37608666D01*
X9193333Y-37575333D01*
X9060000Y-37542000D01*
X8993333Y-37508666D01*
X8960000Y-37475333D01*
X8926666Y-37408666D01*
X8926666Y-37342000D01*
X8960000Y-37275333D01*
X8993333Y-37242000D01*
X9060000Y-37208666D01*
X9226666Y-37208666D01*
X9326666Y-37242000D01*
X9626666Y-37542000D02*
X9860000Y-37542000D01*
X9960000Y-37908666D02*
X9626666Y-37908666D01*
X9626666Y-37208666D01*
X9960000Y-37208666D01*
X10260000Y-37908666D02*
X10260000Y-37208666D01*
X10660000Y-37908666D01*
X10660000Y-37208666D01*
X11226666Y-37542000D02*
X11326666Y-37575333D01*
X11360000Y-37608666D01*
X11393333Y-37675333D01*
X11393333Y-37775333D01*
X11360000Y-37842000D01*
X11326666Y-37875333D01*
X11260000Y-37908666D01*
X10993333Y-37908666D01*
X10993333Y-37208666D01*
X11226666Y-37208666D01*
X11293333Y-37242000D01*
X11326666Y-37275333D01*
X11360000Y-37342000D01*
X11360000Y-37408666D01*
X11326666Y-37475333D01*
X11293333Y-37508666D01*
X11226666Y-37542000D01*
X10993333Y-37542000D01*
X5928666Y-37875333D02*
X6028666Y-37908666D01*
X6195333Y-37908666D01*
X6262000Y-37875333D01*
X6295333Y-37842000D01*
X6328666Y-37775333D01*
X6328666Y-37708666D01*
X6295333Y-37642000D01*
X6262000Y-37608666D01*
X6195333Y-37575333D01*
X6062000Y-37542000D01*
X5995333Y-37508666D01*
X5962000Y-37475333D01*
X5928666Y-37408666D01*
X5928666Y-37342000D01*
X5962000Y-37275333D01*
X5995333Y-37242000D01*
X6062000Y-37208666D01*
X6228666Y-37208666D01*
X6328666Y-37242000D01*
X6628666Y-37542000D02*
X6862000Y-37542000D01*
X6962000Y-37908666D02*
X6628666Y-37908666D01*
X6628666Y-37208666D01*
X6962000Y-37208666D01*
X7262000Y-37908666D02*
X7262000Y-37208666D01*
X7662000Y-37908666D01*
X7662000Y-37208666D01*
X7962000Y-37708666D02*
X8295333Y-37708666D01*
X7895333Y-37908666D02*
X8128666Y-37208666D01*
X8362000Y-37908666D01*
X9626666Y-34702000D02*
X9560000Y-34668666D01*
X9460000Y-34668666D01*
X9360000Y-34702000D01*
X9293333Y-34768666D01*
X9260000Y-34835333D01*
X9226666Y-34968666D01*
X9226666Y-35068666D01*
X9260000Y-35202000D01*
X9293333Y-35268666D01*
X9360000Y-35335333D01*
X9460000Y-35368666D01*
X9526666Y-35368666D01*
X9626666Y-35335333D01*
X9660000Y-35302000D01*
X9660000Y-35068666D01*
X9526666Y-35068666D01*
X9960000Y-35368666D02*
X9960000Y-34668666D01*
X10360000Y-35368666D01*
X10360000Y-34668666D01*
X10693333Y-35368666D02*
X10693333Y-34668666D01*
X10860000Y-34668666D01*
X10960000Y-34702000D01*
X11026666Y-34768666D01*
X11060000Y-34835333D01*
X11093333Y-34968666D01*
X11093333Y-35068666D01*
X11060000Y-35202000D01*
X11026666Y-35268666D01*
X10960000Y-35335333D01*
X10860000Y-35368666D01*
X10693333Y-35368666D01*
X6995333Y-35302000D02*
X6962000Y-35335333D01*
X6862000Y-35368666D01*
X6795333Y-35368666D01*
X6695333Y-35335333D01*
X6628666Y-35268666D01*
X6595333Y-35202000D01*
X6562000Y-35068666D01*
X6562000Y-34968666D01*
X6595333Y-34835333D01*
X6628666Y-34768666D01*
X6695333Y-34702000D01*
X6795333Y-34668666D01*
X6862000Y-34668666D01*
X6962000Y-34702000D01*
X6995333Y-34735333D01*
X7262000Y-35335333D02*
X7362000Y-35368666D01*
X7528666Y-35368666D01*
X7595333Y-35335333D01*
X7628666Y-35302000D01*
X7662000Y-35235333D01*
X7662000Y-35168666D01*
X7628666Y-35102000D01*
X7595333Y-35068666D01*
X7528666Y-35035333D01*
X7395333Y-35002000D01*
X7328666Y-34968666D01*
X7295333Y-34935333D01*
X7262000Y-34868666D01*
X7262000Y-34802000D01*
X7295333Y-34735333D01*
X7328666Y-34702000D01*
X7395333Y-34668666D01*
X7562000Y-34668666D01*
X7662000Y-34702000D01*
X8976666Y-32795333D02*
X9076666Y-32828666D01*
X9243333Y-32828666D01*
X9310000Y-32795333D01*
X9343333Y-32762000D01*
X9376666Y-32695333D01*
X9376666Y-32628666D01*
X9343333Y-32562000D01*
X9310000Y-32528666D01*
X9243333Y-32495333D01*
X9110000Y-32462000D01*
X9043333Y-32428666D01*
X9010000Y-32395333D01*
X8976666Y-32328666D01*
X8976666Y-32262000D01*
X9010000Y-32195333D01*
X9043333Y-32162000D01*
X9110000Y-32128666D01*
X9276666Y-32128666D01*
X9376666Y-32162000D01*
X10076666Y-32762000D02*
X10043333Y-32795333D01*
X9943333Y-32828666D01*
X9876666Y-32828666D01*
X9776666Y-32795333D01*
X9710000Y-32728666D01*
X9676666Y-32662000D01*
X9643333Y-32528666D01*
X9643333Y-32428666D01*
X9676666Y-32295333D01*
X9710000Y-32228666D01*
X9776666Y-32162000D01*
X9876666Y-32128666D01*
X9943333Y-32128666D01*
X10043333Y-32162000D01*
X10076666Y-32195333D01*
X10710000Y-32828666D02*
X10376666Y-32828666D01*
X10376666Y-32128666D01*
X10943333Y-32828666D02*
X10943333Y-32128666D01*
X11343333Y-32828666D02*
X11043333Y-32428666D01*
X11343333Y-32128666D02*
X10943333Y-32528666D01*
X6395333Y-32795333D02*
X6495333Y-32828666D01*
X6662000Y-32828666D01*
X6728666Y-32795333D01*
X6762000Y-32762000D01*
X6795333Y-32695333D01*
X6795333Y-32628666D01*
X6762000Y-32562000D01*
X6728666Y-32528666D01*
X6662000Y-32495333D01*
X6528666Y-32462000D01*
X6462000Y-32428666D01*
X6428666Y-32395333D01*
X6395333Y-32328666D01*
X6395333Y-32262000D01*
X6428666Y-32195333D01*
X6462000Y-32162000D01*
X6528666Y-32128666D01*
X6695333Y-32128666D01*
X6795333Y-32162000D01*
X7095333Y-32828666D02*
X7095333Y-32128666D01*
X7262000Y-32128666D01*
X7362000Y-32162000D01*
X7428666Y-32228666D01*
X7462000Y-32295333D01*
X7495333Y-32428666D01*
X7495333Y-32528666D01*
X7462000Y-32662000D01*
X7428666Y-32728666D01*
X7362000Y-32795333D01*
X7262000Y-32828666D01*
X7095333Y-32828666D01*
X7795333Y-32828666D02*
X7795333Y-32128666D01*
X9243333Y-30255333D02*
X9343333Y-30288666D01*
X9510000Y-30288666D01*
X9576666Y-30255333D01*
X9610000Y-30222000D01*
X9643333Y-30155333D01*
X9643333Y-30088666D01*
X9610000Y-30022000D01*
X9576666Y-29988666D01*
X9510000Y-29955333D01*
X9376666Y-29922000D01*
X9310000Y-29888666D01*
X9276666Y-29855333D01*
X9243333Y-29788666D01*
X9243333Y-29722000D01*
X9276666Y-29655333D01*
X9310000Y-29622000D01*
X9376666Y-29588666D01*
X9543333Y-29588666D01*
X9643333Y-29622000D01*
X9943333Y-30288666D02*
X9943333Y-29588666D01*
X10110000Y-29588666D01*
X10210000Y-29622000D01*
X10276666Y-29688666D01*
X10310000Y-29755333D01*
X10343333Y-29888666D01*
X10343333Y-29988666D01*
X10310000Y-30122000D01*
X10276666Y-30188666D01*
X10210000Y-30255333D01*
X10110000Y-30288666D01*
X9943333Y-30288666D01*
X10776666Y-29588666D02*
X10910000Y-29588666D01*
X10976666Y-29622000D01*
X11043333Y-29688666D01*
X11076666Y-29822000D01*
X11076666Y-30055333D01*
X11043333Y-30188666D01*
X10976666Y-30255333D01*
X10910000Y-30288666D01*
X10776666Y-30288666D01*
X10710000Y-30255333D01*
X10643333Y-30188666D01*
X10610000Y-30055333D01*
X10610000Y-29822000D01*
X10643333Y-29688666D01*
X10710000Y-29622000D01*
X10776666Y-29588666D01*
X5945333Y-29922000D02*
X6178666Y-29922000D01*
X6278666Y-30288666D02*
X5945333Y-30288666D01*
X5945333Y-29588666D01*
X6278666Y-29588666D01*
X6578666Y-30288666D02*
X6578666Y-29588666D01*
X6978666Y-30288666D01*
X6978666Y-29588666D01*
X7678666Y-29622000D02*
X7612000Y-29588666D01*
X7512000Y-29588666D01*
X7412000Y-29622000D01*
X7345333Y-29688666D01*
X7312000Y-29755333D01*
X7278666Y-29888666D01*
X7278666Y-29988666D01*
X7312000Y-30122000D01*
X7345333Y-30188666D01*
X7412000Y-30255333D01*
X7512000Y-30288666D01*
X7578666Y-30288666D01*
X7678666Y-30255333D01*
X7712000Y-30222000D01*
X7712000Y-29988666D01*
X7578666Y-29988666D01*
X7978666Y-30088666D02*
X8312000Y-30088666D01*
X7912000Y-30288666D02*
X8145333Y-29588666D01*
X8378666Y-30288666D01*
X9043333Y-27382000D02*
X8810000Y-27382000D01*
X8810000Y-27748666D02*
X8810000Y-27048666D01*
X9143333Y-27048666D01*
X9376666Y-27548666D02*
X9710000Y-27548666D01*
X9310000Y-27748666D02*
X9543333Y-27048666D01*
X9776666Y-27748666D01*
X10010000Y-27048666D02*
X10010000Y-27615333D01*
X10043333Y-27682000D01*
X10076666Y-27715333D01*
X10143333Y-27748666D01*
X10276666Y-27748666D01*
X10343333Y-27715333D01*
X10376666Y-27682000D01*
X10410000Y-27615333D01*
X10410000Y-27048666D01*
X11076666Y-27748666D02*
X10743333Y-27748666D01*
X10743333Y-27048666D01*
X11210000Y-27048666D02*
X11610000Y-27048666D01*
X11410000Y-27748666D02*
X11410000Y-27048666D01*
X5878666Y-27382000D02*
X6112000Y-27382000D01*
X6212000Y-27748666D02*
X5878666Y-27748666D01*
X5878666Y-27048666D01*
X6212000Y-27048666D01*
X6512000Y-27748666D02*
X6512000Y-27048666D01*
X6912000Y-27748666D01*
X6912000Y-27048666D01*
X7478666Y-27382000D02*
X7578666Y-27415333D01*
X7612000Y-27448666D01*
X7645333Y-27515333D01*
X7645333Y-27615333D01*
X7612000Y-27682000D01*
X7578666Y-27715333D01*
X7512000Y-27748666D01*
X7245333Y-27748666D01*
X7245333Y-27048666D01*
X7478666Y-27048666D01*
X7545333Y-27082000D01*
X7578666Y-27115333D01*
X7612000Y-27182000D01*
X7612000Y-27248666D01*
X7578666Y-27315333D01*
X7545333Y-27348666D01*
X7478666Y-27382000D01*
X7245333Y-27382000D01*
X7945333Y-27048666D02*
X7945333Y-27615333D01*
X7978666Y-27682000D01*
X8012000Y-27715333D01*
X8078666Y-27748666D01*
X8212000Y-27748666D01*
X8278666Y-27715333D01*
X8312000Y-27682000D01*
X8345333Y-27615333D01*
X8345333Y-27048666D01*
X9160000Y-25208666D02*
X9160000Y-24508666D01*
X9493333Y-25208666D02*
X9493333Y-24508666D01*
X9893333Y-25208666D01*
X9893333Y-24508666D01*
X10560000Y-25208666D02*
X10226666Y-25208666D01*
X10226666Y-24508666D01*
X11193333Y-25142000D02*
X11160000Y-25175333D01*
X11060000Y-25208666D01*
X10993333Y-25208666D01*
X10893333Y-25175333D01*
X10826666Y-25108666D01*
X10793333Y-25042000D01*
X10760000Y-24908666D01*
X10760000Y-24808666D01*
X10793333Y-24675333D01*
X10826666Y-24608666D01*
X10893333Y-24542000D01*
X10993333Y-24508666D01*
X11060000Y-24508666D01*
X11160000Y-24542000D01*
X11193333Y-24575333D01*
X6112000Y-25208666D02*
X6112000Y-24508666D01*
X6445333Y-25208666D02*
X6445333Y-24508666D01*
X6845333Y-25208666D01*
X6845333Y-24508666D01*
X7512000Y-25208666D02*
X7178666Y-25208666D01*
X7178666Y-24508666D01*
X7978666Y-24842000D02*
X8078666Y-24875333D01*
X8112000Y-24908666D01*
X8145333Y-24975333D01*
X8145333Y-25075333D01*
X8112000Y-25142000D01*
X8078666Y-25175333D01*
X8012000Y-25208666D01*
X7745333Y-25208666D01*
X7745333Y-24508666D01*
X7978666Y-24508666D01*
X8045333Y-24542000D01*
X8078666Y-24575333D01*
X8112000Y-24642000D01*
X8112000Y-24708666D01*
X8078666Y-24775333D01*
X8045333Y-24808666D01*
X7978666Y-24842000D01*
X7745333Y-24842000D01*
X9210000Y-22668666D02*
X9210000Y-21968666D01*
X9543333Y-22668666D02*
X9543333Y-21968666D01*
X9943333Y-22668666D01*
X9943333Y-21968666D01*
X10610000Y-22668666D02*
X10276666Y-22668666D01*
X10276666Y-21968666D01*
X10810000Y-22468666D02*
X11143333Y-22468666D01*
X10743333Y-22668666D02*
X10976666Y-21968666D01*
X11210000Y-22668666D01*
X6028666Y-22668666D02*
X6028666Y-21968666D01*
X6362000Y-22668666D02*
X6362000Y-21968666D01*
X6762000Y-22668666D01*
X6762000Y-21968666D01*
X7095333Y-22668666D02*
X7095333Y-21968666D01*
X7095333Y-22302000D02*
X7495333Y-22302000D01*
X7495333Y-22668666D02*
X7495333Y-21968666D01*
X8228666Y-22602000D02*
X8195333Y-22635333D01*
X8095333Y-22668666D01*
X8028666Y-22668666D01*
X7928666Y-22635333D01*
X7862000Y-22568666D01*
X7828666Y-22502000D01*
X7795333Y-22368666D01*
X7795333Y-22268666D01*
X7828666Y-22135333D01*
X7862000Y-22068666D01*
X7928666Y-22002000D01*
X8028666Y-21968666D01*
X8095333Y-21968666D01*
X8195333Y-22002000D01*
X8228666Y-22035333D01*
X3234666Y-17842666D02*
X3234666Y-17142666D01*
X3568000Y-17842666D02*
X3568000Y-17142666D01*
X3968000Y-17842666D01*
X3968000Y-17142666D01*
X4301333Y-17842666D02*
X4301333Y-17142666D01*
X4301333Y-17476000D02*
X4701333Y-17476000D01*
X4701333Y-17842666D02*
X4701333Y-17142666D01*
X5268000Y-17476000D02*
X5368000Y-17509333D01*
X5401333Y-17542666D01*
X5434666Y-17609333D01*
X5434666Y-17709333D01*
X5401333Y-17776000D01*
X5368000Y-17809333D01*
X5301333Y-17842666D01*
X5034666Y-17842666D01*
X5034666Y-17142666D01*
X5268000Y-17142666D01*
X5334666Y-17176000D01*
X5368000Y-17209333D01*
X5401333Y-17276000D01*
X5401333Y-17342666D01*
X5368000Y-17409333D01*
X5334666Y-17442666D01*
X5268000Y-17476000D01*
X5034666Y-17476000D01*
X744666Y-17842666D02*
X744666Y-17142666D01*
X1078000Y-17842666D02*
X1078000Y-17142666D01*
X1478000Y-17842666D01*
X1478000Y-17142666D01*
X1811333Y-17842666D02*
X1811333Y-17142666D01*
X1811333Y-17476000D02*
X2211333Y-17476000D01*
X2211333Y-17842666D02*
X2211333Y-17142666D01*
X2511333Y-17642666D02*
X2844666Y-17642666D01*
X2444666Y-17842666D02*
X2678000Y-17142666D01*
X2911333Y-17842666D01*
D11*
X16588095Y-53380952D02*
X15969047Y-53814285D01*
X16588095Y-54123809D02*
X15288095Y-54123809D01*
X15288095Y-53628571D01*
X15350000Y-53504761D01*
X15411904Y-53442857D01*
X15535714Y-53380952D01*
X15721428Y-53380952D01*
X15845238Y-53442857D01*
X15907142Y-53504761D01*
X15969047Y-53628571D01*
X15969047Y-54123809D01*
X16588095Y-52638095D02*
X16526190Y-52761904D01*
X16464285Y-52823809D01*
X16340476Y-52885714D01*
X15969047Y-52885714D01*
X15845238Y-52823809D01*
X15783333Y-52761904D01*
X15721428Y-52638095D01*
X15721428Y-52452380D01*
X15783333Y-52328571D01*
X15845238Y-52266666D01*
X15969047Y-52204761D01*
X16340476Y-52204761D01*
X16464285Y-52266666D01*
X16526190Y-52328571D01*
X16588095Y-52452380D01*
X16588095Y-52638095D01*
X15721428Y-51833333D02*
X15721428Y-51338095D01*
X15288095Y-51647619D02*
X16402380Y-51647619D01*
X16526190Y-51585714D01*
X16588095Y-51461904D01*
X16588095Y-51338095D01*
X16588095Y-50719047D02*
X16526190Y-50842857D01*
X16464285Y-50904761D01*
X16340476Y-50966666D01*
X15969047Y-50966666D01*
X15845238Y-50904761D01*
X15783333Y-50842857D01*
X15721428Y-50719047D01*
X15721428Y-50533333D01*
X15783333Y-50409523D01*
X15845238Y-50347619D01*
X15969047Y-50285714D01*
X16340476Y-50285714D01*
X16464285Y-50347619D01*
X16526190Y-50409523D01*
X16588095Y-50533333D01*
X16588095Y-50719047D01*
X16588095Y-49728571D02*
X15721428Y-49728571D01*
X15845238Y-49728571D02*
X15783333Y-49666666D01*
X15721428Y-49542857D01*
X15721428Y-49357142D01*
X15783333Y-49233333D01*
X15907142Y-49171428D01*
X16588095Y-49171428D01*
X15907142Y-49171428D02*
X15783333Y-49109523D01*
X15721428Y-48985714D01*
X15721428Y-48800000D01*
X15783333Y-48676190D01*
X15907142Y-48614285D01*
X16588095Y-48614285D01*
X16588095Y-47004761D02*
X15288095Y-47004761D01*
X15288095Y-46695238D01*
X15350000Y-46509523D01*
X15473809Y-46385714D01*
X15597619Y-46323809D01*
X15845238Y-46261904D01*
X16030952Y-46261904D01*
X16278571Y-46323809D01*
X16402380Y-46385714D01*
X16526190Y-46509523D01*
X16588095Y-46695238D01*
X16588095Y-47004761D01*
X16588095Y-45704761D02*
X15721428Y-45704761D01*
X15969047Y-45704761D02*
X15845238Y-45642857D01*
X15783333Y-45580952D01*
X15721428Y-45457142D01*
X15721428Y-45333333D01*
X16588095Y-44900000D02*
X15721428Y-44900000D01*
X15288095Y-44900000D02*
X15350000Y-44961904D01*
X15411904Y-44900000D01*
X15350000Y-44838095D01*
X15288095Y-44900000D01*
X15411904Y-44900000D01*
X15721428Y-44404761D02*
X16588095Y-44095238D01*
X15721428Y-43785714D01*
X16526190Y-42795238D02*
X16588095Y-42919047D01*
X16588095Y-43166666D01*
X16526190Y-43290476D01*
X16402380Y-43352380D01*
X15907142Y-43352380D01*
X15783333Y-43290476D01*
X15721428Y-43166666D01*
X15721428Y-42919047D01*
X15783333Y-42795238D01*
X15907142Y-42733333D01*
X16030952Y-42733333D01*
X16154761Y-43352380D01*
X16588095Y-42176190D02*
X15721428Y-42176190D01*
X15969047Y-42176190D02*
X15845238Y-42114285D01*
X15783333Y-42052380D01*
X15721428Y-41928571D01*
X15721428Y-41804761D01*
X15411904Y-40442857D02*
X15350000Y-40380952D01*
X15288095Y-40257142D01*
X15288095Y-39947619D01*
X15350000Y-39823809D01*
X15411904Y-39761904D01*
X15535714Y-39700000D01*
X15659523Y-39700000D01*
X15845238Y-39761904D01*
X16588095Y-40504761D01*
X16588095Y-39700000D01*
X15288095Y-38895238D02*
X15288095Y-38771428D01*
X15350000Y-38647619D01*
X15411904Y-38585714D01*
X15535714Y-38523809D01*
X15783333Y-38461904D01*
X16092857Y-38461904D01*
X16340476Y-38523809D01*
X16464285Y-38585714D01*
X16526190Y-38647619D01*
X16588095Y-38771428D01*
X16588095Y-38895238D01*
X16526190Y-39019047D01*
X16464285Y-39080952D01*
X16340476Y-39142857D01*
X16092857Y-39204761D01*
X15783333Y-39204761D01*
X15535714Y-39142857D01*
X15411904Y-39080952D01*
X15350000Y-39019047D01*
X15288095Y-38895238D01*
X15411904Y-37966666D02*
X15350000Y-37904761D01*
X15288095Y-37780952D01*
X15288095Y-37471428D01*
X15350000Y-37347619D01*
X15411904Y-37285714D01*
X15535714Y-37223809D01*
X15659523Y-37223809D01*
X15845238Y-37285714D01*
X16588095Y-38028571D01*
X16588095Y-37223809D01*
X16588095Y-35985714D02*
X16588095Y-36728571D01*
X16588095Y-36357142D02*
X15288095Y-36357142D01*
X15473809Y-36480952D01*
X15597619Y-36604761D01*
X15659523Y-36728571D01*
X16092857Y-35428571D02*
X16092857Y-34438095D01*
X15288095Y-33571428D02*
X15288095Y-33447619D01*
X15350000Y-33323809D01*
X15411904Y-33261904D01*
X15535714Y-33199999D01*
X15783333Y-33138095D01*
X16092857Y-33138095D01*
X16340476Y-33199999D01*
X16464285Y-33261904D01*
X16526190Y-33323809D01*
X16588095Y-33447619D01*
X16588095Y-33571428D01*
X16526190Y-33695238D01*
X16464285Y-33757142D01*
X16340476Y-33819047D01*
X16092857Y-33880952D01*
X15783333Y-33880952D01*
X15535714Y-33819047D01*
X15411904Y-33757142D01*
X15350000Y-33695238D01*
X15288095Y-33571428D01*
X16588095Y-31899999D02*
X16588095Y-32642857D01*
X16588095Y-32271428D02*
X15288095Y-32271428D01*
X15473809Y-32395238D01*
X15597619Y-32519047D01*
X15659523Y-32642857D01*
X16092857Y-31342857D02*
X16092857Y-30352380D01*
X15288095Y-29485714D02*
X15288095Y-29361904D01*
X15350000Y-29238095D01*
X15411904Y-29176190D01*
X15535714Y-29114285D01*
X15783333Y-29052380D01*
X16092857Y-29052380D01*
X16340476Y-29114285D01*
X16464285Y-29176190D01*
X16526190Y-29238095D01*
X16588095Y-29361904D01*
X16588095Y-29485714D01*
X16526190Y-29609523D01*
X16464285Y-29671428D01*
X16340476Y-29733333D01*
X16092857Y-29795238D01*
X15783333Y-29795238D01*
X15535714Y-29733333D01*
X15411904Y-29671428D01*
X15350000Y-29609523D01*
X15288095Y-29485714D01*
X15721428Y-27938095D02*
X16588095Y-27938095D01*
X15226190Y-28247619D02*
X16154761Y-28557142D01*
X16154761Y-27752380D01*
D10*
%TO.C,U3*%
X68326000Y-39792000D02*
X66826000Y-39792000D01*
X68326000Y-39792000D02*
X69826000Y-39792000D01*
X68326000Y-43012000D02*
X66826000Y-43012000D01*
X68326000Y-43012000D02*
X71251000Y-43012000D01*
%TO.C,R9*%
X68563258Y-38622500D02*
X68088742Y-38622500D01*
X68563258Y-37577500D02*
X68088742Y-37577500D01*
%TO.C,R3*%
X68563258Y-36336500D02*
X68088742Y-36336500D01*
X68563258Y-35291500D02*
X68088742Y-35291500D01*
%TO.C,C6*%
X72300000Y-43891252D02*
X72300000Y-42468748D01*
X75020000Y-43891252D02*
X75020000Y-42468748D01*
%TO.C,C5*%
X75020000Y-36372748D02*
X75020000Y-37795252D01*
X72300000Y-36372748D02*
X72300000Y-37795252D01*
%TO.C,C1*%
X75020000Y-13512748D02*
X75020000Y-14935252D01*
X72300000Y-13512748D02*
X72300000Y-14935252D01*
%TO.C,C2*%
X75020000Y-21031252D02*
X75020000Y-19608748D01*
X72300000Y-21031252D02*
X72300000Y-19608748D01*
%TO.C,C3*%
X75020000Y-24942748D02*
X75020000Y-26365252D01*
X72300000Y-24942748D02*
X72300000Y-26365252D01*
%TO.C,C4*%
X75020000Y-32461252D02*
X75020000Y-31038748D01*
X72300000Y-32461252D02*
X72300000Y-31038748D01*
%TO.C,C7*%
X68185420Y-21334000D02*
X68466580Y-21334000D01*
X68185420Y-22354000D02*
X68466580Y-22354000D01*
%TO.C,C8*%
X68185420Y-33784000D02*
X68466580Y-33784000D01*
X68185420Y-32764000D02*
X68466580Y-32764000D01*
%TO.C,C9*%
X68185420Y-45214000D02*
X68466580Y-45214000D01*
X68185420Y-44194000D02*
X68466580Y-44194000D01*
%TO.C,C10*%
X30593420Y-32768000D02*
X30874580Y-32768000D01*
X30593420Y-31748000D02*
X30874580Y-31748000D01*
%TO.C,C11*%
X30593420Y-41654000D02*
X30874580Y-41654000D01*
X30593420Y-42674000D02*
X30874580Y-42674000D01*
%TO.C,C12*%
X30593420Y-52068000D02*
X30874580Y-52068000D01*
X30593420Y-53088000D02*
X30874580Y-53088000D01*
%TO.C,C13*%
X30593420Y-33272000D02*
X30874580Y-33272000D01*
X30593420Y-34292000D02*
X30874580Y-34292000D01*
%TO.C,C14*%
X30593420Y-44198000D02*
X30874580Y-44198000D01*
X30593420Y-43178000D02*
X30874580Y-43178000D01*
%TO.C,C15*%
X30593420Y-54612000D02*
X30874580Y-54612000D01*
X30593420Y-53592000D02*
X30874580Y-53592000D01*
%TO.C,C16*%
X44757000Y-709000D02*
X42507000Y-709000D01*
X43632000Y416000D02*
X43632000Y-1834000D01*
X27776437Y-2074000D02*
X26712000Y-3138437D01*
X44867563Y-2074000D02*
X45932000Y-3138437D01*
X44867563Y-2074000D02*
X41382000Y-2074000D01*
X27776437Y-2074000D02*
X31262000Y-2074000D01*
X26712000Y-3138437D02*
X26712000Y-21294000D01*
X45932000Y-3138437D02*
X45932000Y-21294000D01*
X45932000Y-21294000D02*
X41382000Y-21294000D01*
X26712000Y-21294000D02*
X31262000Y-21294000D01*
%TO.C,C17*%
X6392000Y-21294000D02*
X10942000Y-21294000D01*
X25612000Y-21294000D02*
X21062000Y-21294000D01*
X25612000Y-3138437D02*
X25612000Y-21294000D01*
X6392000Y-3138437D02*
X6392000Y-21294000D01*
X7456437Y-2074000D02*
X10942000Y-2074000D01*
X24547563Y-2074000D02*
X21062000Y-2074000D01*
X24547563Y-2074000D02*
X25612000Y-3138437D01*
X7456437Y-2074000D02*
X6392000Y-3138437D01*
X23312000Y416000D02*
X23312000Y-1834000D01*
X24437000Y-709000D02*
X22187000Y-709000D01*
%TO.C,C18*%
X52464580Y-54866000D02*
X52183420Y-54866000D01*
X52464580Y-53846000D02*
X52183420Y-53846000D01*
%TO.C,C19*%
X36689420Y-33272000D02*
X36970580Y-33272000D01*
X36689420Y-34292000D02*
X36970580Y-34292000D01*
%TO.C,C20*%
X55878000Y-32144580D02*
X55878000Y-31863420D01*
X56898000Y-32144580D02*
X56898000Y-31863420D01*
%TO.C,C21*%
X42785420Y-35816000D02*
X43066580Y-35816000D01*
X42785420Y-34796000D02*
X43066580Y-34796000D01*
%TO.C,C22*%
X56898000Y-37732580D02*
X56898000Y-37451420D01*
X55878000Y-37732580D02*
X55878000Y-37451420D01*
%TO.C,C23*%
X40130000Y-28561420D02*
X40130000Y-28842580D01*
X41150000Y-28561420D02*
X41150000Y-28842580D01*
%TO.C,C24*%
X41978000Y-24942000D02*
X41978000Y-31702000D01*
X45398000Y-24942000D02*
X41978000Y-24942000D01*
X45398000Y-31702000D02*
X45398000Y-24942000D01*
%TO.C,C25*%
X57517420Y-34288000D02*
X57798580Y-34288000D01*
X57517420Y-35308000D02*
X57798580Y-35308000D01*
%TO.C,C26*%
X43066580Y-44198000D02*
X42785420Y-44198000D01*
X43066580Y-43178000D02*
X42785420Y-43178000D01*
%TO.C,C27*%
X57517420Y-43178000D02*
X57798580Y-43178000D01*
X57517420Y-44198000D02*
X57798580Y-44198000D01*
%TO.C,C28*%
X43066580Y-42674000D02*
X42785420Y-42674000D01*
X43066580Y-41654000D02*
X42785420Y-41654000D01*
%TO.C,C29*%
X43066580Y-40130000D02*
X42785420Y-40130000D01*
X43066580Y-41150000D02*
X42785420Y-41150000D01*
%TO.C,C30*%
X58279420Y-46738000D02*
X58560580Y-46738000D01*
X58279420Y-45718000D02*
X58560580Y-45718000D01*
%TO.C,C31*%
X43066580Y-48258000D02*
X42785420Y-48258000D01*
X43066580Y-49278000D02*
X42785420Y-49278000D01*
%TO.C,C32*%
X43066580Y-50802000D02*
X42785420Y-50802000D01*
X43066580Y-49782000D02*
X42785420Y-49782000D01*
%TO.C,C33*%
X57517420Y-51056000D02*
X57798580Y-51056000D01*
X57517420Y-50036000D02*
X57798580Y-50036000D01*
%TO.C,C34*%
X51929420Y-19048000D02*
X52210580Y-19048000D01*
X51929420Y-20068000D02*
X52210580Y-20068000D01*
%TO.C,C35*%
X48654580Y-19048000D02*
X48373420Y-19048000D01*
X48654580Y-20068000D02*
X48373420Y-20068000D01*
%TO.C,C36*%
X53292000Y-5910000D02*
X46532000Y-5910000D01*
X46532000Y-5910000D02*
X46532000Y-9330000D01*
X46532000Y-9330000D02*
X53292000Y-9330000D01*
%TO.C,C37*%
X24497420Y-24890000D02*
X24778580Y-24890000D01*
X24497420Y-25910000D02*
X24778580Y-25910000D01*
%TO.C,C38*%
X24497420Y-34796000D02*
X24778580Y-34796000D01*
X24497420Y-35816000D02*
X24778580Y-35816000D01*
%TO.C,C39*%
X24497420Y-45722000D02*
X24778580Y-45722000D01*
X24497420Y-44702000D02*
X24778580Y-44702000D01*
%TO.C,D1*%
X53812000Y-35798000D02*
X53812000Y-33798000D01*
X53812000Y-33798000D02*
X49912000Y-33798000D01*
X53812000Y-35798000D02*
X49912000Y-35798000D01*
%TO.C,D2*%
X46638000Y-20702000D02*
X46638000Y-24002000D01*
X46638000Y-24002000D02*
X52038000Y-24002000D01*
X46638000Y-20702000D02*
X52038000Y-20702000D01*
%TO.C,L1*%
X46092000Y-27452000D02*
X46092000Y-29952000D01*
X54492000Y-29952000D02*
X54492000Y-27452000D01*
%TO.C,Q7*%
X39846000Y-54602000D02*
X39846000Y-55262000D01*
X39846000Y-52942000D02*
X39846000Y-53602000D01*
X39846000Y-52942000D02*
X37816000Y-52942000D01*
X38436000Y-55262000D02*
X39846000Y-55262000D01*
%TO.C,R1*%
X68563258Y-12431500D02*
X68088742Y-12431500D01*
X68563258Y-13476500D02*
X68088742Y-13476500D01*
%TO.C,R2*%
X68563258Y-23861500D02*
X68088742Y-23861500D01*
X68563258Y-24906500D02*
X68088742Y-24906500D01*
%TO.C,R7*%
X68563258Y-15762500D02*
X68088742Y-15762500D01*
X68563258Y-14717500D02*
X68088742Y-14717500D01*
%TO.C,R8*%
X68563258Y-27192500D02*
X68088742Y-27192500D01*
X68563258Y-26147500D02*
X68088742Y-26147500D01*
%TO.C,R10*%
X30971258Y-25922500D02*
X30496742Y-25922500D01*
X30971258Y-24877500D02*
X30496742Y-24877500D01*
%TO.C,R11*%
X30971258Y-34783500D02*
X30496742Y-34783500D01*
X30971258Y-35828500D02*
X30496742Y-35828500D01*
%TO.C,R12*%
X30971258Y-45734500D02*
X30496742Y-45734500D01*
X30971258Y-44689500D02*
X30496742Y-44689500D01*
%TO.C,R13*%
X52086742Y-52309500D02*
X52561258Y-52309500D01*
X52086742Y-53354500D02*
X52561258Y-53354500D01*
%TO.C,R14*%
X52561258Y-56402500D02*
X52086742Y-56402500D01*
X52561258Y-55357500D02*
X52086742Y-55357500D01*
%TO.C,R15*%
X36592742Y-37352500D02*
X37067258Y-37352500D01*
X36592742Y-36307500D02*
X37067258Y-36307500D01*
%TO.C,R16*%
X42688742Y-34304500D02*
X43163258Y-34304500D01*
X42688742Y-33259500D02*
X43163258Y-33259500D01*
%TO.C,R17*%
X37067258Y-35828500D02*
X36592742Y-35828500D01*
X37067258Y-34783500D02*
X36592742Y-34783500D01*
%TO.C,R18*%
X42688742Y-37352500D02*
X43163258Y-37352500D01*
X42688742Y-36307500D02*
X43163258Y-36307500D01*
%TO.C,R19*%
X43163258Y-55386500D02*
X42688742Y-55386500D01*
X43163258Y-54341500D02*
X42688742Y-54341500D01*
%TO.C,R20*%
X43163258Y-39638500D02*
X42688742Y-39638500D01*
X43163258Y-38593500D02*
X42688742Y-38593500D01*
%TO.C,R21*%
X36592742Y-38593500D02*
X37067258Y-38593500D01*
X36592742Y-39638500D02*
X37067258Y-39638500D01*
%TO.C,R22*%
X42688742Y-53862500D02*
X43163258Y-53862500D01*
X42688742Y-52817500D02*
X43163258Y-52817500D01*
%TO.C,R23*%
X24875258Y-33259500D02*
X24400742Y-33259500D01*
X24875258Y-34304500D02*
X24400742Y-34304500D01*
%TO.C,R24*%
X24875258Y-32780500D02*
X24400742Y-32780500D01*
X24875258Y-31735500D02*
X24400742Y-31735500D01*
%TO.C,R25*%
X24875258Y-43165500D02*
X24400742Y-43165500D01*
X24875258Y-44210500D02*
X24400742Y-44210500D01*
%TO.C,R26*%
X24875258Y-41641500D02*
X24400742Y-41641500D01*
X24875258Y-42686500D02*
X24400742Y-42686500D01*
%TO.C,R27*%
X24875258Y-53579500D02*
X24400742Y-53579500D01*
X24875258Y-54624500D02*
X24400742Y-54624500D01*
%TO.C,R28*%
X24875258Y-53100500D02*
X24400742Y-53100500D01*
X24875258Y-52055500D02*
X24400742Y-52055500D01*
%TO.C,U1*%
X68326000Y-20152000D02*
X71251000Y-20152000D01*
X68326000Y-20152000D02*
X66826000Y-20152000D01*
X68326000Y-16932000D02*
X69826000Y-16932000D01*
X68326000Y-16932000D02*
X66826000Y-16932000D01*
%TO.C,U2*%
X68326000Y-28362000D02*
X66826000Y-28362000D01*
X68326000Y-28362000D02*
X69826000Y-28362000D01*
X68326000Y-31582000D02*
X66826000Y-31582000D01*
X68326000Y-31582000D02*
X71251000Y-31582000D01*
D12*
%TO.C,U4*%
X31610300Y-27838400D02*
X29857700Y-27838400D01*
X31610300Y-29827261D02*
X31610300Y-29100739D01*
X29857700Y-31089600D02*
X31610300Y-31089600D01*
%TO.C,U5*%
X29857700Y-40995600D02*
X31610300Y-40995600D01*
X31610300Y-39733261D02*
X31610300Y-39006739D01*
X31610300Y-37744400D02*
X29857700Y-37744400D01*
%TO.C,U6*%
X31610300Y-48158400D02*
X29857700Y-48158400D01*
X31610300Y-50147261D02*
X31610300Y-49420739D01*
X29857700Y-51409600D02*
X31610300Y-51409600D01*
D13*
%TO.C,U7*%
X53467000Y-36817000D02*
X53467000Y-36824500D01*
X53467000Y-51067000D02*
X53467000Y-51059500D01*
X47117000Y-51067000D02*
X47117000Y-51059500D01*
X46042000Y-36742000D02*
X53467000Y-36742000D01*
X47117000Y-51067000D02*
X53467000Y-51067000D01*
D10*
%TO.C,U8*%
X53702000Y-12187000D02*
X52442000Y-12187000D01*
X46882000Y-12187000D02*
X48142000Y-12187000D01*
X53702000Y-15947000D02*
X53702000Y-12187000D01*
X46882000Y-18197000D02*
X46882000Y-12187000D01*
D12*
%TO.C,U9*%
X23761700Y-31089600D02*
X25514300Y-31089600D01*
X25514300Y-29827261D02*
X25514300Y-29100739D01*
X25514300Y-27838400D02*
X23761700Y-27838400D01*
%TO.C,U10*%
X23761700Y-40995600D02*
X25514300Y-40995600D01*
X25514300Y-39733261D02*
X25514300Y-39006739D01*
X25514300Y-37744400D02*
X23761700Y-37744400D01*
%TO.C,U11*%
X25514300Y-48158400D02*
X23761700Y-48158400D01*
X25514300Y-50147261D02*
X25514300Y-49420739D01*
X23761700Y-51409600D02*
X25514300Y-51409600D01*
D10*
%TO.C,J1*%
X448000Y-18482000D02*
X1778000Y-18482000D01*
X448000Y-19812000D02*
X448000Y-18482000D01*
X3048000Y-18482000D02*
X5648000Y-18482000D01*
X3048000Y-21082000D02*
X3048000Y-18482000D01*
X448000Y-21082000D02*
X3048000Y-21082000D01*
X5648000Y-18482000D02*
X5648000Y-56702000D01*
X448000Y-21082000D02*
X448000Y-56702000D01*
X448000Y-56702000D02*
X5648000Y-56702000D01*
%TO.C,U3*%
D13*
X63968380Y-42163904D02*
X64777904Y-42163904D01*
X64873142Y-42116285D01*
X64920761Y-42068666D01*
X64968380Y-41973428D01*
X64968380Y-41782952D01*
X64920761Y-41687714D01*
X64873142Y-41640095D01*
X64777904Y-41592476D01*
X63968380Y-41592476D01*
X63968380Y-41211523D02*
X63968380Y-40592476D01*
X64349333Y-40925809D01*
X64349333Y-40782952D01*
X64396952Y-40687714D01*
X64444571Y-40640095D01*
X64539809Y-40592476D01*
X64777904Y-40592476D01*
X64873142Y-40640095D01*
X64920761Y-40687714D01*
X64968380Y-40782952D01*
X64968380Y-41068666D01*
X64920761Y-41163904D01*
X64873142Y-41211523D01*
%TO.C,R9*%
X70636333Y-38552380D02*
X70303000Y-38076190D01*
X70064904Y-38552380D02*
X70064904Y-37552380D01*
X70445857Y-37552380D01*
X70541095Y-37600000D01*
X70588714Y-37647619D01*
X70636333Y-37742857D01*
X70636333Y-37885714D01*
X70588714Y-37980952D01*
X70541095Y-38028571D01*
X70445857Y-38076190D01*
X70064904Y-38076190D01*
X71112523Y-38552380D02*
X71303000Y-38552380D01*
X71398238Y-38504761D01*
X71445857Y-38457142D01*
X71541095Y-38314285D01*
X71588714Y-38123809D01*
X71588714Y-37742857D01*
X71541095Y-37647619D01*
X71493476Y-37600000D01*
X71398238Y-37552380D01*
X71207761Y-37552380D01*
X71112523Y-37600000D01*
X71064904Y-37647619D01*
X71017285Y-37742857D01*
X71017285Y-37980952D01*
X71064904Y-38076190D01*
X71112523Y-38123809D01*
X71207761Y-38171428D01*
X71398238Y-38171428D01*
X71493476Y-38123809D01*
X71541095Y-38076190D01*
X71588714Y-37980952D01*
%TO.C,R3*%
X70699333Y-36266380D02*
X70366000Y-35790190D01*
X70127904Y-36266380D02*
X70127904Y-35266380D01*
X70508857Y-35266380D01*
X70604095Y-35314000D01*
X70651714Y-35361619D01*
X70699333Y-35456857D01*
X70699333Y-35599714D01*
X70651714Y-35694952D01*
X70604095Y-35742571D01*
X70508857Y-35790190D01*
X70127904Y-35790190D01*
X71032666Y-35266380D02*
X71651714Y-35266380D01*
X71318380Y-35647333D01*
X71461238Y-35647333D01*
X71556476Y-35694952D01*
X71604095Y-35742571D01*
X71651714Y-35837809D01*
X71651714Y-36075904D01*
X71604095Y-36171142D01*
X71556476Y-36218761D01*
X71461238Y-36266380D01*
X71175523Y-36266380D01*
X71080285Y-36218761D01*
X71032666Y-36171142D01*
%TO.C,P5*%
X66746380Y-52808095D02*
X65746380Y-52808095D01*
X65746380Y-52427142D01*
X65794000Y-52331904D01*
X65841619Y-52284285D01*
X65936857Y-52236666D01*
X66079714Y-52236666D01*
X66174952Y-52284285D01*
X66222571Y-52331904D01*
X66270190Y-52427142D01*
X66270190Y-52808095D01*
X65746380Y-51331904D02*
X65746380Y-51808095D01*
X66222571Y-51855714D01*
X66174952Y-51808095D01*
X66127333Y-51712857D01*
X66127333Y-51474761D01*
X66174952Y-51379523D01*
X66222571Y-51331904D01*
X66317809Y-51284285D01*
X66555904Y-51284285D01*
X66651142Y-51331904D01*
X66698761Y-51379523D01*
X66746380Y-51474761D01*
X66746380Y-51712857D01*
X66698761Y-51808095D01*
X66651142Y-51855714D01*
%TO.C,C6*%
X76303142Y-43346666D02*
X76350761Y-43394285D01*
X76398380Y-43537142D01*
X76398380Y-43632380D01*
X76350761Y-43775238D01*
X76255523Y-43870476D01*
X76160285Y-43918095D01*
X75969809Y-43965714D01*
X75826952Y-43965714D01*
X75636476Y-43918095D01*
X75541238Y-43870476D01*
X75446000Y-43775238D01*
X75398380Y-43632380D01*
X75398380Y-43537142D01*
X75446000Y-43394285D01*
X75493619Y-43346666D01*
X75398380Y-42489523D02*
X75398380Y-42680000D01*
X75446000Y-42775238D01*
X75493619Y-42822857D01*
X75636476Y-42918095D01*
X75826952Y-42965714D01*
X76207904Y-42965714D01*
X76303142Y-42918095D01*
X76350761Y-42870476D01*
X76398380Y-42775238D01*
X76398380Y-42584761D01*
X76350761Y-42489523D01*
X76303142Y-42441904D01*
X76207904Y-42394285D01*
X75969809Y-42394285D01*
X75874571Y-42441904D01*
X75826952Y-42489523D01*
X75779333Y-42584761D01*
X75779333Y-42775238D01*
X75826952Y-42870476D01*
X75874571Y-42918095D01*
X75969809Y-42965714D01*
%TO.C,C5*%
X76303142Y-37250666D02*
X76350761Y-37298285D01*
X76398380Y-37441142D01*
X76398380Y-37536380D01*
X76350761Y-37679238D01*
X76255523Y-37774476D01*
X76160285Y-37822095D01*
X75969809Y-37869714D01*
X75826952Y-37869714D01*
X75636476Y-37822095D01*
X75541238Y-37774476D01*
X75446000Y-37679238D01*
X75398380Y-37536380D01*
X75398380Y-37441142D01*
X75446000Y-37298285D01*
X75493619Y-37250666D01*
X75398380Y-36345904D02*
X75398380Y-36822095D01*
X75874571Y-36869714D01*
X75826952Y-36822095D01*
X75779333Y-36726857D01*
X75779333Y-36488761D01*
X75826952Y-36393523D01*
X75874571Y-36345904D01*
X75969809Y-36298285D01*
X76207904Y-36298285D01*
X76303142Y-36345904D01*
X76350761Y-36393523D01*
X76398380Y-36488761D01*
X76398380Y-36726857D01*
X76350761Y-36822095D01*
X76303142Y-36869714D01*
%TO.C,P1*%
X66746380Y-6072095D02*
X65746380Y-6072095D01*
X65746380Y-5691142D01*
X65794000Y-5595904D01*
X65841619Y-5548285D01*
X65936857Y-5500666D01*
X66079714Y-5500666D01*
X66174952Y-5548285D01*
X66222571Y-5595904D01*
X66270190Y-5691142D01*
X66270190Y-6072095D01*
X66746380Y-4548285D02*
X66746380Y-5119714D01*
X66746380Y-4834000D02*
X65746380Y-4834000D01*
X65889238Y-4929238D01*
X65984476Y-5024476D01*
X66032095Y-5119714D01*
%TO.C,C1*%
X76303142Y-14390666D02*
X76350761Y-14438285D01*
X76398380Y-14581142D01*
X76398380Y-14676380D01*
X76350761Y-14819238D01*
X76255523Y-14914476D01*
X76160285Y-14962095D01*
X75969809Y-15009714D01*
X75826952Y-15009714D01*
X75636476Y-14962095D01*
X75541238Y-14914476D01*
X75446000Y-14819238D01*
X75398380Y-14676380D01*
X75398380Y-14581142D01*
X75446000Y-14438285D01*
X75493619Y-14390666D01*
X76398380Y-13438285D02*
X76398380Y-14009714D01*
X76398380Y-13724000D02*
X75398380Y-13724000D01*
X75541238Y-13819238D01*
X75636476Y-13914476D01*
X75684095Y-14009714D01*
%TO.C,C2*%
X76303142Y-20486666D02*
X76350761Y-20534285D01*
X76398380Y-20677142D01*
X76398380Y-20772380D01*
X76350761Y-20915238D01*
X76255523Y-21010476D01*
X76160285Y-21058095D01*
X75969809Y-21105714D01*
X75826952Y-21105714D01*
X75636476Y-21058095D01*
X75541238Y-21010476D01*
X75446000Y-20915238D01*
X75398380Y-20772380D01*
X75398380Y-20677142D01*
X75446000Y-20534285D01*
X75493619Y-20486666D01*
X75493619Y-20105714D02*
X75446000Y-20058095D01*
X75398380Y-19962857D01*
X75398380Y-19724761D01*
X75446000Y-19629523D01*
X75493619Y-19581904D01*
X75588857Y-19534285D01*
X75684095Y-19534285D01*
X75826952Y-19581904D01*
X76398380Y-20153333D01*
X76398380Y-19534285D01*
%TO.C,C3*%
X76303142Y-25820666D02*
X76350761Y-25868285D01*
X76398380Y-26011142D01*
X76398380Y-26106380D01*
X76350761Y-26249238D01*
X76255523Y-26344476D01*
X76160285Y-26392095D01*
X75969809Y-26439714D01*
X75826952Y-26439714D01*
X75636476Y-26392095D01*
X75541238Y-26344476D01*
X75446000Y-26249238D01*
X75398380Y-26106380D01*
X75398380Y-26011142D01*
X75446000Y-25868285D01*
X75493619Y-25820666D01*
X75398380Y-25487333D02*
X75398380Y-24868285D01*
X75779333Y-25201619D01*
X75779333Y-25058761D01*
X75826952Y-24963523D01*
X75874571Y-24915904D01*
X75969809Y-24868285D01*
X76207904Y-24868285D01*
X76303142Y-24915904D01*
X76350761Y-24963523D01*
X76398380Y-25058761D01*
X76398380Y-25344476D01*
X76350761Y-25439714D01*
X76303142Y-25487333D01*
%TO.C,C4*%
X76303142Y-31916666D02*
X76350761Y-31964285D01*
X76398380Y-32107142D01*
X76398380Y-32202380D01*
X76350761Y-32345238D01*
X76255523Y-32440476D01*
X76160285Y-32488095D01*
X75969809Y-32535714D01*
X75826952Y-32535714D01*
X75636476Y-32488095D01*
X75541238Y-32440476D01*
X75446000Y-32345238D01*
X75398380Y-32202380D01*
X75398380Y-32107142D01*
X75446000Y-31964285D01*
X75493619Y-31916666D01*
X75731714Y-31059523D02*
X76398380Y-31059523D01*
X75350761Y-31297619D02*
X76065047Y-31535714D01*
X76065047Y-30916666D01*
%TO.C,C7*%
X70699333Y-22201142D02*
X70651714Y-22248761D01*
X70508857Y-22296380D01*
X70413619Y-22296380D01*
X70270761Y-22248761D01*
X70175523Y-22153523D01*
X70127904Y-22058285D01*
X70080285Y-21867809D01*
X70080285Y-21724952D01*
X70127904Y-21534476D01*
X70175523Y-21439238D01*
X70270761Y-21344000D01*
X70413619Y-21296380D01*
X70508857Y-21296380D01*
X70651714Y-21344000D01*
X70699333Y-21391619D01*
X71032666Y-21296380D02*
X71699333Y-21296380D01*
X71270761Y-22296380D01*
%TO.C,C8*%
X70699333Y-33631142D02*
X70651714Y-33678761D01*
X70508857Y-33726380D01*
X70413619Y-33726380D01*
X70270761Y-33678761D01*
X70175523Y-33583523D01*
X70127904Y-33488285D01*
X70080285Y-33297809D01*
X70080285Y-33154952D01*
X70127904Y-32964476D01*
X70175523Y-32869238D01*
X70270761Y-32774000D01*
X70413619Y-32726380D01*
X70508857Y-32726380D01*
X70651714Y-32774000D01*
X70699333Y-32821619D01*
X71270761Y-33154952D02*
X71175523Y-33107333D01*
X71127904Y-33059714D01*
X71080285Y-32964476D01*
X71080285Y-32916857D01*
X71127904Y-32821619D01*
X71175523Y-32774000D01*
X71270761Y-32726380D01*
X71461238Y-32726380D01*
X71556476Y-32774000D01*
X71604095Y-32821619D01*
X71651714Y-32916857D01*
X71651714Y-32964476D01*
X71604095Y-33059714D01*
X71556476Y-33107333D01*
X71461238Y-33154952D01*
X71270761Y-33154952D01*
X71175523Y-33202571D01*
X71127904Y-33250190D01*
X71080285Y-33345428D01*
X71080285Y-33535904D01*
X71127904Y-33631142D01*
X71175523Y-33678761D01*
X71270761Y-33726380D01*
X71461238Y-33726380D01*
X71556476Y-33678761D01*
X71604095Y-33631142D01*
X71651714Y-33535904D01*
X71651714Y-33345428D01*
X71604095Y-33250190D01*
X71556476Y-33202571D01*
X71461238Y-33154952D01*
%TO.C,C9*%
X70699333Y-45061142D02*
X70651714Y-45108761D01*
X70508857Y-45156380D01*
X70413619Y-45156380D01*
X70270761Y-45108761D01*
X70175523Y-45013523D01*
X70127904Y-44918285D01*
X70080285Y-44727809D01*
X70080285Y-44584952D01*
X70127904Y-44394476D01*
X70175523Y-44299238D01*
X70270761Y-44204000D01*
X70413619Y-44156380D01*
X70508857Y-44156380D01*
X70651714Y-44204000D01*
X70699333Y-44251619D01*
X71175523Y-45156380D02*
X71366000Y-45156380D01*
X71461238Y-45108761D01*
X71508857Y-45061142D01*
X71604095Y-44918285D01*
X71651714Y-44727809D01*
X71651714Y-44346857D01*
X71604095Y-44251619D01*
X71556476Y-44204000D01*
X71461238Y-44156380D01*
X71270761Y-44156380D01*
X71175523Y-44204000D01*
X71127904Y-44251619D01*
X71080285Y-44346857D01*
X71080285Y-44584952D01*
X71127904Y-44680190D01*
X71175523Y-44727809D01*
X71270761Y-44775428D01*
X71461238Y-44775428D01*
X71556476Y-44727809D01*
X71604095Y-44680190D01*
X71651714Y-44584952D01*
%TO.C,C10*%
X27297142Y-32615142D02*
X27249523Y-32662761D01*
X27106666Y-32710380D01*
X27011428Y-32710380D01*
X26868571Y-32662761D01*
X26773333Y-32567523D01*
X26725714Y-32472285D01*
X26678095Y-32281809D01*
X26678095Y-32138952D01*
X26725714Y-31948476D01*
X26773333Y-31853238D01*
X26868571Y-31758000D01*
X27011428Y-31710380D01*
X27106666Y-31710380D01*
X27249523Y-31758000D01*
X27297142Y-31805619D01*
X28249523Y-32710380D02*
X27678095Y-32710380D01*
X27963809Y-32710380D02*
X27963809Y-31710380D01*
X27868571Y-31853238D01*
X27773333Y-31948476D01*
X27678095Y-31996095D01*
X28868571Y-31710380D02*
X28963809Y-31710380D01*
X29059047Y-31758000D01*
X29106666Y-31805619D01*
X29154285Y-31900857D01*
X29201904Y-32091333D01*
X29201904Y-32329428D01*
X29154285Y-32519904D01*
X29106666Y-32615142D01*
X29059047Y-32662761D01*
X28963809Y-32710380D01*
X28868571Y-32710380D01*
X28773333Y-32662761D01*
X28725714Y-32615142D01*
X28678095Y-32519904D01*
X28630476Y-32329428D01*
X28630476Y-32091333D01*
X28678095Y-31900857D01*
X28725714Y-31805619D01*
X28773333Y-31758000D01*
X28868571Y-31710380D01*
%TO.C,C11*%
X27297142Y-42521142D02*
X27249523Y-42568761D01*
X27106666Y-42616380D01*
X27011428Y-42616380D01*
X26868571Y-42568761D01*
X26773333Y-42473523D01*
X26725714Y-42378285D01*
X26678095Y-42187809D01*
X26678095Y-42044952D01*
X26725714Y-41854476D01*
X26773333Y-41759238D01*
X26868571Y-41664000D01*
X27011428Y-41616380D01*
X27106666Y-41616380D01*
X27249523Y-41664000D01*
X27297142Y-41711619D01*
X28249523Y-42616380D02*
X27678095Y-42616380D01*
X27963809Y-42616380D02*
X27963809Y-41616380D01*
X27868571Y-41759238D01*
X27773333Y-41854476D01*
X27678095Y-41902095D01*
X29201904Y-42616380D02*
X28630476Y-42616380D01*
X28916190Y-42616380D02*
X28916190Y-41616380D01*
X28820952Y-41759238D01*
X28725714Y-41854476D01*
X28630476Y-41902095D01*
%TO.C,C12*%
X27297142Y-52935142D02*
X27249523Y-52982761D01*
X27106666Y-53030380D01*
X27011428Y-53030380D01*
X26868571Y-52982761D01*
X26773333Y-52887523D01*
X26725714Y-52792285D01*
X26678095Y-52601809D01*
X26678095Y-52458952D01*
X26725714Y-52268476D01*
X26773333Y-52173238D01*
X26868571Y-52078000D01*
X27011428Y-52030380D01*
X27106666Y-52030380D01*
X27249523Y-52078000D01*
X27297142Y-52125619D01*
X28249523Y-53030380D02*
X27678095Y-53030380D01*
X27963809Y-53030380D02*
X27963809Y-52030380D01*
X27868571Y-52173238D01*
X27773333Y-52268476D01*
X27678095Y-52316095D01*
X28630476Y-52125619D02*
X28678095Y-52078000D01*
X28773333Y-52030380D01*
X29011428Y-52030380D01*
X29106666Y-52078000D01*
X29154285Y-52125619D01*
X29201904Y-52220857D01*
X29201904Y-52316095D01*
X29154285Y-52458952D01*
X28582857Y-53030380D01*
X29201904Y-53030380D01*
%TO.C,C13*%
X27297142Y-34139142D02*
X27249523Y-34186761D01*
X27106666Y-34234380D01*
X27011428Y-34234380D01*
X26868571Y-34186761D01*
X26773333Y-34091523D01*
X26725714Y-33996285D01*
X26678095Y-33805809D01*
X26678095Y-33662952D01*
X26725714Y-33472476D01*
X26773333Y-33377238D01*
X26868571Y-33282000D01*
X27011428Y-33234380D01*
X27106666Y-33234380D01*
X27249523Y-33282000D01*
X27297142Y-33329619D01*
X28249523Y-34234380D02*
X27678095Y-34234380D01*
X27963809Y-34234380D02*
X27963809Y-33234380D01*
X27868571Y-33377238D01*
X27773333Y-33472476D01*
X27678095Y-33520095D01*
X28582857Y-33234380D02*
X29201904Y-33234380D01*
X28868571Y-33615333D01*
X29011428Y-33615333D01*
X29106666Y-33662952D01*
X29154285Y-33710571D01*
X29201904Y-33805809D01*
X29201904Y-34043904D01*
X29154285Y-34139142D01*
X29106666Y-34186761D01*
X29011428Y-34234380D01*
X28725714Y-34234380D01*
X28630476Y-34186761D01*
X28582857Y-34139142D01*
%TO.C,C14*%
X27297142Y-44045142D02*
X27249523Y-44092761D01*
X27106666Y-44140380D01*
X27011428Y-44140380D01*
X26868571Y-44092761D01*
X26773333Y-43997523D01*
X26725714Y-43902285D01*
X26678095Y-43711809D01*
X26678095Y-43568952D01*
X26725714Y-43378476D01*
X26773333Y-43283238D01*
X26868571Y-43188000D01*
X27011428Y-43140380D01*
X27106666Y-43140380D01*
X27249523Y-43188000D01*
X27297142Y-43235619D01*
X28249523Y-44140380D02*
X27678095Y-44140380D01*
X27963809Y-44140380D02*
X27963809Y-43140380D01*
X27868571Y-43283238D01*
X27773333Y-43378476D01*
X27678095Y-43426095D01*
X29106666Y-43473714D02*
X29106666Y-44140380D01*
X28868571Y-43092761D02*
X28630476Y-43807047D01*
X29249523Y-43807047D01*
%TO.C,C15*%
X27297142Y-54459142D02*
X27249523Y-54506761D01*
X27106666Y-54554380D01*
X27011428Y-54554380D01*
X26868571Y-54506761D01*
X26773333Y-54411523D01*
X26725714Y-54316285D01*
X26678095Y-54125809D01*
X26678095Y-53982952D01*
X26725714Y-53792476D01*
X26773333Y-53697238D01*
X26868571Y-53602000D01*
X27011428Y-53554380D01*
X27106666Y-53554380D01*
X27249523Y-53602000D01*
X27297142Y-53649619D01*
X28249523Y-54554380D02*
X27678095Y-54554380D01*
X27963809Y-54554380D02*
X27963809Y-53554380D01*
X27868571Y-53697238D01*
X27773333Y-53792476D01*
X27678095Y-53840095D01*
X29154285Y-53554380D02*
X28678095Y-53554380D01*
X28630476Y-54030571D01*
X28678095Y-53982952D01*
X28773333Y-53935333D01*
X29011428Y-53935333D01*
X29106666Y-53982952D01*
X29154285Y-54030571D01*
X29201904Y-54125809D01*
X29201904Y-54363904D01*
X29154285Y-54459142D01*
X29106666Y-54506761D01*
X29011428Y-54554380D01*
X28773333Y-54554380D01*
X28678095Y-54506761D01*
X28630476Y-54459142D01*
%TO.C,C16*%
X28059142Y-1881142D02*
X28011523Y-1928761D01*
X27868666Y-1976380D01*
X27773428Y-1976380D01*
X27630571Y-1928761D01*
X27535333Y-1833523D01*
X27487714Y-1738285D01*
X27440095Y-1547809D01*
X27440095Y-1404952D01*
X27487714Y-1214476D01*
X27535333Y-1119238D01*
X27630571Y-1024000D01*
X27773428Y-976380D01*
X27868666Y-976380D01*
X28011523Y-1024000D01*
X28059142Y-1071619D01*
X29011523Y-1976380D02*
X28440095Y-1976380D01*
X28725809Y-1976380D02*
X28725809Y-976380D01*
X28630571Y-1119238D01*
X28535333Y-1214476D01*
X28440095Y-1262095D01*
X29868666Y-976380D02*
X29678190Y-976380D01*
X29582952Y-1024000D01*
X29535333Y-1071619D01*
X29440095Y-1214476D01*
X29392476Y-1404952D01*
X29392476Y-1785904D01*
X29440095Y-1881142D01*
X29487714Y-1928761D01*
X29582952Y-1976380D01*
X29773428Y-1976380D01*
X29868666Y-1928761D01*
X29916285Y-1881142D01*
X29963904Y-1785904D01*
X29963904Y-1547809D01*
X29916285Y-1452571D01*
X29868666Y-1404952D01*
X29773428Y-1357333D01*
X29582952Y-1357333D01*
X29487714Y-1404952D01*
X29440095Y-1452571D01*
X29392476Y-1547809D01*
%TO.C,C17*%
X7739142Y-1881142D02*
X7691523Y-1928761D01*
X7548666Y-1976380D01*
X7453428Y-1976380D01*
X7310571Y-1928761D01*
X7215333Y-1833523D01*
X7167714Y-1738285D01*
X7120095Y-1547809D01*
X7120095Y-1404952D01*
X7167714Y-1214476D01*
X7215333Y-1119238D01*
X7310571Y-1024000D01*
X7453428Y-976380D01*
X7548666Y-976380D01*
X7691523Y-1024000D01*
X7739142Y-1071619D01*
X8691523Y-1976380D02*
X8120095Y-1976380D01*
X8405809Y-1976380D02*
X8405809Y-976380D01*
X8310571Y-1119238D01*
X8215333Y-1214476D01*
X8120095Y-1262095D01*
X9024857Y-976380D02*
X9691523Y-976380D01*
X9262952Y-1976380D01*
%TO.C,C18*%
X54729142Y-54713142D02*
X54681523Y-54760761D01*
X54538666Y-54808380D01*
X54443428Y-54808380D01*
X54300571Y-54760761D01*
X54205333Y-54665523D01*
X54157714Y-54570285D01*
X54110095Y-54379809D01*
X54110095Y-54236952D01*
X54157714Y-54046476D01*
X54205333Y-53951238D01*
X54300571Y-53856000D01*
X54443428Y-53808380D01*
X54538666Y-53808380D01*
X54681523Y-53856000D01*
X54729142Y-53903619D01*
X55681523Y-54808380D02*
X55110095Y-54808380D01*
X55395809Y-54808380D02*
X55395809Y-53808380D01*
X55300571Y-53951238D01*
X55205333Y-54046476D01*
X55110095Y-54094095D01*
X56252952Y-54236952D02*
X56157714Y-54189333D01*
X56110095Y-54141714D01*
X56062476Y-54046476D01*
X56062476Y-53998857D01*
X56110095Y-53903619D01*
X56157714Y-53856000D01*
X56252952Y-53808380D01*
X56443428Y-53808380D01*
X56538666Y-53856000D01*
X56586285Y-53903619D01*
X56633904Y-53998857D01*
X56633904Y-54046476D01*
X56586285Y-54141714D01*
X56538666Y-54189333D01*
X56443428Y-54236952D01*
X56252952Y-54236952D01*
X56157714Y-54284571D01*
X56110095Y-54332190D01*
X56062476Y-54427428D01*
X56062476Y-54617904D01*
X56110095Y-54713142D01*
X56157714Y-54760761D01*
X56252952Y-54808380D01*
X56443428Y-54808380D01*
X56538666Y-54760761D01*
X56586285Y-54713142D01*
X56633904Y-54617904D01*
X56633904Y-54427428D01*
X56586285Y-54332190D01*
X56538666Y-54284571D01*
X56443428Y-54236952D01*
%TO.C,C19*%
X33393142Y-34139142D02*
X33345523Y-34186761D01*
X33202666Y-34234380D01*
X33107428Y-34234380D01*
X32964571Y-34186761D01*
X32869333Y-34091523D01*
X32821714Y-33996285D01*
X32774095Y-33805809D01*
X32774095Y-33662952D01*
X32821714Y-33472476D01*
X32869333Y-33377238D01*
X32964571Y-33282000D01*
X33107428Y-33234380D01*
X33202666Y-33234380D01*
X33345523Y-33282000D01*
X33393142Y-33329619D01*
X34345523Y-34234380D02*
X33774095Y-34234380D01*
X34059809Y-34234380D02*
X34059809Y-33234380D01*
X33964571Y-33377238D01*
X33869333Y-33472476D01*
X33774095Y-33520095D01*
X34821714Y-34234380D02*
X35012190Y-34234380D01*
X35107428Y-34186761D01*
X35155047Y-34139142D01*
X35250285Y-33996285D01*
X35297904Y-33805809D01*
X35297904Y-33424857D01*
X35250285Y-33329619D01*
X35202666Y-33282000D01*
X35107428Y-33234380D01*
X34916952Y-33234380D01*
X34821714Y-33282000D01*
X34774095Y-33329619D01*
X34726476Y-33424857D01*
X34726476Y-33662952D01*
X34774095Y-33758190D01*
X34821714Y-33805809D01*
X34916952Y-33853428D01*
X35107428Y-33853428D01*
X35202666Y-33805809D01*
X35250285Y-33758190D01*
X35297904Y-33662952D01*
%TO.C,C20*%
X58269142Y-32646857D02*
X58316761Y-32694476D01*
X58364380Y-32837333D01*
X58364380Y-32932571D01*
X58316761Y-33075428D01*
X58221523Y-33170666D01*
X58126285Y-33218285D01*
X57935809Y-33265904D01*
X57792952Y-33265904D01*
X57602476Y-33218285D01*
X57507238Y-33170666D01*
X57412000Y-33075428D01*
X57364380Y-32932571D01*
X57364380Y-32837333D01*
X57412000Y-32694476D01*
X57459619Y-32646857D01*
X57459619Y-32265904D02*
X57412000Y-32218285D01*
X57364380Y-32123047D01*
X57364380Y-31884952D01*
X57412000Y-31789714D01*
X57459619Y-31742095D01*
X57554857Y-31694476D01*
X57650095Y-31694476D01*
X57792952Y-31742095D01*
X58364380Y-32313523D01*
X58364380Y-31694476D01*
X57364380Y-31075428D02*
X57364380Y-30980190D01*
X57412000Y-30884952D01*
X57459619Y-30837333D01*
X57554857Y-30789714D01*
X57745333Y-30742095D01*
X57983428Y-30742095D01*
X58173904Y-30789714D01*
X58269142Y-30837333D01*
X58316761Y-30884952D01*
X58364380Y-30980190D01*
X58364380Y-31075428D01*
X58316761Y-31170666D01*
X58269142Y-31218285D01*
X58173904Y-31265904D01*
X57983428Y-31313523D01*
X57745333Y-31313523D01*
X57554857Y-31265904D01*
X57459619Y-31218285D01*
X57412000Y-31170666D01*
X57364380Y-31075428D01*
%TO.C,C21*%
X39489142Y-35663142D02*
X39441523Y-35710761D01*
X39298666Y-35758380D01*
X39203428Y-35758380D01*
X39060571Y-35710761D01*
X38965333Y-35615523D01*
X38917714Y-35520285D01*
X38870095Y-35329809D01*
X38870095Y-35186952D01*
X38917714Y-34996476D01*
X38965333Y-34901238D01*
X39060571Y-34806000D01*
X39203428Y-34758380D01*
X39298666Y-34758380D01*
X39441523Y-34806000D01*
X39489142Y-34853619D01*
X39870095Y-34853619D02*
X39917714Y-34806000D01*
X40012952Y-34758380D01*
X40251047Y-34758380D01*
X40346285Y-34806000D01*
X40393904Y-34853619D01*
X40441523Y-34948857D01*
X40441523Y-35044095D01*
X40393904Y-35186952D01*
X39822476Y-35758380D01*
X40441523Y-35758380D01*
X41393904Y-35758380D02*
X40822476Y-35758380D01*
X41108190Y-35758380D02*
X41108190Y-34758380D01*
X41012952Y-34901238D01*
X40917714Y-34996476D01*
X40822476Y-35044095D01*
%TO.C,C22*%
X58269142Y-38234857D02*
X58316761Y-38282476D01*
X58364380Y-38425333D01*
X58364380Y-38520571D01*
X58316761Y-38663428D01*
X58221523Y-38758666D01*
X58126285Y-38806285D01*
X57935809Y-38853904D01*
X57792952Y-38853904D01*
X57602476Y-38806285D01*
X57507238Y-38758666D01*
X57412000Y-38663428D01*
X57364380Y-38520571D01*
X57364380Y-38425333D01*
X57412000Y-38282476D01*
X57459619Y-38234857D01*
X57459619Y-37853904D02*
X57412000Y-37806285D01*
X57364380Y-37711047D01*
X57364380Y-37472952D01*
X57412000Y-37377714D01*
X57459619Y-37330095D01*
X57554857Y-37282476D01*
X57650095Y-37282476D01*
X57792952Y-37330095D01*
X58364380Y-37901523D01*
X58364380Y-37282476D01*
X57459619Y-36901523D02*
X57412000Y-36853904D01*
X57364380Y-36758666D01*
X57364380Y-36520571D01*
X57412000Y-36425333D01*
X57459619Y-36377714D01*
X57554857Y-36330095D01*
X57650095Y-36330095D01*
X57792952Y-36377714D01*
X58364380Y-36949142D01*
X58364380Y-36330095D01*
%TO.C,C23*%
X39473142Y-29344857D02*
X39520761Y-29392476D01*
X39568380Y-29535333D01*
X39568380Y-29630571D01*
X39520761Y-29773428D01*
X39425523Y-29868666D01*
X39330285Y-29916285D01*
X39139809Y-29963904D01*
X38996952Y-29963904D01*
X38806476Y-29916285D01*
X38711238Y-29868666D01*
X38616000Y-29773428D01*
X38568380Y-29630571D01*
X38568380Y-29535333D01*
X38616000Y-29392476D01*
X38663619Y-29344857D01*
X38663619Y-28963904D02*
X38616000Y-28916285D01*
X38568380Y-28821047D01*
X38568380Y-28582952D01*
X38616000Y-28487714D01*
X38663619Y-28440095D01*
X38758857Y-28392476D01*
X38854095Y-28392476D01*
X38996952Y-28440095D01*
X39568380Y-29011523D01*
X39568380Y-28392476D01*
X38568380Y-28059142D02*
X38568380Y-27440095D01*
X38949333Y-27773428D01*
X38949333Y-27630571D01*
X38996952Y-27535333D01*
X39044571Y-27487714D01*
X39139809Y-27440095D01*
X39377904Y-27440095D01*
X39473142Y-27487714D01*
X39520761Y-27535333D01*
X39568380Y-27630571D01*
X39568380Y-27916285D01*
X39520761Y-28011523D01*
X39473142Y-28059142D01*
%TO.C,C24*%
X43045142Y-24487142D02*
X42997523Y-24534761D01*
X42854666Y-24582380D01*
X42759428Y-24582380D01*
X42616571Y-24534761D01*
X42521333Y-24439523D01*
X42473714Y-24344285D01*
X42426095Y-24153809D01*
X42426095Y-24010952D01*
X42473714Y-23820476D01*
X42521333Y-23725238D01*
X42616571Y-23630000D01*
X42759428Y-23582380D01*
X42854666Y-23582380D01*
X42997523Y-23630000D01*
X43045142Y-23677619D01*
X43426095Y-23677619D02*
X43473714Y-23630000D01*
X43568952Y-23582380D01*
X43807047Y-23582380D01*
X43902285Y-23630000D01*
X43949904Y-23677619D01*
X43997523Y-23772857D01*
X43997523Y-23868095D01*
X43949904Y-24010952D01*
X43378476Y-24582380D01*
X43997523Y-24582380D01*
X44854666Y-23915714D02*
X44854666Y-24582380D01*
X44616571Y-23534761D02*
X44378476Y-24249047D01*
X44997523Y-24249047D01*
%TO.C,C25*%
X59809142Y-35155142D02*
X59761523Y-35202761D01*
X59618666Y-35250380D01*
X59523428Y-35250380D01*
X59380571Y-35202761D01*
X59285333Y-35107523D01*
X59237714Y-35012285D01*
X59190095Y-34821809D01*
X59190095Y-34678952D01*
X59237714Y-34488476D01*
X59285333Y-34393238D01*
X59380571Y-34298000D01*
X59523428Y-34250380D01*
X59618666Y-34250380D01*
X59761523Y-34298000D01*
X59809142Y-34345619D01*
X60190095Y-34345619D02*
X60237714Y-34298000D01*
X60332952Y-34250380D01*
X60571047Y-34250380D01*
X60666285Y-34298000D01*
X60713904Y-34345619D01*
X60761523Y-34440857D01*
X60761523Y-34536095D01*
X60713904Y-34678952D01*
X60142476Y-35250380D01*
X60761523Y-35250380D01*
X61666285Y-34250380D02*
X61190095Y-34250380D01*
X61142476Y-34726571D01*
X61190095Y-34678952D01*
X61285333Y-34631333D01*
X61523428Y-34631333D01*
X61618666Y-34678952D01*
X61666285Y-34726571D01*
X61713904Y-34821809D01*
X61713904Y-35059904D01*
X61666285Y-35155142D01*
X61618666Y-35202761D01*
X61523428Y-35250380D01*
X61285333Y-35250380D01*
X61190095Y-35202761D01*
X61142476Y-35155142D01*
%TO.C,C26*%
X39489142Y-44045142D02*
X39441523Y-44092761D01*
X39298666Y-44140380D01*
X39203428Y-44140380D01*
X39060571Y-44092761D01*
X38965333Y-43997523D01*
X38917714Y-43902285D01*
X38870095Y-43711809D01*
X38870095Y-43568952D01*
X38917714Y-43378476D01*
X38965333Y-43283238D01*
X39060571Y-43188000D01*
X39203428Y-43140380D01*
X39298666Y-43140380D01*
X39441523Y-43188000D01*
X39489142Y-43235619D01*
X39870095Y-43235619D02*
X39917714Y-43188000D01*
X40012952Y-43140380D01*
X40251047Y-43140380D01*
X40346285Y-43188000D01*
X40393904Y-43235619D01*
X40441523Y-43330857D01*
X40441523Y-43426095D01*
X40393904Y-43568952D01*
X39822476Y-44140380D01*
X40441523Y-44140380D01*
X41298666Y-43140380D02*
X41108190Y-43140380D01*
X41012952Y-43188000D01*
X40965333Y-43235619D01*
X40870095Y-43378476D01*
X40822476Y-43568952D01*
X40822476Y-43949904D01*
X40870095Y-44045142D01*
X40917714Y-44092761D01*
X41012952Y-44140380D01*
X41203428Y-44140380D01*
X41298666Y-44092761D01*
X41346285Y-44045142D01*
X41393904Y-43949904D01*
X41393904Y-43711809D01*
X41346285Y-43616571D01*
X41298666Y-43568952D01*
X41203428Y-43521333D01*
X41012952Y-43521333D01*
X40917714Y-43568952D01*
X40870095Y-43616571D01*
X40822476Y-43711809D01*
%TO.C,C27*%
X59809142Y-44045142D02*
X59761523Y-44092761D01*
X59618666Y-44140380D01*
X59523428Y-44140380D01*
X59380571Y-44092761D01*
X59285333Y-43997523D01*
X59237714Y-43902285D01*
X59190095Y-43711809D01*
X59190095Y-43568952D01*
X59237714Y-43378476D01*
X59285333Y-43283238D01*
X59380571Y-43188000D01*
X59523428Y-43140380D01*
X59618666Y-43140380D01*
X59761523Y-43188000D01*
X59809142Y-43235619D01*
X60190095Y-43235619D02*
X60237714Y-43188000D01*
X60332952Y-43140380D01*
X60571047Y-43140380D01*
X60666285Y-43188000D01*
X60713904Y-43235619D01*
X60761523Y-43330857D01*
X60761523Y-43426095D01*
X60713904Y-43568952D01*
X60142476Y-44140380D01*
X60761523Y-44140380D01*
X61094857Y-43140380D02*
X61761523Y-43140380D01*
X61332952Y-44140380D01*
%TO.C,C28*%
X39489142Y-42521142D02*
X39441523Y-42568761D01*
X39298666Y-42616380D01*
X39203428Y-42616380D01*
X39060571Y-42568761D01*
X38965333Y-42473523D01*
X38917714Y-42378285D01*
X38870095Y-42187809D01*
X38870095Y-42044952D01*
X38917714Y-41854476D01*
X38965333Y-41759238D01*
X39060571Y-41664000D01*
X39203428Y-41616380D01*
X39298666Y-41616380D01*
X39441523Y-41664000D01*
X39489142Y-41711619D01*
X39870095Y-41711619D02*
X39917714Y-41664000D01*
X40012952Y-41616380D01*
X40251047Y-41616380D01*
X40346285Y-41664000D01*
X40393904Y-41711619D01*
X40441523Y-41806857D01*
X40441523Y-41902095D01*
X40393904Y-42044952D01*
X39822476Y-42616380D01*
X40441523Y-42616380D01*
X41012952Y-42044952D02*
X40917714Y-41997333D01*
X40870095Y-41949714D01*
X40822476Y-41854476D01*
X40822476Y-41806857D01*
X40870095Y-41711619D01*
X40917714Y-41664000D01*
X41012952Y-41616380D01*
X41203428Y-41616380D01*
X41298666Y-41664000D01*
X41346285Y-41711619D01*
X41393904Y-41806857D01*
X41393904Y-41854476D01*
X41346285Y-41949714D01*
X41298666Y-41997333D01*
X41203428Y-42044952D01*
X41012952Y-42044952D01*
X40917714Y-42092571D01*
X40870095Y-42140190D01*
X40822476Y-42235428D01*
X40822476Y-42425904D01*
X40870095Y-42521142D01*
X40917714Y-42568761D01*
X41012952Y-42616380D01*
X41203428Y-42616380D01*
X41298666Y-42568761D01*
X41346285Y-42521142D01*
X41393904Y-42425904D01*
X41393904Y-42235428D01*
X41346285Y-42140190D01*
X41298666Y-42092571D01*
X41203428Y-42044952D01*
%TO.C,C29*%
X39489142Y-40997142D02*
X39441523Y-41044761D01*
X39298666Y-41092380D01*
X39203428Y-41092380D01*
X39060571Y-41044761D01*
X38965333Y-40949523D01*
X38917714Y-40854285D01*
X38870095Y-40663809D01*
X38870095Y-40520952D01*
X38917714Y-40330476D01*
X38965333Y-40235238D01*
X39060571Y-40140000D01*
X39203428Y-40092380D01*
X39298666Y-40092380D01*
X39441523Y-40140000D01*
X39489142Y-40187619D01*
X39870095Y-40187619D02*
X39917714Y-40140000D01*
X40012952Y-40092380D01*
X40251047Y-40092380D01*
X40346285Y-40140000D01*
X40393904Y-40187619D01*
X40441523Y-40282857D01*
X40441523Y-40378095D01*
X40393904Y-40520952D01*
X39822476Y-41092380D01*
X40441523Y-41092380D01*
X40917714Y-41092380D02*
X41108190Y-41092380D01*
X41203428Y-41044761D01*
X41251047Y-40997142D01*
X41346285Y-40854285D01*
X41393904Y-40663809D01*
X41393904Y-40282857D01*
X41346285Y-40187619D01*
X41298666Y-40140000D01*
X41203428Y-40092380D01*
X41012952Y-40092380D01*
X40917714Y-40140000D01*
X40870095Y-40187619D01*
X40822476Y-40282857D01*
X40822476Y-40520952D01*
X40870095Y-40616190D01*
X40917714Y-40663809D01*
X41012952Y-40711428D01*
X41203428Y-40711428D01*
X41298666Y-40663809D01*
X41346285Y-40616190D01*
X41393904Y-40520952D01*
%TO.C,C30*%
X60571142Y-46585142D02*
X60523523Y-46632761D01*
X60380666Y-46680380D01*
X60285428Y-46680380D01*
X60142571Y-46632761D01*
X60047333Y-46537523D01*
X59999714Y-46442285D01*
X59952095Y-46251809D01*
X59952095Y-46108952D01*
X59999714Y-45918476D01*
X60047333Y-45823238D01*
X60142571Y-45728000D01*
X60285428Y-45680380D01*
X60380666Y-45680380D01*
X60523523Y-45728000D01*
X60571142Y-45775619D01*
X60904476Y-45680380D02*
X61523523Y-45680380D01*
X61190190Y-46061333D01*
X61333047Y-46061333D01*
X61428285Y-46108952D01*
X61475904Y-46156571D01*
X61523523Y-46251809D01*
X61523523Y-46489904D01*
X61475904Y-46585142D01*
X61428285Y-46632761D01*
X61333047Y-46680380D01*
X61047333Y-46680380D01*
X60952095Y-46632761D01*
X60904476Y-46585142D01*
X62142571Y-45680380D02*
X62237809Y-45680380D01*
X62333047Y-45728000D01*
X62380666Y-45775619D01*
X62428285Y-45870857D01*
X62475904Y-46061333D01*
X62475904Y-46299428D01*
X62428285Y-46489904D01*
X62380666Y-46585142D01*
X62333047Y-46632761D01*
X62237809Y-46680380D01*
X62142571Y-46680380D01*
X62047333Y-46632761D01*
X61999714Y-46585142D01*
X61952095Y-46489904D01*
X61904476Y-46299428D01*
X61904476Y-46061333D01*
X61952095Y-45870857D01*
X61999714Y-45775619D01*
X62047333Y-45728000D01*
X62142571Y-45680380D01*
%TO.C,C31*%
X39489142Y-49125142D02*
X39441523Y-49172761D01*
X39298666Y-49220380D01*
X39203428Y-49220380D01*
X39060571Y-49172761D01*
X38965333Y-49077523D01*
X38917714Y-48982285D01*
X38870095Y-48791809D01*
X38870095Y-48648952D01*
X38917714Y-48458476D01*
X38965333Y-48363238D01*
X39060571Y-48268000D01*
X39203428Y-48220380D01*
X39298666Y-48220380D01*
X39441523Y-48268000D01*
X39489142Y-48315619D01*
X39822476Y-48220380D02*
X40441523Y-48220380D01*
X40108190Y-48601333D01*
X40251047Y-48601333D01*
X40346285Y-48648952D01*
X40393904Y-48696571D01*
X40441523Y-48791809D01*
X40441523Y-49029904D01*
X40393904Y-49125142D01*
X40346285Y-49172761D01*
X40251047Y-49220380D01*
X39965333Y-49220380D01*
X39870095Y-49172761D01*
X39822476Y-49125142D01*
X41393904Y-49220380D02*
X40822476Y-49220380D01*
X41108190Y-49220380D02*
X41108190Y-48220380D01*
X41012952Y-48363238D01*
X40917714Y-48458476D01*
X40822476Y-48506095D01*
%TO.C,C32*%
X39489142Y-50649142D02*
X39441523Y-50696761D01*
X39298666Y-50744380D01*
X39203428Y-50744380D01*
X39060571Y-50696761D01*
X38965333Y-50601523D01*
X38917714Y-50506285D01*
X38870095Y-50315809D01*
X38870095Y-50172952D01*
X38917714Y-49982476D01*
X38965333Y-49887238D01*
X39060571Y-49792000D01*
X39203428Y-49744380D01*
X39298666Y-49744380D01*
X39441523Y-49792000D01*
X39489142Y-49839619D01*
X39822476Y-49744380D02*
X40441523Y-49744380D01*
X40108190Y-50125333D01*
X40251047Y-50125333D01*
X40346285Y-50172952D01*
X40393904Y-50220571D01*
X40441523Y-50315809D01*
X40441523Y-50553904D01*
X40393904Y-50649142D01*
X40346285Y-50696761D01*
X40251047Y-50744380D01*
X39965333Y-50744380D01*
X39870095Y-50696761D01*
X39822476Y-50649142D01*
X40822476Y-49839619D02*
X40870095Y-49792000D01*
X40965333Y-49744380D01*
X41203428Y-49744380D01*
X41298666Y-49792000D01*
X41346285Y-49839619D01*
X41393904Y-49934857D01*
X41393904Y-50030095D01*
X41346285Y-50172952D01*
X40774857Y-50744380D01*
X41393904Y-50744380D01*
%TO.C,C33*%
X59809142Y-50903142D02*
X59761523Y-50950761D01*
X59618666Y-50998380D01*
X59523428Y-50998380D01*
X59380571Y-50950761D01*
X59285333Y-50855523D01*
X59237714Y-50760285D01*
X59190095Y-50569809D01*
X59190095Y-50426952D01*
X59237714Y-50236476D01*
X59285333Y-50141238D01*
X59380571Y-50046000D01*
X59523428Y-49998380D01*
X59618666Y-49998380D01*
X59761523Y-50046000D01*
X59809142Y-50093619D01*
X60142476Y-49998380D02*
X60761523Y-49998380D01*
X60428190Y-50379333D01*
X60571047Y-50379333D01*
X60666285Y-50426952D01*
X60713904Y-50474571D01*
X60761523Y-50569809D01*
X60761523Y-50807904D01*
X60713904Y-50903142D01*
X60666285Y-50950761D01*
X60571047Y-50998380D01*
X60285333Y-50998380D01*
X60190095Y-50950761D01*
X60142476Y-50903142D01*
X61094857Y-49998380D02*
X61713904Y-49998380D01*
X61380571Y-50379333D01*
X61523428Y-50379333D01*
X61618666Y-50426952D01*
X61666285Y-50474571D01*
X61713904Y-50569809D01*
X61713904Y-50807904D01*
X61666285Y-50903142D01*
X61618666Y-50950761D01*
X61523428Y-50998380D01*
X61237714Y-50998380D01*
X61142476Y-50950761D01*
X61094857Y-50903142D01*
%TO.C,C34*%
X56745142Y-20200857D02*
X56792761Y-20248476D01*
X56840380Y-20391333D01*
X56840380Y-20486571D01*
X56792761Y-20629428D01*
X56697523Y-20724666D01*
X56602285Y-20772285D01*
X56411809Y-20819904D01*
X56268952Y-20819904D01*
X56078476Y-20772285D01*
X55983238Y-20724666D01*
X55888000Y-20629428D01*
X55840380Y-20486571D01*
X55840380Y-20391333D01*
X55888000Y-20248476D01*
X55935619Y-20200857D01*
X55840380Y-19867523D02*
X55840380Y-19248476D01*
X56221333Y-19581809D01*
X56221333Y-19438952D01*
X56268952Y-19343714D01*
X56316571Y-19296095D01*
X56411809Y-19248476D01*
X56649904Y-19248476D01*
X56745142Y-19296095D01*
X56792761Y-19343714D01*
X56840380Y-19438952D01*
X56840380Y-19724666D01*
X56792761Y-19819904D01*
X56745142Y-19867523D01*
X56173714Y-18391333D02*
X56840380Y-18391333D01*
X55792761Y-18629428D02*
X56507047Y-18867523D01*
X56507047Y-18248476D01*
%TO.C,C35*%
X55221142Y-20200857D02*
X55268761Y-20248476D01*
X55316380Y-20391333D01*
X55316380Y-20486571D01*
X55268761Y-20629428D01*
X55173523Y-20724666D01*
X55078285Y-20772285D01*
X54887809Y-20819904D01*
X54744952Y-20819904D01*
X54554476Y-20772285D01*
X54459238Y-20724666D01*
X54364000Y-20629428D01*
X54316380Y-20486571D01*
X54316380Y-20391333D01*
X54364000Y-20248476D01*
X54411619Y-20200857D01*
X54316380Y-19867523D02*
X54316380Y-19248476D01*
X54697333Y-19581809D01*
X54697333Y-19438952D01*
X54744952Y-19343714D01*
X54792571Y-19296095D01*
X54887809Y-19248476D01*
X55125904Y-19248476D01*
X55221142Y-19296095D01*
X55268761Y-19343714D01*
X55316380Y-19438952D01*
X55316380Y-19724666D01*
X55268761Y-19819904D01*
X55221142Y-19867523D01*
X54316380Y-18343714D02*
X54316380Y-18819904D01*
X54792571Y-18867523D01*
X54744952Y-18819904D01*
X54697333Y-18724666D01*
X54697333Y-18486571D01*
X54744952Y-18391333D01*
X54792571Y-18343714D01*
X54887809Y-18296095D01*
X55125904Y-18296095D01*
X55221142Y-18343714D01*
X55268761Y-18391333D01*
X55316380Y-18486571D01*
X55316380Y-18724666D01*
X55268761Y-18819904D01*
X55221142Y-18867523D01*
%TO.C,C36*%
X49649142Y-5427142D02*
X49601523Y-5474761D01*
X49458666Y-5522380D01*
X49363428Y-5522380D01*
X49220571Y-5474761D01*
X49125333Y-5379523D01*
X49077714Y-5284285D01*
X49030095Y-5093809D01*
X49030095Y-4950952D01*
X49077714Y-4760476D01*
X49125333Y-4665238D01*
X49220571Y-4570000D01*
X49363428Y-4522380D01*
X49458666Y-4522380D01*
X49601523Y-4570000D01*
X49649142Y-4617619D01*
X49982476Y-4522380D02*
X50601523Y-4522380D01*
X50268190Y-4903333D01*
X50411047Y-4903333D01*
X50506285Y-4950952D01*
X50553904Y-4998571D01*
X50601523Y-5093809D01*
X50601523Y-5331904D01*
X50553904Y-5427142D01*
X50506285Y-5474761D01*
X50411047Y-5522380D01*
X50125333Y-5522380D01*
X50030095Y-5474761D01*
X49982476Y-5427142D01*
X51458666Y-4522380D02*
X51268190Y-4522380D01*
X51172952Y-4570000D01*
X51125333Y-4617619D01*
X51030095Y-4760476D01*
X50982476Y-4950952D01*
X50982476Y-5331904D01*
X51030095Y-5427142D01*
X51077714Y-5474761D01*
X51172952Y-5522380D01*
X51363428Y-5522380D01*
X51458666Y-5474761D01*
X51506285Y-5427142D01*
X51553904Y-5331904D01*
X51553904Y-5093809D01*
X51506285Y-4998571D01*
X51458666Y-4950952D01*
X51363428Y-4903333D01*
X51172952Y-4903333D01*
X51077714Y-4950952D01*
X51030095Y-4998571D01*
X50982476Y-5093809D01*
%TO.C,C37*%
X21201142Y-25757142D02*
X21153523Y-25804761D01*
X21010666Y-25852380D01*
X20915428Y-25852380D01*
X20772571Y-25804761D01*
X20677333Y-25709523D01*
X20629714Y-25614285D01*
X20582095Y-25423809D01*
X20582095Y-25280952D01*
X20629714Y-25090476D01*
X20677333Y-24995238D01*
X20772571Y-24900000D01*
X20915428Y-24852380D01*
X21010666Y-24852380D01*
X21153523Y-24900000D01*
X21201142Y-24947619D01*
X21534476Y-24852380D02*
X22153523Y-24852380D01*
X21820190Y-25233333D01*
X21963047Y-25233333D01*
X22058285Y-25280952D01*
X22105904Y-25328571D01*
X22153523Y-25423809D01*
X22153523Y-25661904D01*
X22105904Y-25757142D01*
X22058285Y-25804761D01*
X21963047Y-25852380D01*
X21677333Y-25852380D01*
X21582095Y-25804761D01*
X21534476Y-25757142D01*
X22486857Y-24852380D02*
X23153523Y-24852380D01*
X22724952Y-25852380D01*
%TO.C,C38*%
X21201142Y-35663142D02*
X21153523Y-35710761D01*
X21010666Y-35758380D01*
X20915428Y-35758380D01*
X20772571Y-35710761D01*
X20677333Y-35615523D01*
X20629714Y-35520285D01*
X20582095Y-35329809D01*
X20582095Y-35186952D01*
X20629714Y-34996476D01*
X20677333Y-34901238D01*
X20772571Y-34806000D01*
X20915428Y-34758380D01*
X21010666Y-34758380D01*
X21153523Y-34806000D01*
X21201142Y-34853619D01*
X21534476Y-34758380D02*
X22153523Y-34758380D01*
X21820190Y-35139333D01*
X21963047Y-35139333D01*
X22058285Y-35186952D01*
X22105904Y-35234571D01*
X22153523Y-35329809D01*
X22153523Y-35567904D01*
X22105904Y-35663142D01*
X22058285Y-35710761D01*
X21963047Y-35758380D01*
X21677333Y-35758380D01*
X21582095Y-35710761D01*
X21534476Y-35663142D01*
X22724952Y-35186952D02*
X22629714Y-35139333D01*
X22582095Y-35091714D01*
X22534476Y-34996476D01*
X22534476Y-34948857D01*
X22582095Y-34853619D01*
X22629714Y-34806000D01*
X22724952Y-34758380D01*
X22915428Y-34758380D01*
X23010666Y-34806000D01*
X23058285Y-34853619D01*
X23105904Y-34948857D01*
X23105904Y-34996476D01*
X23058285Y-35091714D01*
X23010666Y-35139333D01*
X22915428Y-35186952D01*
X22724952Y-35186952D01*
X22629714Y-35234571D01*
X22582095Y-35282190D01*
X22534476Y-35377428D01*
X22534476Y-35567904D01*
X22582095Y-35663142D01*
X22629714Y-35710761D01*
X22724952Y-35758380D01*
X22915428Y-35758380D01*
X23010666Y-35710761D01*
X23058285Y-35663142D01*
X23105904Y-35567904D01*
X23105904Y-35377428D01*
X23058285Y-35282190D01*
X23010666Y-35234571D01*
X22915428Y-35186952D01*
%TO.C,C39*%
X21201142Y-45569142D02*
X21153523Y-45616761D01*
X21010666Y-45664380D01*
X20915428Y-45664380D01*
X20772571Y-45616761D01*
X20677333Y-45521523D01*
X20629714Y-45426285D01*
X20582095Y-45235809D01*
X20582095Y-45092952D01*
X20629714Y-44902476D01*
X20677333Y-44807238D01*
X20772571Y-44712000D01*
X20915428Y-44664380D01*
X21010666Y-44664380D01*
X21153523Y-44712000D01*
X21201142Y-44759619D01*
X21534476Y-44664380D02*
X22153523Y-44664380D01*
X21820190Y-45045333D01*
X21963047Y-45045333D01*
X22058285Y-45092952D01*
X22105904Y-45140571D01*
X22153523Y-45235809D01*
X22153523Y-45473904D01*
X22105904Y-45569142D01*
X22058285Y-45616761D01*
X21963047Y-45664380D01*
X21677333Y-45664380D01*
X21582095Y-45616761D01*
X21534476Y-45569142D01*
X22629714Y-45664380D02*
X22820190Y-45664380D01*
X22915428Y-45616761D01*
X22963047Y-45569142D01*
X23058285Y-45426285D01*
X23105904Y-45235809D01*
X23105904Y-44854857D01*
X23058285Y-44759619D01*
X23010666Y-44712000D01*
X22915428Y-44664380D01*
X22724952Y-44664380D01*
X22629714Y-44712000D01*
X22582095Y-44759619D01*
X22534476Y-44854857D01*
X22534476Y-45092952D01*
X22582095Y-45188190D01*
X22629714Y-45235809D01*
X22724952Y-45283428D01*
X22915428Y-45283428D01*
X23010666Y-45235809D01*
X23058285Y-45188190D01*
X23105904Y-45092952D01*
%TO.C,D1*%
X48966380Y-35536095D02*
X47966380Y-35536095D01*
X47966380Y-35298000D01*
X48014000Y-35155142D01*
X48109238Y-35059904D01*
X48204476Y-35012285D01*
X48394952Y-34964666D01*
X48537809Y-34964666D01*
X48728285Y-35012285D01*
X48823523Y-35059904D01*
X48918761Y-35155142D01*
X48966380Y-35298000D01*
X48966380Y-35536095D01*
X48966380Y-34012285D02*
X48966380Y-34583714D01*
X48966380Y-34298000D02*
X47966380Y-34298000D01*
X48109238Y-34393238D01*
X48204476Y-34488476D01*
X48252095Y-34583714D01*
%TO.C,D2*%
X53871904Y-22804380D02*
X53871904Y-21804380D01*
X54110000Y-21804380D01*
X54252857Y-21852000D01*
X54348095Y-21947238D01*
X54395714Y-22042476D01*
X54443333Y-22232952D01*
X54443333Y-22375809D01*
X54395714Y-22566285D01*
X54348095Y-22661523D01*
X54252857Y-22756761D01*
X54110000Y-22804380D01*
X53871904Y-22804380D01*
X54824285Y-21899619D02*
X54871904Y-21852000D01*
X54967142Y-21804380D01*
X55205238Y-21804380D01*
X55300476Y-21852000D01*
X55348095Y-21899619D01*
X55395714Y-21994857D01*
X55395714Y-22090095D01*
X55348095Y-22232952D01*
X54776666Y-22804380D01*
X55395714Y-22804380D01*
%TO.C,L1*%
X55824380Y-28868666D02*
X55824380Y-29344857D01*
X54824380Y-29344857D01*
X55824380Y-28011523D02*
X55824380Y-28582952D01*
X55824380Y-28297238D02*
X54824380Y-28297238D01*
X54967238Y-28392476D01*
X55062476Y-28487714D01*
X55110095Y-28582952D01*
%TO.C,P2*%
X81224380Y-18010095D02*
X80224380Y-18010095D01*
X80224380Y-17629142D01*
X80272000Y-17533904D01*
X80319619Y-17486285D01*
X80414857Y-17438666D01*
X80557714Y-17438666D01*
X80652952Y-17486285D01*
X80700571Y-17533904D01*
X80748190Y-17629142D01*
X80748190Y-18010095D01*
X80319619Y-17057714D02*
X80272000Y-17010095D01*
X80224380Y-16914857D01*
X80224380Y-16676761D01*
X80272000Y-16581523D01*
X80319619Y-16533904D01*
X80414857Y-16486285D01*
X80510095Y-16486285D01*
X80652952Y-16533904D01*
X81224380Y-17105333D01*
X81224380Y-16486285D01*
%TO.C,P3*%
X81224380Y-29440095D02*
X80224380Y-29440095D01*
X80224380Y-29059142D01*
X80272000Y-28963904D01*
X80319619Y-28916285D01*
X80414857Y-28868666D01*
X80557714Y-28868666D01*
X80652952Y-28916285D01*
X80700571Y-28963904D01*
X80748190Y-29059142D01*
X80748190Y-29440095D01*
X80224380Y-28535333D02*
X80224380Y-27916285D01*
X80605333Y-28249619D01*
X80605333Y-28106761D01*
X80652952Y-28011523D01*
X80700571Y-27963904D01*
X80795809Y-27916285D01*
X81033904Y-27916285D01*
X81129142Y-27963904D01*
X81176761Y-28011523D01*
X81224380Y-28106761D01*
X81224380Y-28392476D01*
X81176761Y-28487714D01*
X81129142Y-28535333D01*
%TO.C,P4*%
X81224380Y-40870095D02*
X80224380Y-40870095D01*
X80224380Y-40489142D01*
X80272000Y-40393904D01*
X80319619Y-40346285D01*
X80414857Y-40298666D01*
X80557714Y-40298666D01*
X80652952Y-40346285D01*
X80700571Y-40393904D01*
X80748190Y-40489142D01*
X80748190Y-40870095D01*
X80557714Y-39441523D02*
X81224380Y-39441523D01*
X80176761Y-39679619D02*
X80891047Y-39917714D01*
X80891047Y-39298666D01*
%TO.C,Q7*%
X38970761Y-52699619D02*
X38875523Y-52652000D01*
X38780285Y-52556761D01*
X38637428Y-52413904D01*
X38542190Y-52366285D01*
X38446952Y-52366285D01*
X38494571Y-52604380D02*
X38399333Y-52556761D01*
X38304095Y-52461523D01*
X38256476Y-52271047D01*
X38256476Y-51937714D01*
X38304095Y-51747238D01*
X38399333Y-51652000D01*
X38494571Y-51604380D01*
X38685047Y-51604380D01*
X38780285Y-51652000D01*
X38875523Y-51747238D01*
X38923142Y-51937714D01*
X38923142Y-52271047D01*
X38875523Y-52461523D01*
X38780285Y-52556761D01*
X38685047Y-52604380D01*
X38494571Y-52604380D01*
X39256476Y-51604380D02*
X39923142Y-51604380D01*
X39494571Y-52604380D01*
%TO.C,R1*%
X70699333Y-13406380D02*
X70366000Y-12930190D01*
X70127904Y-13406380D02*
X70127904Y-12406380D01*
X70508857Y-12406380D01*
X70604095Y-12454000D01*
X70651714Y-12501619D01*
X70699333Y-12596857D01*
X70699333Y-12739714D01*
X70651714Y-12834952D01*
X70604095Y-12882571D01*
X70508857Y-12930190D01*
X70127904Y-12930190D01*
X71651714Y-13406380D02*
X71080285Y-13406380D01*
X71366000Y-13406380D02*
X71366000Y-12406380D01*
X71270761Y-12549238D01*
X71175523Y-12644476D01*
X71080285Y-12692095D01*
%TO.C,R2*%
X70699333Y-24836380D02*
X70366000Y-24360190D01*
X70127904Y-24836380D02*
X70127904Y-23836380D01*
X70508857Y-23836380D01*
X70604095Y-23884000D01*
X70651714Y-23931619D01*
X70699333Y-24026857D01*
X70699333Y-24169714D01*
X70651714Y-24264952D01*
X70604095Y-24312571D01*
X70508857Y-24360190D01*
X70127904Y-24360190D01*
X71080285Y-23931619D02*
X71127904Y-23884000D01*
X71223142Y-23836380D01*
X71461238Y-23836380D01*
X71556476Y-23884000D01*
X71604095Y-23931619D01*
X71651714Y-24026857D01*
X71651714Y-24122095D01*
X71604095Y-24264952D01*
X71032666Y-24836380D01*
X71651714Y-24836380D01*
%TO.C,R7*%
X70699333Y-15692380D02*
X70366000Y-15216190D01*
X70127904Y-15692380D02*
X70127904Y-14692380D01*
X70508857Y-14692380D01*
X70604095Y-14740000D01*
X70651714Y-14787619D01*
X70699333Y-14882857D01*
X70699333Y-15025714D01*
X70651714Y-15120952D01*
X70604095Y-15168571D01*
X70508857Y-15216190D01*
X70127904Y-15216190D01*
X71032666Y-14692380D02*
X71699333Y-14692380D01*
X71270761Y-15692380D01*
%TO.C,R8*%
X70699333Y-27122380D02*
X70366000Y-26646190D01*
X70127904Y-27122380D02*
X70127904Y-26122380D01*
X70508857Y-26122380D01*
X70604095Y-26170000D01*
X70651714Y-26217619D01*
X70699333Y-26312857D01*
X70699333Y-26455714D01*
X70651714Y-26550952D01*
X70604095Y-26598571D01*
X70508857Y-26646190D01*
X70127904Y-26646190D01*
X71270761Y-26550952D02*
X71175523Y-26503333D01*
X71127904Y-26455714D01*
X71080285Y-26360476D01*
X71080285Y-26312857D01*
X71127904Y-26217619D01*
X71175523Y-26170000D01*
X71270761Y-26122380D01*
X71461238Y-26122380D01*
X71556476Y-26170000D01*
X71604095Y-26217619D01*
X71651714Y-26312857D01*
X71651714Y-26360476D01*
X71604095Y-26455714D01*
X71556476Y-26503333D01*
X71461238Y-26550952D01*
X71270761Y-26550952D01*
X71175523Y-26598571D01*
X71127904Y-26646190D01*
X71080285Y-26741428D01*
X71080285Y-26931904D01*
X71127904Y-27027142D01*
X71175523Y-27074761D01*
X71270761Y-27122380D01*
X71461238Y-27122380D01*
X71556476Y-27074761D01*
X71604095Y-27027142D01*
X71651714Y-26931904D01*
X71651714Y-26741428D01*
X71604095Y-26646190D01*
X71556476Y-26598571D01*
X71461238Y-26550952D01*
%TO.C,R10*%
X27297142Y-25852380D02*
X26963809Y-25376190D01*
X26725714Y-25852380D02*
X26725714Y-24852380D01*
X27106666Y-24852380D01*
X27201904Y-24900000D01*
X27249523Y-24947619D01*
X27297142Y-25042857D01*
X27297142Y-25185714D01*
X27249523Y-25280952D01*
X27201904Y-25328571D01*
X27106666Y-25376190D01*
X26725714Y-25376190D01*
X28249523Y-25852380D02*
X27678095Y-25852380D01*
X27963809Y-25852380D02*
X27963809Y-24852380D01*
X27868571Y-24995238D01*
X27773333Y-25090476D01*
X27678095Y-25138095D01*
X28868571Y-24852380D02*
X28963809Y-24852380D01*
X29059047Y-24900000D01*
X29106666Y-24947619D01*
X29154285Y-25042857D01*
X29201904Y-25233333D01*
X29201904Y-25471428D01*
X29154285Y-25661904D01*
X29106666Y-25757142D01*
X29059047Y-25804761D01*
X28963809Y-25852380D01*
X28868571Y-25852380D01*
X28773333Y-25804761D01*
X28725714Y-25757142D01*
X28678095Y-25661904D01*
X28630476Y-25471428D01*
X28630476Y-25233333D01*
X28678095Y-25042857D01*
X28725714Y-24947619D01*
X28773333Y-24900000D01*
X28868571Y-24852380D01*
%TO.C,R11*%
X27297142Y-35758380D02*
X26963809Y-35282190D01*
X26725714Y-35758380D02*
X26725714Y-34758380D01*
X27106666Y-34758380D01*
X27201904Y-34806000D01*
X27249523Y-34853619D01*
X27297142Y-34948857D01*
X27297142Y-35091714D01*
X27249523Y-35186952D01*
X27201904Y-35234571D01*
X27106666Y-35282190D01*
X26725714Y-35282190D01*
X28249523Y-35758380D02*
X27678095Y-35758380D01*
X27963809Y-35758380D02*
X27963809Y-34758380D01*
X27868571Y-34901238D01*
X27773333Y-34996476D01*
X27678095Y-35044095D01*
X29201904Y-35758380D02*
X28630476Y-35758380D01*
X28916190Y-35758380D02*
X28916190Y-34758380D01*
X28820952Y-34901238D01*
X28725714Y-34996476D01*
X28630476Y-35044095D01*
%TO.C,R12*%
X27297142Y-45664380D02*
X26963809Y-45188190D01*
X26725714Y-45664380D02*
X26725714Y-44664380D01*
X27106666Y-44664380D01*
X27201904Y-44712000D01*
X27249523Y-44759619D01*
X27297142Y-44854857D01*
X27297142Y-44997714D01*
X27249523Y-45092952D01*
X27201904Y-45140571D01*
X27106666Y-45188190D01*
X26725714Y-45188190D01*
X28249523Y-45664380D02*
X27678095Y-45664380D01*
X27963809Y-45664380D02*
X27963809Y-44664380D01*
X27868571Y-44807238D01*
X27773333Y-44902476D01*
X27678095Y-44950095D01*
X28630476Y-44759619D02*
X28678095Y-44712000D01*
X28773333Y-44664380D01*
X29011428Y-44664380D01*
X29106666Y-44712000D01*
X29154285Y-44759619D01*
X29201904Y-44854857D01*
X29201904Y-44950095D01*
X29154285Y-45092952D01*
X28582857Y-45664380D01*
X29201904Y-45664380D01*
%TO.C,R13*%
X54729142Y-53284380D02*
X54395809Y-52808190D01*
X54157714Y-53284380D02*
X54157714Y-52284380D01*
X54538666Y-52284380D01*
X54633904Y-52332000D01*
X54681523Y-52379619D01*
X54729142Y-52474857D01*
X54729142Y-52617714D01*
X54681523Y-52712952D01*
X54633904Y-52760571D01*
X54538666Y-52808190D01*
X54157714Y-52808190D01*
X55681523Y-53284380D02*
X55110095Y-53284380D01*
X55395809Y-53284380D02*
X55395809Y-52284380D01*
X55300571Y-52427238D01*
X55205333Y-52522476D01*
X55110095Y-52570095D01*
X56014857Y-52284380D02*
X56633904Y-52284380D01*
X56300571Y-52665333D01*
X56443428Y-52665333D01*
X56538666Y-52712952D01*
X56586285Y-52760571D01*
X56633904Y-52855809D01*
X56633904Y-53093904D01*
X56586285Y-53189142D01*
X56538666Y-53236761D01*
X56443428Y-53284380D01*
X56157714Y-53284380D01*
X56062476Y-53236761D01*
X56014857Y-53189142D01*
%TO.C,R14*%
X54729142Y-56332380D02*
X54395809Y-55856190D01*
X54157714Y-56332380D02*
X54157714Y-55332380D01*
X54538666Y-55332380D01*
X54633904Y-55380000D01*
X54681523Y-55427619D01*
X54729142Y-55522857D01*
X54729142Y-55665714D01*
X54681523Y-55760952D01*
X54633904Y-55808571D01*
X54538666Y-55856190D01*
X54157714Y-55856190D01*
X55681523Y-56332380D02*
X55110095Y-56332380D01*
X55395809Y-56332380D02*
X55395809Y-55332380D01*
X55300571Y-55475238D01*
X55205333Y-55570476D01*
X55110095Y-55618095D01*
X56538666Y-55665714D02*
X56538666Y-56332380D01*
X56300571Y-55284761D02*
X56062476Y-55999047D01*
X56681523Y-55999047D01*
%TO.C,R15*%
X33393142Y-37282380D02*
X33059809Y-36806190D01*
X32821714Y-37282380D02*
X32821714Y-36282380D01*
X33202666Y-36282380D01*
X33297904Y-36330000D01*
X33345523Y-36377619D01*
X33393142Y-36472857D01*
X33393142Y-36615714D01*
X33345523Y-36710952D01*
X33297904Y-36758571D01*
X33202666Y-36806190D01*
X32821714Y-36806190D01*
X34345523Y-37282380D02*
X33774095Y-37282380D01*
X34059809Y-37282380D02*
X34059809Y-36282380D01*
X33964571Y-36425238D01*
X33869333Y-36520476D01*
X33774095Y-36568095D01*
X35250285Y-36282380D02*
X34774095Y-36282380D01*
X34726476Y-36758571D01*
X34774095Y-36710952D01*
X34869333Y-36663333D01*
X35107428Y-36663333D01*
X35202666Y-36710952D01*
X35250285Y-36758571D01*
X35297904Y-36853809D01*
X35297904Y-37091904D01*
X35250285Y-37187142D01*
X35202666Y-37234761D01*
X35107428Y-37282380D01*
X34869333Y-37282380D01*
X34774095Y-37234761D01*
X34726476Y-37187142D01*
%TO.C,R16*%
X39489142Y-34234380D02*
X39155809Y-33758190D01*
X38917714Y-34234380D02*
X38917714Y-33234380D01*
X39298666Y-33234380D01*
X39393904Y-33282000D01*
X39441523Y-33329619D01*
X39489142Y-33424857D01*
X39489142Y-33567714D01*
X39441523Y-33662952D01*
X39393904Y-33710571D01*
X39298666Y-33758190D01*
X38917714Y-33758190D01*
X40441523Y-34234380D02*
X39870095Y-34234380D01*
X40155809Y-34234380D02*
X40155809Y-33234380D01*
X40060571Y-33377238D01*
X39965333Y-33472476D01*
X39870095Y-33520095D01*
X41298666Y-33234380D02*
X41108190Y-33234380D01*
X41012952Y-33282000D01*
X40965333Y-33329619D01*
X40870095Y-33472476D01*
X40822476Y-33662952D01*
X40822476Y-34043904D01*
X40870095Y-34139142D01*
X40917714Y-34186761D01*
X41012952Y-34234380D01*
X41203428Y-34234380D01*
X41298666Y-34186761D01*
X41346285Y-34139142D01*
X41393904Y-34043904D01*
X41393904Y-33805809D01*
X41346285Y-33710571D01*
X41298666Y-33662952D01*
X41203428Y-33615333D01*
X41012952Y-33615333D01*
X40917714Y-33662952D01*
X40870095Y-33710571D01*
X40822476Y-33805809D01*
%TO.C,R17*%
X33393142Y-35758380D02*
X33059809Y-35282190D01*
X32821714Y-35758380D02*
X32821714Y-34758380D01*
X33202666Y-34758380D01*
X33297904Y-34806000D01*
X33345523Y-34853619D01*
X33393142Y-34948857D01*
X33393142Y-35091714D01*
X33345523Y-35186952D01*
X33297904Y-35234571D01*
X33202666Y-35282190D01*
X32821714Y-35282190D01*
X34345523Y-35758380D02*
X33774095Y-35758380D01*
X34059809Y-35758380D02*
X34059809Y-34758380D01*
X33964571Y-34901238D01*
X33869333Y-34996476D01*
X33774095Y-35044095D01*
X34678857Y-34758380D02*
X35345523Y-34758380D01*
X34916952Y-35758380D01*
%TO.C,R18*%
X39489142Y-37282380D02*
X39155809Y-36806190D01*
X38917714Y-37282380D02*
X38917714Y-36282380D01*
X39298666Y-36282380D01*
X39393904Y-36330000D01*
X39441523Y-36377619D01*
X39489142Y-36472857D01*
X39489142Y-36615714D01*
X39441523Y-36710952D01*
X39393904Y-36758571D01*
X39298666Y-36806190D01*
X38917714Y-36806190D01*
X40441523Y-37282380D02*
X39870095Y-37282380D01*
X40155809Y-37282380D02*
X40155809Y-36282380D01*
X40060571Y-36425238D01*
X39965333Y-36520476D01*
X39870095Y-36568095D01*
X41012952Y-36710952D02*
X40917714Y-36663333D01*
X40870095Y-36615714D01*
X40822476Y-36520476D01*
X40822476Y-36472857D01*
X40870095Y-36377619D01*
X40917714Y-36330000D01*
X41012952Y-36282380D01*
X41203428Y-36282380D01*
X41298666Y-36330000D01*
X41346285Y-36377619D01*
X41393904Y-36472857D01*
X41393904Y-36520476D01*
X41346285Y-36615714D01*
X41298666Y-36663333D01*
X41203428Y-36710952D01*
X41012952Y-36710952D01*
X40917714Y-36758571D01*
X40870095Y-36806190D01*
X40822476Y-36901428D01*
X40822476Y-37091904D01*
X40870095Y-37187142D01*
X40917714Y-37234761D01*
X41012952Y-37282380D01*
X41203428Y-37282380D01*
X41298666Y-37234761D01*
X41346285Y-37187142D01*
X41393904Y-37091904D01*
X41393904Y-36901428D01*
X41346285Y-36806190D01*
X41298666Y-36758571D01*
X41203428Y-36710952D01*
%TO.C,R19*%
X45331142Y-55316380D02*
X44997809Y-54840190D01*
X44759714Y-55316380D02*
X44759714Y-54316380D01*
X45140666Y-54316380D01*
X45235904Y-54364000D01*
X45283523Y-54411619D01*
X45331142Y-54506857D01*
X45331142Y-54649714D01*
X45283523Y-54744952D01*
X45235904Y-54792571D01*
X45140666Y-54840190D01*
X44759714Y-54840190D01*
X46283523Y-55316380D02*
X45712095Y-55316380D01*
X45997809Y-55316380D02*
X45997809Y-54316380D01*
X45902571Y-54459238D01*
X45807333Y-54554476D01*
X45712095Y-54602095D01*
X46759714Y-55316380D02*
X46950190Y-55316380D01*
X47045428Y-55268761D01*
X47093047Y-55221142D01*
X47188285Y-55078285D01*
X47235904Y-54887809D01*
X47235904Y-54506857D01*
X47188285Y-54411619D01*
X47140666Y-54364000D01*
X47045428Y-54316380D01*
X46854952Y-54316380D01*
X46759714Y-54364000D01*
X46712095Y-54411619D01*
X46664476Y-54506857D01*
X46664476Y-54744952D01*
X46712095Y-54840190D01*
X46759714Y-54887809D01*
X46854952Y-54935428D01*
X47045428Y-54935428D01*
X47140666Y-54887809D01*
X47188285Y-54840190D01*
X47235904Y-54744952D01*
%TO.C,R20*%
X39489142Y-39568380D02*
X39155809Y-39092190D01*
X38917714Y-39568380D02*
X38917714Y-38568380D01*
X39298666Y-38568380D01*
X39393904Y-38616000D01*
X39441523Y-38663619D01*
X39489142Y-38758857D01*
X39489142Y-38901714D01*
X39441523Y-38996952D01*
X39393904Y-39044571D01*
X39298666Y-39092190D01*
X38917714Y-39092190D01*
X39870095Y-38663619D02*
X39917714Y-38616000D01*
X40012952Y-38568380D01*
X40251047Y-38568380D01*
X40346285Y-38616000D01*
X40393904Y-38663619D01*
X40441523Y-38758857D01*
X40441523Y-38854095D01*
X40393904Y-38996952D01*
X39822476Y-39568380D01*
X40441523Y-39568380D01*
X41060571Y-38568380D02*
X41155809Y-38568380D01*
X41251047Y-38616000D01*
X41298666Y-38663619D01*
X41346285Y-38758857D01*
X41393904Y-38949333D01*
X41393904Y-39187428D01*
X41346285Y-39377904D01*
X41298666Y-39473142D01*
X41251047Y-39520761D01*
X41155809Y-39568380D01*
X41060571Y-39568380D01*
X40965333Y-39520761D01*
X40917714Y-39473142D01*
X40870095Y-39377904D01*
X40822476Y-39187428D01*
X40822476Y-38949333D01*
X40870095Y-38758857D01*
X40917714Y-38663619D01*
X40965333Y-38616000D01*
X41060571Y-38568380D01*
%TO.C,R21*%
X33393142Y-39568380D02*
X33059809Y-39092190D01*
X32821714Y-39568380D02*
X32821714Y-38568380D01*
X33202666Y-38568380D01*
X33297904Y-38616000D01*
X33345523Y-38663619D01*
X33393142Y-38758857D01*
X33393142Y-38901714D01*
X33345523Y-38996952D01*
X33297904Y-39044571D01*
X33202666Y-39092190D01*
X32821714Y-39092190D01*
X33774095Y-38663619D02*
X33821714Y-38616000D01*
X33916952Y-38568380D01*
X34155047Y-38568380D01*
X34250285Y-38616000D01*
X34297904Y-38663619D01*
X34345523Y-38758857D01*
X34345523Y-38854095D01*
X34297904Y-38996952D01*
X33726476Y-39568380D01*
X34345523Y-39568380D01*
X35297904Y-39568380D02*
X34726476Y-39568380D01*
X35012190Y-39568380D02*
X35012190Y-38568380D01*
X34916952Y-38711238D01*
X34821714Y-38806476D01*
X34726476Y-38854095D01*
%TO.C,R22*%
X45331142Y-53792380D02*
X44997809Y-53316190D01*
X44759714Y-53792380D02*
X44759714Y-52792380D01*
X45140666Y-52792380D01*
X45235904Y-52840000D01*
X45283523Y-52887619D01*
X45331142Y-52982857D01*
X45331142Y-53125714D01*
X45283523Y-53220952D01*
X45235904Y-53268571D01*
X45140666Y-53316190D01*
X44759714Y-53316190D01*
X45712095Y-52887619D02*
X45759714Y-52840000D01*
X45854952Y-52792380D01*
X46093047Y-52792380D01*
X46188285Y-52840000D01*
X46235904Y-52887619D01*
X46283523Y-52982857D01*
X46283523Y-53078095D01*
X46235904Y-53220952D01*
X45664476Y-53792380D01*
X46283523Y-53792380D01*
X46664476Y-52887619D02*
X46712095Y-52840000D01*
X46807333Y-52792380D01*
X47045428Y-52792380D01*
X47140666Y-52840000D01*
X47188285Y-52887619D01*
X47235904Y-52982857D01*
X47235904Y-53078095D01*
X47188285Y-53220952D01*
X46616857Y-53792380D01*
X47235904Y-53792380D01*
%TO.C,R23*%
X21201142Y-34234380D02*
X20867809Y-33758190D01*
X20629714Y-34234380D02*
X20629714Y-33234380D01*
X21010666Y-33234380D01*
X21105904Y-33282000D01*
X21153523Y-33329619D01*
X21201142Y-33424857D01*
X21201142Y-33567714D01*
X21153523Y-33662952D01*
X21105904Y-33710571D01*
X21010666Y-33758190D01*
X20629714Y-33758190D01*
X21582095Y-33329619D02*
X21629714Y-33282000D01*
X21724952Y-33234380D01*
X21963047Y-33234380D01*
X22058285Y-33282000D01*
X22105904Y-33329619D01*
X22153523Y-33424857D01*
X22153523Y-33520095D01*
X22105904Y-33662952D01*
X21534476Y-34234380D01*
X22153523Y-34234380D01*
X22486857Y-33234380D02*
X23105904Y-33234380D01*
X22772571Y-33615333D01*
X22915428Y-33615333D01*
X23010666Y-33662952D01*
X23058285Y-33710571D01*
X23105904Y-33805809D01*
X23105904Y-34043904D01*
X23058285Y-34139142D01*
X23010666Y-34186761D01*
X22915428Y-34234380D01*
X22629714Y-34234380D01*
X22534476Y-34186761D01*
X22486857Y-34139142D01*
%TO.C,R24*%
X21201142Y-32710380D02*
X20867809Y-32234190D01*
X20629714Y-32710380D02*
X20629714Y-31710380D01*
X21010666Y-31710380D01*
X21105904Y-31758000D01*
X21153523Y-31805619D01*
X21201142Y-31900857D01*
X21201142Y-32043714D01*
X21153523Y-32138952D01*
X21105904Y-32186571D01*
X21010666Y-32234190D01*
X20629714Y-32234190D01*
X21582095Y-31805619D02*
X21629714Y-31758000D01*
X21724952Y-31710380D01*
X21963047Y-31710380D01*
X22058285Y-31758000D01*
X22105904Y-31805619D01*
X22153523Y-31900857D01*
X22153523Y-31996095D01*
X22105904Y-32138952D01*
X21534476Y-32710380D01*
X22153523Y-32710380D01*
X23010666Y-32043714D02*
X23010666Y-32710380D01*
X22772571Y-31662761D02*
X22534476Y-32377047D01*
X23153523Y-32377047D01*
%TO.C,R25*%
X21201142Y-44140380D02*
X20867809Y-43664190D01*
X20629714Y-44140380D02*
X20629714Y-43140380D01*
X21010666Y-43140380D01*
X21105904Y-43188000D01*
X21153523Y-43235619D01*
X21201142Y-43330857D01*
X21201142Y-43473714D01*
X21153523Y-43568952D01*
X21105904Y-43616571D01*
X21010666Y-43664190D01*
X20629714Y-43664190D01*
X21582095Y-43235619D02*
X21629714Y-43188000D01*
X21724952Y-43140380D01*
X21963047Y-43140380D01*
X22058285Y-43188000D01*
X22105904Y-43235619D01*
X22153523Y-43330857D01*
X22153523Y-43426095D01*
X22105904Y-43568952D01*
X21534476Y-44140380D01*
X22153523Y-44140380D01*
X23058285Y-43140380D02*
X22582095Y-43140380D01*
X22534476Y-43616571D01*
X22582095Y-43568952D01*
X22677333Y-43521333D01*
X22915428Y-43521333D01*
X23010666Y-43568952D01*
X23058285Y-43616571D01*
X23105904Y-43711809D01*
X23105904Y-43949904D01*
X23058285Y-44045142D01*
X23010666Y-44092761D01*
X22915428Y-44140380D01*
X22677333Y-44140380D01*
X22582095Y-44092761D01*
X22534476Y-44045142D01*
%TO.C,R26*%
X21201142Y-42616380D02*
X20867809Y-42140190D01*
X20629714Y-42616380D02*
X20629714Y-41616380D01*
X21010666Y-41616380D01*
X21105904Y-41664000D01*
X21153523Y-41711619D01*
X21201142Y-41806857D01*
X21201142Y-41949714D01*
X21153523Y-42044952D01*
X21105904Y-42092571D01*
X21010666Y-42140190D01*
X20629714Y-42140190D01*
X21582095Y-41711619D02*
X21629714Y-41664000D01*
X21724952Y-41616380D01*
X21963047Y-41616380D01*
X22058285Y-41664000D01*
X22105904Y-41711619D01*
X22153523Y-41806857D01*
X22153523Y-41902095D01*
X22105904Y-42044952D01*
X21534476Y-42616380D01*
X22153523Y-42616380D01*
X23010666Y-41616380D02*
X22820190Y-41616380D01*
X22724952Y-41664000D01*
X22677333Y-41711619D01*
X22582095Y-41854476D01*
X22534476Y-42044952D01*
X22534476Y-42425904D01*
X22582095Y-42521142D01*
X22629714Y-42568761D01*
X22724952Y-42616380D01*
X22915428Y-42616380D01*
X23010666Y-42568761D01*
X23058285Y-42521142D01*
X23105904Y-42425904D01*
X23105904Y-42187809D01*
X23058285Y-42092571D01*
X23010666Y-42044952D01*
X22915428Y-41997333D01*
X22724952Y-41997333D01*
X22629714Y-42044952D01*
X22582095Y-42092571D01*
X22534476Y-42187809D01*
%TO.C,R27*%
X21201142Y-54554380D02*
X20867809Y-54078190D01*
X20629714Y-54554380D02*
X20629714Y-53554380D01*
X21010666Y-53554380D01*
X21105904Y-53602000D01*
X21153523Y-53649619D01*
X21201142Y-53744857D01*
X21201142Y-53887714D01*
X21153523Y-53982952D01*
X21105904Y-54030571D01*
X21010666Y-54078190D01*
X20629714Y-54078190D01*
X21582095Y-53649619D02*
X21629714Y-53602000D01*
X21724952Y-53554380D01*
X21963047Y-53554380D01*
X22058285Y-53602000D01*
X22105904Y-53649619D01*
X22153523Y-53744857D01*
X22153523Y-53840095D01*
X22105904Y-53982952D01*
X21534476Y-54554380D01*
X22153523Y-54554380D01*
X22486857Y-53554380D02*
X23153523Y-53554380D01*
X22724952Y-54554380D01*
%TO.C,R28*%
X21201142Y-53030380D02*
X20867809Y-52554190D01*
X20629714Y-53030380D02*
X20629714Y-52030380D01*
X21010666Y-52030380D01*
X21105904Y-52078000D01*
X21153523Y-52125619D01*
X21201142Y-52220857D01*
X21201142Y-52363714D01*
X21153523Y-52458952D01*
X21105904Y-52506571D01*
X21010666Y-52554190D01*
X20629714Y-52554190D01*
X21582095Y-52125619D02*
X21629714Y-52078000D01*
X21724952Y-52030380D01*
X21963047Y-52030380D01*
X22058285Y-52078000D01*
X22105904Y-52125619D01*
X22153523Y-52220857D01*
X22153523Y-52316095D01*
X22105904Y-52458952D01*
X21534476Y-53030380D01*
X22153523Y-53030380D01*
X22724952Y-52458952D02*
X22629714Y-52411333D01*
X22582095Y-52363714D01*
X22534476Y-52268476D01*
X22534476Y-52220857D01*
X22582095Y-52125619D01*
X22629714Y-52078000D01*
X22724952Y-52030380D01*
X22915428Y-52030380D01*
X23010666Y-52078000D01*
X23058285Y-52125619D01*
X23105904Y-52220857D01*
X23105904Y-52268476D01*
X23058285Y-52363714D01*
X23010666Y-52411333D01*
X22915428Y-52458952D01*
X22724952Y-52458952D01*
X22629714Y-52506571D01*
X22582095Y-52554190D01*
X22534476Y-52649428D01*
X22534476Y-52839904D01*
X22582095Y-52935142D01*
X22629714Y-52982761D01*
X22724952Y-53030380D01*
X22915428Y-53030380D01*
X23010666Y-52982761D01*
X23058285Y-52935142D01*
X23105904Y-52839904D01*
X23105904Y-52649428D01*
X23058285Y-52554190D01*
X23010666Y-52506571D01*
X22915428Y-52458952D01*
%TO.C,U1*%
X63968380Y-19049904D02*
X64777904Y-19049904D01*
X64873142Y-19002285D01*
X64920761Y-18954666D01*
X64968380Y-18859428D01*
X64968380Y-18668952D01*
X64920761Y-18573714D01*
X64873142Y-18526095D01*
X64777904Y-18478476D01*
X63968380Y-18478476D01*
X64968380Y-17478476D02*
X64968380Y-18049904D01*
X64968380Y-17764190D02*
X63968380Y-17764190D01*
X64111238Y-17859428D01*
X64206476Y-17954666D01*
X64254095Y-18049904D01*
%TO.C,U2*%
X63968380Y-30733904D02*
X64777904Y-30733904D01*
X64873142Y-30686285D01*
X64920761Y-30638666D01*
X64968380Y-30543428D01*
X64968380Y-30352952D01*
X64920761Y-30257714D01*
X64873142Y-30210095D01*
X64777904Y-30162476D01*
X63968380Y-30162476D01*
X64063619Y-29733904D02*
X64016000Y-29686285D01*
X63968380Y-29591047D01*
X63968380Y-29352952D01*
X64016000Y-29257714D01*
X64063619Y-29210095D01*
X64158857Y-29162476D01*
X64254095Y-29162476D01*
X64396952Y-29210095D01*
X64968380Y-29781523D01*
X64968380Y-29162476D01*
%TO.C,U4*%
X30480095Y-26376380D02*
X30480095Y-27185904D01*
X30527714Y-27281142D01*
X30575333Y-27328761D01*
X30670571Y-27376380D01*
X30861047Y-27376380D01*
X30956285Y-27328761D01*
X31003904Y-27281142D01*
X31051523Y-27185904D01*
X31051523Y-26376380D01*
X31956285Y-26709714D02*
X31956285Y-27376380D01*
X31718190Y-26328761D02*
X31480095Y-27043047D01*
X32099142Y-27043047D01*
X29178250Y-26315380D02*
X29178250Y-26553476D01*
X28940154Y-26458238D02*
X29178250Y-26553476D01*
X29416345Y-26458238D01*
X29035392Y-26743952D02*
X29178250Y-26553476D01*
X29321107Y-26743952D01*
X29178250Y-26315380D02*
X29178250Y-26553476D01*
X28940154Y-26458238D02*
X29178250Y-26553476D01*
X29416345Y-26458238D01*
X29035392Y-26743952D02*
X29178250Y-26553476D01*
X29321107Y-26743952D01*
%TO.C,U5*%
X30480095Y-36282380D02*
X30480095Y-37091904D01*
X30527714Y-37187142D01*
X30575333Y-37234761D01*
X30670571Y-37282380D01*
X30861047Y-37282380D01*
X30956285Y-37234761D01*
X31003904Y-37187142D01*
X31051523Y-37091904D01*
X31051523Y-36282380D01*
X32003904Y-36282380D02*
X31527714Y-36282380D01*
X31480095Y-36758571D01*
X31527714Y-36710952D01*
X31622952Y-36663333D01*
X31861047Y-36663333D01*
X31956285Y-36710952D01*
X32003904Y-36758571D01*
X32051523Y-36853809D01*
X32051523Y-37091904D01*
X32003904Y-37187142D01*
X31956285Y-37234761D01*
X31861047Y-37282380D01*
X31622952Y-37282380D01*
X31527714Y-37234761D01*
X31480095Y-37187142D01*
X29178250Y-36221380D02*
X29178250Y-36459476D01*
X28940154Y-36364238D02*
X29178250Y-36459476D01*
X29416345Y-36364238D01*
X29035392Y-36649952D02*
X29178250Y-36459476D01*
X29321107Y-36649952D01*
X29178250Y-36221380D02*
X29178250Y-36459476D01*
X28940154Y-36364238D02*
X29178250Y-36459476D01*
X29416345Y-36364238D01*
X29035392Y-36649952D02*
X29178250Y-36459476D01*
X29321107Y-36649952D01*
%TO.C,U6*%
X30480095Y-46696380D02*
X30480095Y-47505904D01*
X30527714Y-47601142D01*
X30575333Y-47648761D01*
X30670571Y-47696380D01*
X30861047Y-47696380D01*
X30956285Y-47648761D01*
X31003904Y-47601142D01*
X31051523Y-47505904D01*
X31051523Y-46696380D01*
X31956285Y-46696380D02*
X31765809Y-46696380D01*
X31670571Y-46744000D01*
X31622952Y-46791619D01*
X31527714Y-46934476D01*
X31480095Y-47124952D01*
X31480095Y-47505904D01*
X31527714Y-47601142D01*
X31575333Y-47648761D01*
X31670571Y-47696380D01*
X31861047Y-47696380D01*
X31956285Y-47648761D01*
X32003904Y-47601142D01*
X32051523Y-47505904D01*
X32051523Y-47267809D01*
X32003904Y-47172571D01*
X31956285Y-47124952D01*
X31861047Y-47077333D01*
X31670571Y-47077333D01*
X31575333Y-47124952D01*
X31527714Y-47172571D01*
X31480095Y-47267809D01*
X29178250Y-46635380D02*
X29178250Y-46873476D01*
X28940154Y-46778238D02*
X29178250Y-46873476D01*
X29416345Y-46778238D01*
X29035392Y-47063952D02*
X29178250Y-46873476D01*
X29321107Y-47063952D01*
X29178250Y-46635380D02*
X29178250Y-46873476D01*
X28940154Y-46778238D02*
X29178250Y-46873476D01*
X29416345Y-46778238D01*
X29035392Y-47063952D02*
X29178250Y-46873476D01*
X29321107Y-47063952D01*
%TO.C,U7*%
X45720095Y-35266380D02*
X45720095Y-36075904D01*
X45767714Y-36171142D01*
X45815333Y-36218761D01*
X45910571Y-36266380D01*
X46101047Y-36266380D01*
X46196285Y-36218761D01*
X46243904Y-36171142D01*
X46291523Y-36075904D01*
X46291523Y-35266380D01*
X46672476Y-35266380D02*
X47339142Y-35266380D01*
X46910571Y-36266380D01*
%TO.C,U8*%
X52832095Y-10628380D02*
X52832095Y-11437904D01*
X52879714Y-11533142D01*
X52927333Y-11580761D01*
X53022571Y-11628380D01*
X53213047Y-11628380D01*
X53308285Y-11580761D01*
X53355904Y-11533142D01*
X53403523Y-11437904D01*
X53403523Y-10628380D01*
X54022571Y-11056952D02*
X53927333Y-11009333D01*
X53879714Y-10961714D01*
X53832095Y-10866476D01*
X53832095Y-10818857D01*
X53879714Y-10723619D01*
X53927333Y-10676000D01*
X54022571Y-10628380D01*
X54213047Y-10628380D01*
X54308285Y-10676000D01*
X54355904Y-10723619D01*
X54403523Y-10818857D01*
X54403523Y-10866476D01*
X54355904Y-10961714D01*
X54308285Y-11009333D01*
X54213047Y-11056952D01*
X54022571Y-11056952D01*
X53927333Y-11104571D01*
X53879714Y-11152190D01*
X53832095Y-11247428D01*
X53832095Y-11437904D01*
X53879714Y-11533142D01*
X53927333Y-11580761D01*
X54022571Y-11628380D01*
X54213047Y-11628380D01*
X54308285Y-11580761D01*
X54355904Y-11533142D01*
X54403523Y-11437904D01*
X54403523Y-11247428D01*
X54355904Y-11152190D01*
X54308285Y-11104571D01*
X54213047Y-11056952D01*
%TO.C,U9*%
X24384095Y-26376380D02*
X24384095Y-27185904D01*
X24431714Y-27281142D01*
X24479333Y-27328761D01*
X24574571Y-27376380D01*
X24765047Y-27376380D01*
X24860285Y-27328761D01*
X24907904Y-27281142D01*
X24955523Y-27185904D01*
X24955523Y-26376380D01*
X25479333Y-27376380D02*
X25669809Y-27376380D01*
X25765047Y-27328761D01*
X25812666Y-27281142D01*
X25907904Y-27138285D01*
X25955523Y-26947809D01*
X25955523Y-26566857D01*
X25907904Y-26471619D01*
X25860285Y-26424000D01*
X25765047Y-26376380D01*
X25574571Y-26376380D01*
X25479333Y-26424000D01*
X25431714Y-26471619D01*
X25384095Y-26566857D01*
X25384095Y-26804952D01*
X25431714Y-26900190D01*
X25479333Y-26947809D01*
X25574571Y-26995428D01*
X25765047Y-26995428D01*
X25860285Y-26947809D01*
X25907904Y-26900190D01*
X25955523Y-26804952D01*
X23082250Y-26315380D02*
X23082250Y-26553476D01*
X22844154Y-26458238D02*
X23082250Y-26553476D01*
X23320345Y-26458238D01*
X22939392Y-26743952D02*
X23082250Y-26553476D01*
X23225107Y-26743952D01*
X23082250Y-26315380D02*
X23082250Y-26553476D01*
X22844154Y-26458238D02*
X23082250Y-26553476D01*
X23320345Y-26458238D01*
X22939392Y-26743952D02*
X23082250Y-26553476D01*
X23225107Y-26743952D01*
%TO.C,U10*%
X23907904Y-36282380D02*
X23907904Y-37091904D01*
X23955523Y-37187142D01*
X24003142Y-37234761D01*
X24098380Y-37282380D01*
X24288857Y-37282380D01*
X24384095Y-37234761D01*
X24431714Y-37187142D01*
X24479333Y-37091904D01*
X24479333Y-36282380D01*
X25479333Y-37282380D02*
X24907904Y-37282380D01*
X25193619Y-37282380D02*
X25193619Y-36282380D01*
X25098380Y-36425238D01*
X25003142Y-36520476D01*
X24907904Y-36568095D01*
X26098380Y-36282380D02*
X26193619Y-36282380D01*
X26288857Y-36330000D01*
X26336476Y-36377619D01*
X26384095Y-36472857D01*
X26431714Y-36663333D01*
X26431714Y-36901428D01*
X26384095Y-37091904D01*
X26336476Y-37187142D01*
X26288857Y-37234761D01*
X26193619Y-37282380D01*
X26098380Y-37282380D01*
X26003142Y-37234761D01*
X25955523Y-37187142D01*
X25907904Y-37091904D01*
X25860285Y-36901428D01*
X25860285Y-36663333D01*
X25907904Y-36472857D01*
X25955523Y-36377619D01*
X26003142Y-36330000D01*
X26098380Y-36282380D01*
X23082250Y-36221380D02*
X23082250Y-36459476D01*
X22844154Y-36364238D02*
X23082250Y-36459476D01*
X23320345Y-36364238D01*
X22939392Y-36649952D02*
X23082250Y-36459476D01*
X23225107Y-36649952D01*
X23082250Y-36221380D02*
X23082250Y-36459476D01*
X22844154Y-36364238D02*
X23082250Y-36459476D01*
X23320345Y-36364238D01*
X22939392Y-36649952D02*
X23082250Y-36459476D01*
X23225107Y-36649952D01*
%TO.C,U11*%
X23907904Y-46696380D02*
X23907904Y-47505904D01*
X23955523Y-47601142D01*
X24003142Y-47648761D01*
X24098380Y-47696380D01*
X24288857Y-47696380D01*
X24384095Y-47648761D01*
X24431714Y-47601142D01*
X24479333Y-47505904D01*
X24479333Y-46696380D01*
X25479333Y-47696380D02*
X24907904Y-47696380D01*
X25193619Y-47696380D02*
X25193619Y-46696380D01*
X25098380Y-46839238D01*
X25003142Y-46934476D01*
X24907904Y-46982095D01*
X26431714Y-47696380D02*
X25860285Y-47696380D01*
X26146000Y-47696380D02*
X26146000Y-46696380D01*
X26050761Y-46839238D01*
X25955523Y-46934476D01*
X25860285Y-46982095D01*
X23082250Y-46635380D02*
X23082250Y-46873476D01*
X22844154Y-46778238D02*
X23082250Y-46873476D01*
X23320345Y-46778238D01*
X22939392Y-47063952D02*
X23082250Y-46873476D01*
X23225107Y-47063952D01*
X23082250Y-46635380D02*
X23082250Y-46873476D01*
X22844154Y-46778238D02*
X23082250Y-46873476D01*
X23320345Y-46778238D01*
X22939392Y-47063952D02*
X23082250Y-46873476D01*
X23225107Y-47063952D01*
%TO.C,J1*%
X2714666Y-14692380D02*
X2714666Y-15406666D01*
X2667047Y-15549523D01*
X2571809Y-15644761D01*
X2428952Y-15692380D01*
X2333714Y-15692380D01*
X3714666Y-15692380D02*
X3143238Y-15692380D01*
X3428952Y-15692380D02*
X3428952Y-14692380D01*
X3333714Y-14835238D01*
X3238476Y-14930476D01*
X3143238Y-14978095D01*
%TD*%
M02*
