%TF.GenerationSoftware,KiCad,Pcbnew,(5.1.7-0-10_14)*%
%TF.CreationDate,2021-01-04T14:16:26+09:00*%
%TF.ProjectId,rotomdriver,726f746f-6d64-4726-9976-65722e6b6963,rev?*%
%TF.SameCoordinates,Original*%
%TF.FileFunction,Soldermask,Top*%
%TF.FilePolarity,Negative*%
%FSLAX46Y46*%
G04 Gerber Fmt 4.6, Leading zero omitted, Abs format (unit mm)*
G04 Created by KiCad (PCBNEW (5.1.7-0-10_14)) date 2021-01-04 14:16:26*
%MOMM*%
%LPD*%
G01*
G04 APERTURE LIST*
%ADD10C,2.700000*%
%ADD11C,1.143000*%
%ADD12R,10.160000X10.160000*%
%ADD13R,0.900000X1.200000*%
%ADD14R,2.500000X1.800000*%
%ADD15R,8.200000X2.600000*%
%ADD16R,6.350000X6.350000*%
%ADD17R,0.700000X0.450000*%
%ADD18R,1.104900X0.508000*%
%ADD19R,1.550000X0.300000*%
%ADD20R,3.610000X6.350000*%
%ADD21R,3.800000X2.000000*%
%ADD22R,1.500000X2.000000*%
%ADD23R,1.700000X1.700000*%
%ADD24O,1.700000X1.700000*%
G04 APERTURE END LIST*
D10*
%TO.C,REF\u002A\u002A*%
X62000000Y-54000000D03*
%TD*%
%TO.C,REF\u002A\u002A*%
X3000000Y-3000000D03*
%TD*%
%TO.C,U3*%
G36*
G01*
X67026000Y-42277000D02*
X67026000Y-42477000D01*
G75*
G02*
X66926000Y-42577000I-100000J0D01*
G01*
X65501000Y-42577000D01*
G75*
G02*
X65401000Y-42477000I0J100000D01*
G01*
X65401000Y-42277000D01*
G75*
G02*
X65501000Y-42177000I100000J0D01*
G01*
X66926000Y-42177000D01*
G75*
G02*
X67026000Y-42277000I0J-100000D01*
G01*
G37*
G36*
G01*
X67026000Y-41627000D02*
X67026000Y-41827000D01*
G75*
G02*
X66926000Y-41927000I-100000J0D01*
G01*
X65501000Y-41927000D01*
G75*
G02*
X65401000Y-41827000I0J100000D01*
G01*
X65401000Y-41627000D01*
G75*
G02*
X65501000Y-41527000I100000J0D01*
G01*
X66926000Y-41527000D01*
G75*
G02*
X67026000Y-41627000I0J-100000D01*
G01*
G37*
G36*
G01*
X67026000Y-40977000D02*
X67026000Y-41177000D01*
G75*
G02*
X66926000Y-41277000I-100000J0D01*
G01*
X65501000Y-41277000D01*
G75*
G02*
X65401000Y-41177000I0J100000D01*
G01*
X65401000Y-40977000D01*
G75*
G02*
X65501000Y-40877000I100000J0D01*
G01*
X66926000Y-40877000D01*
G75*
G02*
X67026000Y-40977000I0J-100000D01*
G01*
G37*
G36*
G01*
X67026000Y-40327000D02*
X67026000Y-40527000D01*
G75*
G02*
X66926000Y-40627000I-100000J0D01*
G01*
X65501000Y-40627000D01*
G75*
G02*
X65401000Y-40527000I0J100000D01*
G01*
X65401000Y-40327000D01*
G75*
G02*
X65501000Y-40227000I100000J0D01*
G01*
X66926000Y-40227000D01*
G75*
G02*
X67026000Y-40327000I0J-100000D01*
G01*
G37*
G36*
G01*
X71251000Y-40327000D02*
X71251000Y-40527000D01*
G75*
G02*
X71151000Y-40627000I-100000J0D01*
G01*
X69726000Y-40627000D01*
G75*
G02*
X69626000Y-40527000I0J100000D01*
G01*
X69626000Y-40327000D01*
G75*
G02*
X69726000Y-40227000I100000J0D01*
G01*
X71151000Y-40227000D01*
G75*
G02*
X71251000Y-40327000I0J-100000D01*
G01*
G37*
G36*
G01*
X71251000Y-40977000D02*
X71251000Y-41177000D01*
G75*
G02*
X71151000Y-41277000I-100000J0D01*
G01*
X69726000Y-41277000D01*
G75*
G02*
X69626000Y-41177000I0J100000D01*
G01*
X69626000Y-40977000D01*
G75*
G02*
X69726000Y-40877000I100000J0D01*
G01*
X71151000Y-40877000D01*
G75*
G02*
X71251000Y-40977000I0J-100000D01*
G01*
G37*
G36*
G01*
X71251000Y-41627000D02*
X71251000Y-41827000D01*
G75*
G02*
X71151000Y-41927000I-100000J0D01*
G01*
X69726000Y-41927000D01*
G75*
G02*
X69626000Y-41827000I0J100000D01*
G01*
X69626000Y-41627000D01*
G75*
G02*
X69726000Y-41527000I100000J0D01*
G01*
X71151000Y-41527000D01*
G75*
G02*
X71251000Y-41627000I0J-100000D01*
G01*
G37*
G36*
G01*
X71251000Y-42277000D02*
X71251000Y-42477000D01*
G75*
G02*
X71151000Y-42577000I-100000J0D01*
G01*
X69726000Y-42577000D01*
G75*
G02*
X69626000Y-42477000I0J100000D01*
G01*
X69626000Y-42277000D01*
G75*
G02*
X69726000Y-42177000I100000J0D01*
G01*
X71151000Y-42177000D01*
G75*
G02*
X71251000Y-42277000I0J-100000D01*
G01*
G37*
%TD*%
%TO.C,R9*%
G36*
G01*
X67901000Y-37825000D02*
X67901000Y-38375000D01*
G75*
G02*
X67701000Y-38575000I-200000J0D01*
G01*
X67301000Y-38575000D01*
G75*
G02*
X67101000Y-38375000I0J200000D01*
G01*
X67101000Y-37825000D01*
G75*
G02*
X67301000Y-37625000I200000J0D01*
G01*
X67701000Y-37625000D01*
G75*
G02*
X67901000Y-37825000I0J-200000D01*
G01*
G37*
G36*
G01*
X69551000Y-37825000D02*
X69551000Y-38375000D01*
G75*
G02*
X69351000Y-38575000I-200000J0D01*
G01*
X68951000Y-38575000D01*
G75*
G02*
X68751000Y-38375000I0J200000D01*
G01*
X68751000Y-37825000D01*
G75*
G02*
X68951000Y-37625000I200000J0D01*
G01*
X69351000Y-37625000D01*
G75*
G02*
X69551000Y-37825000I0J-200000D01*
G01*
G37*
%TD*%
%TO.C,R3*%
G36*
G01*
X67901000Y-35539000D02*
X67901000Y-36089000D01*
G75*
G02*
X67701000Y-36289000I-200000J0D01*
G01*
X67301000Y-36289000D01*
G75*
G02*
X67101000Y-36089000I0J200000D01*
G01*
X67101000Y-35539000D01*
G75*
G02*
X67301000Y-35339000I200000J0D01*
G01*
X67701000Y-35339000D01*
G75*
G02*
X67901000Y-35539000I0J-200000D01*
G01*
G37*
G36*
G01*
X69551000Y-35539000D02*
X69551000Y-36089000D01*
G75*
G02*
X69351000Y-36289000I-200000J0D01*
G01*
X68951000Y-36289000D01*
G75*
G02*
X68751000Y-36089000I0J200000D01*
G01*
X68751000Y-35539000D01*
G75*
G02*
X68951000Y-35339000I200000J0D01*
G01*
X69351000Y-35339000D01*
G75*
G02*
X69551000Y-35539000I0J-200000D01*
G01*
G37*
%TD*%
D11*
%TO.C,P5*%
X76454000Y-55880000D03*
X74549000Y-55880000D03*
X72644000Y-55880000D03*
X70739000Y-55880000D03*
X68834000Y-55880000D03*
X76454000Y-53975000D03*
X74549000Y-53975000D03*
X72644000Y-53975000D03*
X70739000Y-53975000D03*
X68834000Y-53975000D03*
X76454000Y-52070000D03*
X74549000Y-52070000D03*
X72644000Y-52070000D03*
X70739000Y-52070000D03*
X68834000Y-52070000D03*
X76454000Y-50165000D03*
X74549000Y-50165000D03*
X72644000Y-50165000D03*
X70739000Y-50165000D03*
X68834000Y-50165000D03*
X76454000Y-48260000D03*
X74549000Y-48260000D03*
X72644000Y-48260000D03*
X70739000Y-48260000D03*
X68834000Y-48260000D03*
D12*
X72644000Y-52070000D03*
%TD*%
%TO.C,C6*%
G36*
G01*
X74760001Y-42280000D02*
X72559999Y-42280000D01*
G75*
G02*
X72310000Y-42030001I0J249999D01*
G01*
X72310000Y-41379999D01*
G75*
G02*
X72559999Y-41130000I249999J0D01*
G01*
X74760001Y-41130000D01*
G75*
G02*
X75010000Y-41379999I0J-249999D01*
G01*
X75010000Y-42030001D01*
G75*
G02*
X74760001Y-42280000I-249999J0D01*
G01*
G37*
G36*
G01*
X74760001Y-45230000D02*
X72559999Y-45230000D01*
G75*
G02*
X72310000Y-44980001I0J249999D01*
G01*
X72310000Y-44329999D01*
G75*
G02*
X72559999Y-44080000I249999J0D01*
G01*
X74760001Y-44080000D01*
G75*
G02*
X75010000Y-44329999I0J-249999D01*
G01*
X75010000Y-44980001D01*
G75*
G02*
X74760001Y-45230000I-249999J0D01*
G01*
G37*
%TD*%
%TO.C,C5*%
G36*
G01*
X72559999Y-37984000D02*
X74760001Y-37984000D01*
G75*
G02*
X75010000Y-38233999I0J-249999D01*
G01*
X75010000Y-38884001D01*
G75*
G02*
X74760001Y-39134000I-249999J0D01*
G01*
X72559999Y-39134000D01*
G75*
G02*
X72310000Y-38884001I0J249999D01*
G01*
X72310000Y-38233999D01*
G75*
G02*
X72559999Y-37984000I249999J0D01*
G01*
G37*
G36*
G01*
X72559999Y-35034000D02*
X74760001Y-35034000D01*
G75*
G02*
X75010000Y-35283999I0J-249999D01*
G01*
X75010000Y-35934001D01*
G75*
G02*
X74760001Y-36184000I-249999J0D01*
G01*
X72559999Y-36184000D01*
G75*
G02*
X72310000Y-35934001I0J249999D01*
G01*
X72310000Y-35283999D01*
G75*
G02*
X72559999Y-35034000I249999J0D01*
G01*
G37*
%TD*%
D11*
%TO.C,P1*%
X76454000Y-9144000D03*
X74549000Y-9144000D03*
X72644000Y-9144000D03*
X70739000Y-9144000D03*
X68834000Y-9144000D03*
X76454000Y-7239000D03*
X74549000Y-7239000D03*
X72644000Y-7239000D03*
X70739000Y-7239000D03*
X68834000Y-7239000D03*
X76454000Y-5334000D03*
X74549000Y-5334000D03*
X72644000Y-5334000D03*
X70739000Y-5334000D03*
X68834000Y-5334000D03*
X76454000Y-3429000D03*
X74549000Y-3429000D03*
X72644000Y-3429000D03*
X70739000Y-3429000D03*
X68834000Y-3429000D03*
X76454000Y-1524000D03*
X74549000Y-1524000D03*
X72644000Y-1524000D03*
X70739000Y-1524000D03*
X68834000Y-1524000D03*
D12*
X72644000Y-5334000D03*
%TD*%
%TO.C,C1*%
G36*
G01*
X72559999Y-12174000D02*
X74760001Y-12174000D01*
G75*
G02*
X75010000Y-12423999I0J-249999D01*
G01*
X75010000Y-13074001D01*
G75*
G02*
X74760001Y-13324000I-249999J0D01*
G01*
X72559999Y-13324000D01*
G75*
G02*
X72310000Y-13074001I0J249999D01*
G01*
X72310000Y-12423999D01*
G75*
G02*
X72559999Y-12174000I249999J0D01*
G01*
G37*
G36*
G01*
X72559999Y-15124000D02*
X74760001Y-15124000D01*
G75*
G02*
X75010000Y-15373999I0J-249999D01*
G01*
X75010000Y-16024001D01*
G75*
G02*
X74760001Y-16274000I-249999J0D01*
G01*
X72559999Y-16274000D01*
G75*
G02*
X72310000Y-16024001I0J249999D01*
G01*
X72310000Y-15373999D01*
G75*
G02*
X72559999Y-15124000I249999J0D01*
G01*
G37*
%TD*%
%TO.C,C2*%
G36*
G01*
X74760001Y-19420000D02*
X72559999Y-19420000D01*
G75*
G02*
X72310000Y-19170001I0J249999D01*
G01*
X72310000Y-18519999D01*
G75*
G02*
X72559999Y-18270000I249999J0D01*
G01*
X74760001Y-18270000D01*
G75*
G02*
X75010000Y-18519999I0J-249999D01*
G01*
X75010000Y-19170001D01*
G75*
G02*
X74760001Y-19420000I-249999J0D01*
G01*
G37*
G36*
G01*
X74760001Y-22370000D02*
X72559999Y-22370000D01*
G75*
G02*
X72310000Y-22120001I0J249999D01*
G01*
X72310000Y-21469999D01*
G75*
G02*
X72559999Y-21220000I249999J0D01*
G01*
X74760001Y-21220000D01*
G75*
G02*
X75010000Y-21469999I0J-249999D01*
G01*
X75010000Y-22120001D01*
G75*
G02*
X74760001Y-22370000I-249999J0D01*
G01*
G37*
%TD*%
%TO.C,C3*%
G36*
G01*
X72559999Y-23604000D02*
X74760001Y-23604000D01*
G75*
G02*
X75010000Y-23853999I0J-249999D01*
G01*
X75010000Y-24504001D01*
G75*
G02*
X74760001Y-24754000I-249999J0D01*
G01*
X72559999Y-24754000D01*
G75*
G02*
X72310000Y-24504001I0J249999D01*
G01*
X72310000Y-23853999D01*
G75*
G02*
X72559999Y-23604000I249999J0D01*
G01*
G37*
G36*
G01*
X72559999Y-26554000D02*
X74760001Y-26554000D01*
G75*
G02*
X75010000Y-26803999I0J-249999D01*
G01*
X75010000Y-27454001D01*
G75*
G02*
X74760001Y-27704000I-249999J0D01*
G01*
X72559999Y-27704000D01*
G75*
G02*
X72310000Y-27454001I0J249999D01*
G01*
X72310000Y-26803999D01*
G75*
G02*
X72559999Y-26554000I249999J0D01*
G01*
G37*
%TD*%
%TO.C,C4*%
G36*
G01*
X74760001Y-30850000D02*
X72559999Y-30850000D01*
G75*
G02*
X72310000Y-30600001I0J249999D01*
G01*
X72310000Y-29949999D01*
G75*
G02*
X72559999Y-29700000I249999J0D01*
G01*
X74760001Y-29700000D01*
G75*
G02*
X75010000Y-29949999I0J-249999D01*
G01*
X75010000Y-30600001D01*
G75*
G02*
X74760001Y-30850000I-249999J0D01*
G01*
G37*
G36*
G01*
X74760001Y-33800000D02*
X72559999Y-33800000D01*
G75*
G02*
X72310000Y-33550001I0J249999D01*
G01*
X72310000Y-32899999D01*
G75*
G02*
X72559999Y-32650000I249999J0D01*
G01*
X74760001Y-32650000D01*
G75*
G02*
X75010000Y-32899999I0J-249999D01*
G01*
X75010000Y-33550001D01*
G75*
G02*
X74760001Y-33800000I-249999J0D01*
G01*
G37*
%TD*%
%TO.C,C7*%
G36*
G01*
X67101000Y-22094000D02*
X67101000Y-21594000D01*
G75*
G02*
X67326000Y-21369000I225000J0D01*
G01*
X67776000Y-21369000D01*
G75*
G02*
X68001000Y-21594000I0J-225000D01*
G01*
X68001000Y-22094000D01*
G75*
G02*
X67776000Y-22319000I-225000J0D01*
G01*
X67326000Y-22319000D01*
G75*
G02*
X67101000Y-22094000I0J225000D01*
G01*
G37*
G36*
G01*
X68651000Y-22094000D02*
X68651000Y-21594000D01*
G75*
G02*
X68876000Y-21369000I225000J0D01*
G01*
X69326000Y-21369000D01*
G75*
G02*
X69551000Y-21594000I0J-225000D01*
G01*
X69551000Y-22094000D01*
G75*
G02*
X69326000Y-22319000I-225000J0D01*
G01*
X68876000Y-22319000D01*
G75*
G02*
X68651000Y-22094000I0J225000D01*
G01*
G37*
%TD*%
%TO.C,C8*%
G36*
G01*
X68651000Y-33524000D02*
X68651000Y-33024000D01*
G75*
G02*
X68876000Y-32799000I225000J0D01*
G01*
X69326000Y-32799000D01*
G75*
G02*
X69551000Y-33024000I0J-225000D01*
G01*
X69551000Y-33524000D01*
G75*
G02*
X69326000Y-33749000I-225000J0D01*
G01*
X68876000Y-33749000D01*
G75*
G02*
X68651000Y-33524000I0J225000D01*
G01*
G37*
G36*
G01*
X67101000Y-33524000D02*
X67101000Y-33024000D01*
G75*
G02*
X67326000Y-32799000I225000J0D01*
G01*
X67776000Y-32799000D01*
G75*
G02*
X68001000Y-33024000I0J-225000D01*
G01*
X68001000Y-33524000D01*
G75*
G02*
X67776000Y-33749000I-225000J0D01*
G01*
X67326000Y-33749000D01*
G75*
G02*
X67101000Y-33524000I0J225000D01*
G01*
G37*
%TD*%
%TO.C,C9*%
G36*
G01*
X68651000Y-44954000D02*
X68651000Y-44454000D01*
G75*
G02*
X68876000Y-44229000I225000J0D01*
G01*
X69326000Y-44229000D01*
G75*
G02*
X69551000Y-44454000I0J-225000D01*
G01*
X69551000Y-44954000D01*
G75*
G02*
X69326000Y-45179000I-225000J0D01*
G01*
X68876000Y-45179000D01*
G75*
G02*
X68651000Y-44954000I0J225000D01*
G01*
G37*
G36*
G01*
X67101000Y-44954000D02*
X67101000Y-44454000D01*
G75*
G02*
X67326000Y-44229000I225000J0D01*
G01*
X67776000Y-44229000D01*
G75*
G02*
X68001000Y-44454000I0J-225000D01*
G01*
X68001000Y-44954000D01*
G75*
G02*
X67776000Y-45179000I-225000J0D01*
G01*
X67326000Y-45179000D01*
G75*
G02*
X67101000Y-44954000I0J225000D01*
G01*
G37*
%TD*%
%TO.C,C10*%
G36*
G01*
X31059000Y-32508000D02*
X31059000Y-32008000D01*
G75*
G02*
X31284000Y-31783000I225000J0D01*
G01*
X31734000Y-31783000D01*
G75*
G02*
X31959000Y-32008000I0J-225000D01*
G01*
X31959000Y-32508000D01*
G75*
G02*
X31734000Y-32733000I-225000J0D01*
G01*
X31284000Y-32733000D01*
G75*
G02*
X31059000Y-32508000I0J225000D01*
G01*
G37*
G36*
G01*
X29509000Y-32508000D02*
X29509000Y-32008000D01*
G75*
G02*
X29734000Y-31783000I225000J0D01*
G01*
X30184000Y-31783000D01*
G75*
G02*
X30409000Y-32008000I0J-225000D01*
G01*
X30409000Y-32508000D01*
G75*
G02*
X30184000Y-32733000I-225000J0D01*
G01*
X29734000Y-32733000D01*
G75*
G02*
X29509000Y-32508000I0J225000D01*
G01*
G37*
%TD*%
%TO.C,C11*%
G36*
G01*
X29509000Y-42414000D02*
X29509000Y-41914000D01*
G75*
G02*
X29734000Y-41689000I225000J0D01*
G01*
X30184000Y-41689000D01*
G75*
G02*
X30409000Y-41914000I0J-225000D01*
G01*
X30409000Y-42414000D01*
G75*
G02*
X30184000Y-42639000I-225000J0D01*
G01*
X29734000Y-42639000D01*
G75*
G02*
X29509000Y-42414000I0J225000D01*
G01*
G37*
G36*
G01*
X31059000Y-42414000D02*
X31059000Y-41914000D01*
G75*
G02*
X31284000Y-41689000I225000J0D01*
G01*
X31734000Y-41689000D01*
G75*
G02*
X31959000Y-41914000I0J-225000D01*
G01*
X31959000Y-42414000D01*
G75*
G02*
X31734000Y-42639000I-225000J0D01*
G01*
X31284000Y-42639000D01*
G75*
G02*
X31059000Y-42414000I0J225000D01*
G01*
G37*
%TD*%
%TO.C,C12*%
G36*
G01*
X29509000Y-52828000D02*
X29509000Y-52328000D01*
G75*
G02*
X29734000Y-52103000I225000J0D01*
G01*
X30184000Y-52103000D01*
G75*
G02*
X30409000Y-52328000I0J-225000D01*
G01*
X30409000Y-52828000D01*
G75*
G02*
X30184000Y-53053000I-225000J0D01*
G01*
X29734000Y-53053000D01*
G75*
G02*
X29509000Y-52828000I0J225000D01*
G01*
G37*
G36*
G01*
X31059000Y-52828000D02*
X31059000Y-52328000D01*
G75*
G02*
X31284000Y-52103000I225000J0D01*
G01*
X31734000Y-52103000D01*
G75*
G02*
X31959000Y-52328000I0J-225000D01*
G01*
X31959000Y-52828000D01*
G75*
G02*
X31734000Y-53053000I-225000J0D01*
G01*
X31284000Y-53053000D01*
G75*
G02*
X31059000Y-52828000I0J225000D01*
G01*
G37*
%TD*%
%TO.C,C13*%
G36*
G01*
X29509000Y-34032000D02*
X29509000Y-33532000D01*
G75*
G02*
X29734000Y-33307000I225000J0D01*
G01*
X30184000Y-33307000D01*
G75*
G02*
X30409000Y-33532000I0J-225000D01*
G01*
X30409000Y-34032000D01*
G75*
G02*
X30184000Y-34257000I-225000J0D01*
G01*
X29734000Y-34257000D01*
G75*
G02*
X29509000Y-34032000I0J225000D01*
G01*
G37*
G36*
G01*
X31059000Y-34032000D02*
X31059000Y-33532000D01*
G75*
G02*
X31284000Y-33307000I225000J0D01*
G01*
X31734000Y-33307000D01*
G75*
G02*
X31959000Y-33532000I0J-225000D01*
G01*
X31959000Y-34032000D01*
G75*
G02*
X31734000Y-34257000I-225000J0D01*
G01*
X31284000Y-34257000D01*
G75*
G02*
X31059000Y-34032000I0J225000D01*
G01*
G37*
%TD*%
%TO.C,C14*%
G36*
G01*
X31059000Y-43938000D02*
X31059000Y-43438000D01*
G75*
G02*
X31284000Y-43213000I225000J0D01*
G01*
X31734000Y-43213000D01*
G75*
G02*
X31959000Y-43438000I0J-225000D01*
G01*
X31959000Y-43938000D01*
G75*
G02*
X31734000Y-44163000I-225000J0D01*
G01*
X31284000Y-44163000D01*
G75*
G02*
X31059000Y-43938000I0J225000D01*
G01*
G37*
G36*
G01*
X29509000Y-43938000D02*
X29509000Y-43438000D01*
G75*
G02*
X29734000Y-43213000I225000J0D01*
G01*
X30184000Y-43213000D01*
G75*
G02*
X30409000Y-43438000I0J-225000D01*
G01*
X30409000Y-43938000D01*
G75*
G02*
X30184000Y-44163000I-225000J0D01*
G01*
X29734000Y-44163000D01*
G75*
G02*
X29509000Y-43938000I0J225000D01*
G01*
G37*
%TD*%
%TO.C,C15*%
G36*
G01*
X31059000Y-54352000D02*
X31059000Y-53852000D01*
G75*
G02*
X31284000Y-53627000I225000J0D01*
G01*
X31734000Y-53627000D01*
G75*
G02*
X31959000Y-53852000I0J-225000D01*
G01*
X31959000Y-54352000D01*
G75*
G02*
X31734000Y-54577000I-225000J0D01*
G01*
X31284000Y-54577000D01*
G75*
G02*
X31059000Y-54352000I0J225000D01*
G01*
G37*
G36*
G01*
X29509000Y-54352000D02*
X29509000Y-53852000D01*
G75*
G02*
X29734000Y-53627000I225000J0D01*
G01*
X30184000Y-53627000D01*
G75*
G02*
X30409000Y-53852000I0J-225000D01*
G01*
X30409000Y-54352000D01*
G75*
G02*
X30184000Y-54577000I-225000J0D01*
G01*
X29734000Y-54577000D01*
G75*
G02*
X29509000Y-54352000I0J225000D01*
G01*
G37*
%TD*%
%TO.C,C16*%
G36*
G01*
X31771999Y-14034000D02*
X40872001Y-14034000D01*
G75*
G02*
X41122000Y-14283999I0J-249999D01*
G01*
X41122000Y-22584001D01*
G75*
G02*
X40872001Y-22834000I-249999J0D01*
G01*
X31771999Y-22834000D01*
G75*
G02*
X31522000Y-22584001I0J249999D01*
G01*
X31522000Y-14283999D01*
G75*
G02*
X31771999Y-14034000I249999J0D01*
G01*
G37*
G36*
G01*
X31771999Y-534000D02*
X40872001Y-534000D01*
G75*
G02*
X41122000Y-783999I0J-249999D01*
G01*
X41122000Y-9084001D01*
G75*
G02*
X40872001Y-9334000I-249999J0D01*
G01*
X31771999Y-9334000D01*
G75*
G02*
X31522000Y-9084001I0J249999D01*
G01*
X31522000Y-783999D01*
G75*
G02*
X31771999Y-534000I249999J0D01*
G01*
G37*
%TD*%
%TO.C,C17*%
G36*
G01*
X11451999Y-534000D02*
X20552001Y-534000D01*
G75*
G02*
X20802000Y-783999I0J-249999D01*
G01*
X20802000Y-9084001D01*
G75*
G02*
X20552001Y-9334000I-249999J0D01*
G01*
X11451999Y-9334000D01*
G75*
G02*
X11202000Y-9084001I0J249999D01*
G01*
X11202000Y-783999D01*
G75*
G02*
X11451999Y-534000I249999J0D01*
G01*
G37*
G36*
G01*
X11451999Y-14034000D02*
X20552001Y-14034000D01*
G75*
G02*
X20802000Y-14283999I0J-249999D01*
G01*
X20802000Y-22584001D01*
G75*
G02*
X20552001Y-22834000I-249999J0D01*
G01*
X11451999Y-22834000D01*
G75*
G02*
X11202000Y-22584001I0J249999D01*
G01*
X11202000Y-14283999D01*
G75*
G02*
X11451999Y-14034000I249999J0D01*
G01*
G37*
%TD*%
%TO.C,C18*%
G36*
G01*
X53549000Y-54106000D02*
X53549000Y-54606000D01*
G75*
G02*
X53324000Y-54831000I-225000J0D01*
G01*
X52874000Y-54831000D01*
G75*
G02*
X52649000Y-54606000I0J225000D01*
G01*
X52649000Y-54106000D01*
G75*
G02*
X52874000Y-53881000I225000J0D01*
G01*
X53324000Y-53881000D01*
G75*
G02*
X53549000Y-54106000I0J-225000D01*
G01*
G37*
G36*
G01*
X51999000Y-54106000D02*
X51999000Y-54606000D01*
G75*
G02*
X51774000Y-54831000I-225000J0D01*
G01*
X51324000Y-54831000D01*
G75*
G02*
X51099000Y-54606000I0J225000D01*
G01*
X51099000Y-54106000D01*
G75*
G02*
X51324000Y-53881000I225000J0D01*
G01*
X51774000Y-53881000D01*
G75*
G02*
X51999000Y-54106000I0J-225000D01*
G01*
G37*
%TD*%
%TO.C,C19*%
G36*
G01*
X35605000Y-34032000D02*
X35605000Y-33532000D01*
G75*
G02*
X35830000Y-33307000I225000J0D01*
G01*
X36280000Y-33307000D01*
G75*
G02*
X36505000Y-33532000I0J-225000D01*
G01*
X36505000Y-34032000D01*
G75*
G02*
X36280000Y-34257000I-225000J0D01*
G01*
X35830000Y-34257000D01*
G75*
G02*
X35605000Y-34032000I0J225000D01*
G01*
G37*
G36*
G01*
X37155000Y-34032000D02*
X37155000Y-33532000D01*
G75*
G02*
X37380000Y-33307000I225000J0D01*
G01*
X37830000Y-33307000D01*
G75*
G02*
X38055000Y-33532000I0J-225000D01*
G01*
X38055000Y-34032000D01*
G75*
G02*
X37830000Y-34257000I-225000J0D01*
G01*
X37380000Y-34257000D01*
G75*
G02*
X37155000Y-34032000I0J225000D01*
G01*
G37*
%TD*%
%TO.C,C20*%
G36*
G01*
X56638000Y-33229000D02*
X56138000Y-33229000D01*
G75*
G02*
X55913000Y-33004000I0J225000D01*
G01*
X55913000Y-32554000D01*
G75*
G02*
X56138000Y-32329000I225000J0D01*
G01*
X56638000Y-32329000D01*
G75*
G02*
X56863000Y-32554000I0J-225000D01*
G01*
X56863000Y-33004000D01*
G75*
G02*
X56638000Y-33229000I-225000J0D01*
G01*
G37*
G36*
G01*
X56638000Y-31679000D02*
X56138000Y-31679000D01*
G75*
G02*
X55913000Y-31454000I0J225000D01*
G01*
X55913000Y-31004000D01*
G75*
G02*
X56138000Y-30779000I225000J0D01*
G01*
X56638000Y-30779000D01*
G75*
G02*
X56863000Y-31004000I0J-225000D01*
G01*
X56863000Y-31454000D01*
G75*
G02*
X56638000Y-31679000I-225000J0D01*
G01*
G37*
%TD*%
%TO.C,C21*%
G36*
G01*
X43251000Y-35556000D02*
X43251000Y-35056000D01*
G75*
G02*
X43476000Y-34831000I225000J0D01*
G01*
X43926000Y-34831000D01*
G75*
G02*
X44151000Y-35056000I0J-225000D01*
G01*
X44151000Y-35556000D01*
G75*
G02*
X43926000Y-35781000I-225000J0D01*
G01*
X43476000Y-35781000D01*
G75*
G02*
X43251000Y-35556000I0J225000D01*
G01*
G37*
G36*
G01*
X41701000Y-35556000D02*
X41701000Y-35056000D01*
G75*
G02*
X41926000Y-34831000I225000J0D01*
G01*
X42376000Y-34831000D01*
G75*
G02*
X42601000Y-35056000I0J-225000D01*
G01*
X42601000Y-35556000D01*
G75*
G02*
X42376000Y-35781000I-225000J0D01*
G01*
X41926000Y-35781000D01*
G75*
G02*
X41701000Y-35556000I0J225000D01*
G01*
G37*
%TD*%
%TO.C,C22*%
G36*
G01*
X56638000Y-37267000D02*
X56138000Y-37267000D01*
G75*
G02*
X55913000Y-37042000I0J225000D01*
G01*
X55913000Y-36592000D01*
G75*
G02*
X56138000Y-36367000I225000J0D01*
G01*
X56638000Y-36367000D01*
G75*
G02*
X56863000Y-36592000I0J-225000D01*
G01*
X56863000Y-37042000D01*
G75*
G02*
X56638000Y-37267000I-225000J0D01*
G01*
G37*
G36*
G01*
X56638000Y-38817000D02*
X56138000Y-38817000D01*
G75*
G02*
X55913000Y-38592000I0J225000D01*
G01*
X55913000Y-38142000D01*
G75*
G02*
X56138000Y-37917000I225000J0D01*
G01*
X56638000Y-37917000D01*
G75*
G02*
X56863000Y-38142000I0J-225000D01*
G01*
X56863000Y-38592000D01*
G75*
G02*
X56638000Y-38817000I-225000J0D01*
G01*
G37*
%TD*%
%TO.C,C23*%
G36*
G01*
X40390000Y-29027000D02*
X40890000Y-29027000D01*
G75*
G02*
X41115000Y-29252000I0J-225000D01*
G01*
X41115000Y-29702000D01*
G75*
G02*
X40890000Y-29927000I-225000J0D01*
G01*
X40390000Y-29927000D01*
G75*
G02*
X40165000Y-29702000I0J225000D01*
G01*
X40165000Y-29252000D01*
G75*
G02*
X40390000Y-29027000I225000J0D01*
G01*
G37*
G36*
G01*
X40390000Y-27477000D02*
X40890000Y-27477000D01*
G75*
G02*
X41115000Y-27702000I0J-225000D01*
G01*
X41115000Y-28152000D01*
G75*
G02*
X40890000Y-28377000I-225000J0D01*
G01*
X40390000Y-28377000D01*
G75*
G02*
X40165000Y-28152000I0J225000D01*
G01*
X40165000Y-27702000D01*
G75*
G02*
X40390000Y-27477000I225000J0D01*
G01*
G37*
%TD*%
%TO.C,C24*%
G36*
G01*
X42763000Y-30127000D02*
X44613000Y-30127000D01*
G75*
G02*
X44863000Y-30377000I0J-250000D01*
G01*
X44863000Y-31952000D01*
G75*
G02*
X44613000Y-32202000I-250000J0D01*
G01*
X42763000Y-32202000D01*
G75*
G02*
X42513000Y-31952000I0J250000D01*
G01*
X42513000Y-30377000D01*
G75*
G02*
X42763000Y-30127000I250000J0D01*
G01*
G37*
G36*
G01*
X42763000Y-25202000D02*
X44613000Y-25202000D01*
G75*
G02*
X44863000Y-25452000I0J-250000D01*
G01*
X44863000Y-27027000D01*
G75*
G02*
X44613000Y-27277000I-250000J0D01*
G01*
X42763000Y-27277000D01*
G75*
G02*
X42513000Y-27027000I0J250000D01*
G01*
X42513000Y-25452000D01*
G75*
G02*
X42763000Y-25202000I250000J0D01*
G01*
G37*
%TD*%
%TO.C,C25*%
G36*
G01*
X56433000Y-35048000D02*
X56433000Y-34548000D01*
G75*
G02*
X56658000Y-34323000I225000J0D01*
G01*
X57108000Y-34323000D01*
G75*
G02*
X57333000Y-34548000I0J-225000D01*
G01*
X57333000Y-35048000D01*
G75*
G02*
X57108000Y-35273000I-225000J0D01*
G01*
X56658000Y-35273000D01*
G75*
G02*
X56433000Y-35048000I0J225000D01*
G01*
G37*
G36*
G01*
X57983000Y-35048000D02*
X57983000Y-34548000D01*
G75*
G02*
X58208000Y-34323000I225000J0D01*
G01*
X58658000Y-34323000D01*
G75*
G02*
X58883000Y-34548000I0J-225000D01*
G01*
X58883000Y-35048000D01*
G75*
G02*
X58658000Y-35273000I-225000J0D01*
G01*
X58208000Y-35273000D01*
G75*
G02*
X57983000Y-35048000I0J225000D01*
G01*
G37*
%TD*%
%TO.C,C26*%
G36*
G01*
X44151000Y-43438000D02*
X44151000Y-43938000D01*
G75*
G02*
X43926000Y-44163000I-225000J0D01*
G01*
X43476000Y-44163000D01*
G75*
G02*
X43251000Y-43938000I0J225000D01*
G01*
X43251000Y-43438000D01*
G75*
G02*
X43476000Y-43213000I225000J0D01*
G01*
X43926000Y-43213000D01*
G75*
G02*
X44151000Y-43438000I0J-225000D01*
G01*
G37*
G36*
G01*
X42601000Y-43438000D02*
X42601000Y-43938000D01*
G75*
G02*
X42376000Y-44163000I-225000J0D01*
G01*
X41926000Y-44163000D01*
G75*
G02*
X41701000Y-43938000I0J225000D01*
G01*
X41701000Y-43438000D01*
G75*
G02*
X41926000Y-43213000I225000J0D01*
G01*
X42376000Y-43213000D01*
G75*
G02*
X42601000Y-43438000I0J-225000D01*
G01*
G37*
%TD*%
%TO.C,C27*%
G36*
G01*
X56433000Y-43938000D02*
X56433000Y-43438000D01*
G75*
G02*
X56658000Y-43213000I225000J0D01*
G01*
X57108000Y-43213000D01*
G75*
G02*
X57333000Y-43438000I0J-225000D01*
G01*
X57333000Y-43938000D01*
G75*
G02*
X57108000Y-44163000I-225000J0D01*
G01*
X56658000Y-44163000D01*
G75*
G02*
X56433000Y-43938000I0J225000D01*
G01*
G37*
G36*
G01*
X57983000Y-43938000D02*
X57983000Y-43438000D01*
G75*
G02*
X58208000Y-43213000I225000J0D01*
G01*
X58658000Y-43213000D01*
G75*
G02*
X58883000Y-43438000I0J-225000D01*
G01*
X58883000Y-43938000D01*
G75*
G02*
X58658000Y-44163000I-225000J0D01*
G01*
X58208000Y-44163000D01*
G75*
G02*
X57983000Y-43938000I0J225000D01*
G01*
G37*
%TD*%
%TO.C,C28*%
G36*
G01*
X44151000Y-41914000D02*
X44151000Y-42414000D01*
G75*
G02*
X43926000Y-42639000I-225000J0D01*
G01*
X43476000Y-42639000D01*
G75*
G02*
X43251000Y-42414000I0J225000D01*
G01*
X43251000Y-41914000D01*
G75*
G02*
X43476000Y-41689000I225000J0D01*
G01*
X43926000Y-41689000D01*
G75*
G02*
X44151000Y-41914000I0J-225000D01*
G01*
G37*
G36*
G01*
X42601000Y-41914000D02*
X42601000Y-42414000D01*
G75*
G02*
X42376000Y-42639000I-225000J0D01*
G01*
X41926000Y-42639000D01*
G75*
G02*
X41701000Y-42414000I0J225000D01*
G01*
X41701000Y-41914000D01*
G75*
G02*
X41926000Y-41689000I225000J0D01*
G01*
X42376000Y-41689000D01*
G75*
G02*
X42601000Y-41914000I0J-225000D01*
G01*
G37*
%TD*%
%TO.C,C29*%
G36*
G01*
X42601000Y-40390000D02*
X42601000Y-40890000D01*
G75*
G02*
X42376000Y-41115000I-225000J0D01*
G01*
X41926000Y-41115000D01*
G75*
G02*
X41701000Y-40890000I0J225000D01*
G01*
X41701000Y-40390000D01*
G75*
G02*
X41926000Y-40165000I225000J0D01*
G01*
X42376000Y-40165000D01*
G75*
G02*
X42601000Y-40390000I0J-225000D01*
G01*
G37*
G36*
G01*
X44151000Y-40390000D02*
X44151000Y-40890000D01*
G75*
G02*
X43926000Y-41115000I-225000J0D01*
G01*
X43476000Y-41115000D01*
G75*
G02*
X43251000Y-40890000I0J225000D01*
G01*
X43251000Y-40390000D01*
G75*
G02*
X43476000Y-40165000I225000J0D01*
G01*
X43926000Y-40165000D01*
G75*
G02*
X44151000Y-40390000I0J-225000D01*
G01*
G37*
%TD*%
%TO.C,C30*%
G36*
G01*
X58745000Y-46478000D02*
X58745000Y-45978000D01*
G75*
G02*
X58970000Y-45753000I225000J0D01*
G01*
X59420000Y-45753000D01*
G75*
G02*
X59645000Y-45978000I0J-225000D01*
G01*
X59645000Y-46478000D01*
G75*
G02*
X59420000Y-46703000I-225000J0D01*
G01*
X58970000Y-46703000D01*
G75*
G02*
X58745000Y-46478000I0J225000D01*
G01*
G37*
G36*
G01*
X57195000Y-46478000D02*
X57195000Y-45978000D01*
G75*
G02*
X57420000Y-45753000I225000J0D01*
G01*
X57870000Y-45753000D01*
G75*
G02*
X58095000Y-45978000I0J-225000D01*
G01*
X58095000Y-46478000D01*
G75*
G02*
X57870000Y-46703000I-225000J0D01*
G01*
X57420000Y-46703000D01*
G75*
G02*
X57195000Y-46478000I0J225000D01*
G01*
G37*
%TD*%
%TO.C,C31*%
G36*
G01*
X42601000Y-48518000D02*
X42601000Y-49018000D01*
G75*
G02*
X42376000Y-49243000I-225000J0D01*
G01*
X41926000Y-49243000D01*
G75*
G02*
X41701000Y-49018000I0J225000D01*
G01*
X41701000Y-48518000D01*
G75*
G02*
X41926000Y-48293000I225000J0D01*
G01*
X42376000Y-48293000D01*
G75*
G02*
X42601000Y-48518000I0J-225000D01*
G01*
G37*
G36*
G01*
X44151000Y-48518000D02*
X44151000Y-49018000D01*
G75*
G02*
X43926000Y-49243000I-225000J0D01*
G01*
X43476000Y-49243000D01*
G75*
G02*
X43251000Y-49018000I0J225000D01*
G01*
X43251000Y-48518000D01*
G75*
G02*
X43476000Y-48293000I225000J0D01*
G01*
X43926000Y-48293000D01*
G75*
G02*
X44151000Y-48518000I0J-225000D01*
G01*
G37*
%TD*%
%TO.C,C32*%
G36*
G01*
X44151000Y-50042000D02*
X44151000Y-50542000D01*
G75*
G02*
X43926000Y-50767000I-225000J0D01*
G01*
X43476000Y-50767000D01*
G75*
G02*
X43251000Y-50542000I0J225000D01*
G01*
X43251000Y-50042000D01*
G75*
G02*
X43476000Y-49817000I225000J0D01*
G01*
X43926000Y-49817000D01*
G75*
G02*
X44151000Y-50042000I0J-225000D01*
G01*
G37*
G36*
G01*
X42601000Y-50042000D02*
X42601000Y-50542000D01*
G75*
G02*
X42376000Y-50767000I-225000J0D01*
G01*
X41926000Y-50767000D01*
G75*
G02*
X41701000Y-50542000I0J225000D01*
G01*
X41701000Y-50042000D01*
G75*
G02*
X41926000Y-49817000I225000J0D01*
G01*
X42376000Y-49817000D01*
G75*
G02*
X42601000Y-50042000I0J-225000D01*
G01*
G37*
%TD*%
%TO.C,C33*%
G36*
G01*
X57983000Y-50796000D02*
X57983000Y-50296000D01*
G75*
G02*
X58208000Y-50071000I225000J0D01*
G01*
X58658000Y-50071000D01*
G75*
G02*
X58883000Y-50296000I0J-225000D01*
G01*
X58883000Y-50796000D01*
G75*
G02*
X58658000Y-51021000I-225000J0D01*
G01*
X58208000Y-51021000D01*
G75*
G02*
X57983000Y-50796000I0J225000D01*
G01*
G37*
G36*
G01*
X56433000Y-50796000D02*
X56433000Y-50296000D01*
G75*
G02*
X56658000Y-50071000I225000J0D01*
G01*
X57108000Y-50071000D01*
G75*
G02*
X57333000Y-50296000I0J-225000D01*
G01*
X57333000Y-50796000D01*
G75*
G02*
X57108000Y-51021000I-225000J0D01*
G01*
X56658000Y-51021000D01*
G75*
G02*
X56433000Y-50796000I0J225000D01*
G01*
G37*
%TD*%
%TO.C,C34*%
G36*
G01*
X50845000Y-19808000D02*
X50845000Y-19308000D01*
G75*
G02*
X51070000Y-19083000I225000J0D01*
G01*
X51520000Y-19083000D01*
G75*
G02*
X51745000Y-19308000I0J-225000D01*
G01*
X51745000Y-19808000D01*
G75*
G02*
X51520000Y-20033000I-225000J0D01*
G01*
X51070000Y-20033000D01*
G75*
G02*
X50845000Y-19808000I0J225000D01*
G01*
G37*
G36*
G01*
X52395000Y-19808000D02*
X52395000Y-19308000D01*
G75*
G02*
X52620000Y-19083000I225000J0D01*
G01*
X53070000Y-19083000D01*
G75*
G02*
X53295000Y-19308000I0J-225000D01*
G01*
X53295000Y-19808000D01*
G75*
G02*
X53070000Y-20033000I-225000J0D01*
G01*
X52620000Y-20033000D01*
G75*
G02*
X52395000Y-19808000I0J225000D01*
G01*
G37*
%TD*%
%TO.C,C35*%
G36*
G01*
X48189000Y-19308000D02*
X48189000Y-19808000D01*
G75*
G02*
X47964000Y-20033000I-225000J0D01*
G01*
X47514000Y-20033000D01*
G75*
G02*
X47289000Y-19808000I0J225000D01*
G01*
X47289000Y-19308000D01*
G75*
G02*
X47514000Y-19083000I225000J0D01*
G01*
X47964000Y-19083000D01*
G75*
G02*
X48189000Y-19308000I0J-225000D01*
G01*
G37*
G36*
G01*
X49739000Y-19308000D02*
X49739000Y-19808000D01*
G75*
G02*
X49514000Y-20033000I-225000J0D01*
G01*
X49064000Y-20033000D01*
G75*
G02*
X48839000Y-19808000I0J225000D01*
G01*
X48839000Y-19308000D01*
G75*
G02*
X49064000Y-19083000I225000J0D01*
G01*
X49514000Y-19083000D01*
G75*
G02*
X49739000Y-19308000I0J-225000D01*
G01*
G37*
%TD*%
%TO.C,C36*%
G36*
G01*
X46792000Y-8545000D02*
X46792000Y-6695000D01*
G75*
G02*
X47042000Y-6445000I250000J0D01*
G01*
X48617000Y-6445000D01*
G75*
G02*
X48867000Y-6695000I0J-250000D01*
G01*
X48867000Y-8545000D01*
G75*
G02*
X48617000Y-8795000I-250000J0D01*
G01*
X47042000Y-8795000D01*
G75*
G02*
X46792000Y-8545000I0J250000D01*
G01*
G37*
G36*
G01*
X51717000Y-8545000D02*
X51717000Y-6695000D01*
G75*
G02*
X51967000Y-6445000I250000J0D01*
G01*
X53542000Y-6445000D01*
G75*
G02*
X53792000Y-6695000I0J-250000D01*
G01*
X53792000Y-8545000D01*
G75*
G02*
X53542000Y-8795000I-250000J0D01*
G01*
X51967000Y-8795000D01*
G75*
G02*
X51717000Y-8545000I0J250000D01*
G01*
G37*
%TD*%
%TO.C,C37*%
G36*
G01*
X23413000Y-25650000D02*
X23413000Y-25150000D01*
G75*
G02*
X23638000Y-24925000I225000J0D01*
G01*
X24088000Y-24925000D01*
G75*
G02*
X24313000Y-25150000I0J-225000D01*
G01*
X24313000Y-25650000D01*
G75*
G02*
X24088000Y-25875000I-225000J0D01*
G01*
X23638000Y-25875000D01*
G75*
G02*
X23413000Y-25650000I0J225000D01*
G01*
G37*
G36*
G01*
X24963000Y-25650000D02*
X24963000Y-25150000D01*
G75*
G02*
X25188000Y-24925000I225000J0D01*
G01*
X25638000Y-24925000D01*
G75*
G02*
X25863000Y-25150000I0J-225000D01*
G01*
X25863000Y-25650000D01*
G75*
G02*
X25638000Y-25875000I-225000J0D01*
G01*
X25188000Y-25875000D01*
G75*
G02*
X24963000Y-25650000I0J225000D01*
G01*
G37*
%TD*%
%TO.C,C38*%
G36*
G01*
X23413000Y-35556000D02*
X23413000Y-35056000D01*
G75*
G02*
X23638000Y-34831000I225000J0D01*
G01*
X24088000Y-34831000D01*
G75*
G02*
X24313000Y-35056000I0J-225000D01*
G01*
X24313000Y-35556000D01*
G75*
G02*
X24088000Y-35781000I-225000J0D01*
G01*
X23638000Y-35781000D01*
G75*
G02*
X23413000Y-35556000I0J225000D01*
G01*
G37*
G36*
G01*
X24963000Y-35556000D02*
X24963000Y-35056000D01*
G75*
G02*
X25188000Y-34831000I225000J0D01*
G01*
X25638000Y-34831000D01*
G75*
G02*
X25863000Y-35056000I0J-225000D01*
G01*
X25863000Y-35556000D01*
G75*
G02*
X25638000Y-35781000I-225000J0D01*
G01*
X25188000Y-35781000D01*
G75*
G02*
X24963000Y-35556000I0J225000D01*
G01*
G37*
%TD*%
%TO.C,C39*%
G36*
G01*
X24963000Y-45462000D02*
X24963000Y-44962000D01*
G75*
G02*
X25188000Y-44737000I225000J0D01*
G01*
X25638000Y-44737000D01*
G75*
G02*
X25863000Y-44962000I0J-225000D01*
G01*
X25863000Y-45462000D01*
G75*
G02*
X25638000Y-45687000I-225000J0D01*
G01*
X25188000Y-45687000D01*
G75*
G02*
X24963000Y-45462000I0J225000D01*
G01*
G37*
G36*
G01*
X23413000Y-45462000D02*
X23413000Y-44962000D01*
G75*
G02*
X23638000Y-44737000I225000J0D01*
G01*
X24088000Y-44737000D01*
G75*
G02*
X24313000Y-44962000I0J-225000D01*
G01*
X24313000Y-45462000D01*
G75*
G02*
X24088000Y-45687000I-225000J0D01*
G01*
X23638000Y-45687000D01*
G75*
G02*
X23413000Y-45462000I0J225000D01*
G01*
G37*
%TD*%
D13*
%TO.C,D1*%
X53212000Y-34798000D03*
X49912000Y-34798000D03*
%TD*%
D14*
%TO.C,D2*%
X48038000Y-22352000D03*
X52038000Y-22352000D03*
%TD*%
D15*
%TO.C,L1*%
X50292000Y-31502000D03*
X50292000Y-25902000D03*
%TD*%
D16*
%TO.C,P2*%
X84582000Y-17272000D03*
D11*
X82677000Y-15367000D03*
X84582000Y-15367000D03*
X86487000Y-15367000D03*
X82677000Y-17272000D03*
X84582000Y-17272000D03*
X86487000Y-17272000D03*
X82677000Y-19177000D03*
X84582000Y-19177000D03*
X86487000Y-19177000D03*
%TD*%
D16*
%TO.C,P3*%
X84582000Y-28702000D03*
D11*
X82677000Y-26797000D03*
X84582000Y-26797000D03*
X86487000Y-26797000D03*
X82677000Y-28702000D03*
X84582000Y-28702000D03*
X86487000Y-28702000D03*
X82677000Y-30607000D03*
X84582000Y-30607000D03*
X86487000Y-30607000D03*
%TD*%
%TO.C,P4*%
X86487000Y-42037000D03*
X84582000Y-42037000D03*
X82677000Y-42037000D03*
X86487000Y-40132000D03*
X84582000Y-40132000D03*
X82677000Y-40132000D03*
X86487000Y-38227000D03*
X84582000Y-38227000D03*
X82677000Y-38227000D03*
D16*
X84582000Y-40132000D03*
%TD*%
D17*
%TO.C,Q7*%
X38116000Y-53452000D03*
X38116000Y-54752000D03*
X40116000Y-54102000D03*
%TD*%
%TO.C,R1*%
G36*
G01*
X67901000Y-12679000D02*
X67901000Y-13229000D01*
G75*
G02*
X67701000Y-13429000I-200000J0D01*
G01*
X67301000Y-13429000D01*
G75*
G02*
X67101000Y-13229000I0J200000D01*
G01*
X67101000Y-12679000D01*
G75*
G02*
X67301000Y-12479000I200000J0D01*
G01*
X67701000Y-12479000D01*
G75*
G02*
X67901000Y-12679000I0J-200000D01*
G01*
G37*
G36*
G01*
X69551000Y-12679000D02*
X69551000Y-13229000D01*
G75*
G02*
X69351000Y-13429000I-200000J0D01*
G01*
X68951000Y-13429000D01*
G75*
G02*
X68751000Y-13229000I0J200000D01*
G01*
X68751000Y-12679000D01*
G75*
G02*
X68951000Y-12479000I200000J0D01*
G01*
X69351000Y-12479000D01*
G75*
G02*
X69551000Y-12679000I0J-200000D01*
G01*
G37*
%TD*%
%TO.C,R2*%
G36*
G01*
X67901000Y-24109000D02*
X67901000Y-24659000D01*
G75*
G02*
X67701000Y-24859000I-200000J0D01*
G01*
X67301000Y-24859000D01*
G75*
G02*
X67101000Y-24659000I0J200000D01*
G01*
X67101000Y-24109000D01*
G75*
G02*
X67301000Y-23909000I200000J0D01*
G01*
X67701000Y-23909000D01*
G75*
G02*
X67901000Y-24109000I0J-200000D01*
G01*
G37*
G36*
G01*
X69551000Y-24109000D02*
X69551000Y-24659000D01*
G75*
G02*
X69351000Y-24859000I-200000J0D01*
G01*
X68951000Y-24859000D01*
G75*
G02*
X68751000Y-24659000I0J200000D01*
G01*
X68751000Y-24109000D01*
G75*
G02*
X68951000Y-23909000I200000J0D01*
G01*
X69351000Y-23909000D01*
G75*
G02*
X69551000Y-24109000I0J-200000D01*
G01*
G37*
%TD*%
%TO.C,R7*%
G36*
G01*
X69551000Y-14965000D02*
X69551000Y-15515000D01*
G75*
G02*
X69351000Y-15715000I-200000J0D01*
G01*
X68951000Y-15715000D01*
G75*
G02*
X68751000Y-15515000I0J200000D01*
G01*
X68751000Y-14965000D01*
G75*
G02*
X68951000Y-14765000I200000J0D01*
G01*
X69351000Y-14765000D01*
G75*
G02*
X69551000Y-14965000I0J-200000D01*
G01*
G37*
G36*
G01*
X67901000Y-14965000D02*
X67901000Y-15515000D01*
G75*
G02*
X67701000Y-15715000I-200000J0D01*
G01*
X67301000Y-15715000D01*
G75*
G02*
X67101000Y-15515000I0J200000D01*
G01*
X67101000Y-14965000D01*
G75*
G02*
X67301000Y-14765000I200000J0D01*
G01*
X67701000Y-14765000D01*
G75*
G02*
X67901000Y-14965000I0J-200000D01*
G01*
G37*
%TD*%
%TO.C,R8*%
G36*
G01*
X69551000Y-26395000D02*
X69551000Y-26945000D01*
G75*
G02*
X69351000Y-27145000I-200000J0D01*
G01*
X68951000Y-27145000D01*
G75*
G02*
X68751000Y-26945000I0J200000D01*
G01*
X68751000Y-26395000D01*
G75*
G02*
X68951000Y-26195000I200000J0D01*
G01*
X69351000Y-26195000D01*
G75*
G02*
X69551000Y-26395000I0J-200000D01*
G01*
G37*
G36*
G01*
X67901000Y-26395000D02*
X67901000Y-26945000D01*
G75*
G02*
X67701000Y-27145000I-200000J0D01*
G01*
X67301000Y-27145000D01*
G75*
G02*
X67101000Y-26945000I0J200000D01*
G01*
X67101000Y-26395000D01*
G75*
G02*
X67301000Y-26195000I200000J0D01*
G01*
X67701000Y-26195000D01*
G75*
G02*
X67901000Y-26395000I0J-200000D01*
G01*
G37*
%TD*%
%TO.C,R10*%
G36*
G01*
X31959000Y-25125000D02*
X31959000Y-25675000D01*
G75*
G02*
X31759000Y-25875000I-200000J0D01*
G01*
X31359000Y-25875000D01*
G75*
G02*
X31159000Y-25675000I0J200000D01*
G01*
X31159000Y-25125000D01*
G75*
G02*
X31359000Y-24925000I200000J0D01*
G01*
X31759000Y-24925000D01*
G75*
G02*
X31959000Y-25125000I0J-200000D01*
G01*
G37*
G36*
G01*
X30309000Y-25125000D02*
X30309000Y-25675000D01*
G75*
G02*
X30109000Y-25875000I-200000J0D01*
G01*
X29709000Y-25875000D01*
G75*
G02*
X29509000Y-25675000I0J200000D01*
G01*
X29509000Y-25125000D01*
G75*
G02*
X29709000Y-24925000I200000J0D01*
G01*
X30109000Y-24925000D01*
G75*
G02*
X30309000Y-25125000I0J-200000D01*
G01*
G37*
%TD*%
%TO.C,R11*%
G36*
G01*
X30309000Y-35031000D02*
X30309000Y-35581000D01*
G75*
G02*
X30109000Y-35781000I-200000J0D01*
G01*
X29709000Y-35781000D01*
G75*
G02*
X29509000Y-35581000I0J200000D01*
G01*
X29509000Y-35031000D01*
G75*
G02*
X29709000Y-34831000I200000J0D01*
G01*
X30109000Y-34831000D01*
G75*
G02*
X30309000Y-35031000I0J-200000D01*
G01*
G37*
G36*
G01*
X31959000Y-35031000D02*
X31959000Y-35581000D01*
G75*
G02*
X31759000Y-35781000I-200000J0D01*
G01*
X31359000Y-35781000D01*
G75*
G02*
X31159000Y-35581000I0J200000D01*
G01*
X31159000Y-35031000D01*
G75*
G02*
X31359000Y-34831000I200000J0D01*
G01*
X31759000Y-34831000D01*
G75*
G02*
X31959000Y-35031000I0J-200000D01*
G01*
G37*
%TD*%
%TO.C,R12*%
G36*
G01*
X31959000Y-44937000D02*
X31959000Y-45487000D01*
G75*
G02*
X31759000Y-45687000I-200000J0D01*
G01*
X31359000Y-45687000D01*
G75*
G02*
X31159000Y-45487000I0J200000D01*
G01*
X31159000Y-44937000D01*
G75*
G02*
X31359000Y-44737000I200000J0D01*
G01*
X31759000Y-44737000D01*
G75*
G02*
X31959000Y-44937000I0J-200000D01*
G01*
G37*
G36*
G01*
X30309000Y-44937000D02*
X30309000Y-45487000D01*
G75*
G02*
X30109000Y-45687000I-200000J0D01*
G01*
X29709000Y-45687000D01*
G75*
G02*
X29509000Y-45487000I0J200000D01*
G01*
X29509000Y-44937000D01*
G75*
G02*
X29709000Y-44737000I200000J0D01*
G01*
X30109000Y-44737000D01*
G75*
G02*
X30309000Y-44937000I0J-200000D01*
G01*
G37*
%TD*%
%TO.C,R13*%
G36*
G01*
X51099000Y-53107000D02*
X51099000Y-52557000D01*
G75*
G02*
X51299000Y-52357000I200000J0D01*
G01*
X51699000Y-52357000D01*
G75*
G02*
X51899000Y-52557000I0J-200000D01*
G01*
X51899000Y-53107000D01*
G75*
G02*
X51699000Y-53307000I-200000J0D01*
G01*
X51299000Y-53307000D01*
G75*
G02*
X51099000Y-53107000I0J200000D01*
G01*
G37*
G36*
G01*
X52749000Y-53107000D02*
X52749000Y-52557000D01*
G75*
G02*
X52949000Y-52357000I200000J0D01*
G01*
X53349000Y-52357000D01*
G75*
G02*
X53549000Y-52557000I0J-200000D01*
G01*
X53549000Y-53107000D01*
G75*
G02*
X53349000Y-53307000I-200000J0D01*
G01*
X52949000Y-53307000D01*
G75*
G02*
X52749000Y-53107000I0J200000D01*
G01*
G37*
%TD*%
%TO.C,R14*%
G36*
G01*
X53549000Y-55605000D02*
X53549000Y-56155000D01*
G75*
G02*
X53349000Y-56355000I-200000J0D01*
G01*
X52949000Y-56355000D01*
G75*
G02*
X52749000Y-56155000I0J200000D01*
G01*
X52749000Y-55605000D01*
G75*
G02*
X52949000Y-55405000I200000J0D01*
G01*
X53349000Y-55405000D01*
G75*
G02*
X53549000Y-55605000I0J-200000D01*
G01*
G37*
G36*
G01*
X51899000Y-55605000D02*
X51899000Y-56155000D01*
G75*
G02*
X51699000Y-56355000I-200000J0D01*
G01*
X51299000Y-56355000D01*
G75*
G02*
X51099000Y-56155000I0J200000D01*
G01*
X51099000Y-55605000D01*
G75*
G02*
X51299000Y-55405000I200000J0D01*
G01*
X51699000Y-55405000D01*
G75*
G02*
X51899000Y-55605000I0J-200000D01*
G01*
G37*
%TD*%
%TO.C,R15*%
G36*
G01*
X37255000Y-37105000D02*
X37255000Y-36555000D01*
G75*
G02*
X37455000Y-36355000I200000J0D01*
G01*
X37855000Y-36355000D01*
G75*
G02*
X38055000Y-36555000I0J-200000D01*
G01*
X38055000Y-37105000D01*
G75*
G02*
X37855000Y-37305000I-200000J0D01*
G01*
X37455000Y-37305000D01*
G75*
G02*
X37255000Y-37105000I0J200000D01*
G01*
G37*
G36*
G01*
X35605000Y-37105000D02*
X35605000Y-36555000D01*
G75*
G02*
X35805000Y-36355000I200000J0D01*
G01*
X36205000Y-36355000D01*
G75*
G02*
X36405000Y-36555000I0J-200000D01*
G01*
X36405000Y-37105000D01*
G75*
G02*
X36205000Y-37305000I-200000J0D01*
G01*
X35805000Y-37305000D01*
G75*
G02*
X35605000Y-37105000I0J200000D01*
G01*
G37*
%TD*%
%TO.C,R16*%
G36*
G01*
X43351000Y-34057000D02*
X43351000Y-33507000D01*
G75*
G02*
X43551000Y-33307000I200000J0D01*
G01*
X43951000Y-33307000D01*
G75*
G02*
X44151000Y-33507000I0J-200000D01*
G01*
X44151000Y-34057000D01*
G75*
G02*
X43951000Y-34257000I-200000J0D01*
G01*
X43551000Y-34257000D01*
G75*
G02*
X43351000Y-34057000I0J200000D01*
G01*
G37*
G36*
G01*
X41701000Y-34057000D02*
X41701000Y-33507000D01*
G75*
G02*
X41901000Y-33307000I200000J0D01*
G01*
X42301000Y-33307000D01*
G75*
G02*
X42501000Y-33507000I0J-200000D01*
G01*
X42501000Y-34057000D01*
G75*
G02*
X42301000Y-34257000I-200000J0D01*
G01*
X41901000Y-34257000D01*
G75*
G02*
X41701000Y-34057000I0J200000D01*
G01*
G37*
%TD*%
%TO.C,R17*%
G36*
G01*
X38055000Y-35031000D02*
X38055000Y-35581000D01*
G75*
G02*
X37855000Y-35781000I-200000J0D01*
G01*
X37455000Y-35781000D01*
G75*
G02*
X37255000Y-35581000I0J200000D01*
G01*
X37255000Y-35031000D01*
G75*
G02*
X37455000Y-34831000I200000J0D01*
G01*
X37855000Y-34831000D01*
G75*
G02*
X38055000Y-35031000I0J-200000D01*
G01*
G37*
G36*
G01*
X36405000Y-35031000D02*
X36405000Y-35581000D01*
G75*
G02*
X36205000Y-35781000I-200000J0D01*
G01*
X35805000Y-35781000D01*
G75*
G02*
X35605000Y-35581000I0J200000D01*
G01*
X35605000Y-35031000D01*
G75*
G02*
X35805000Y-34831000I200000J0D01*
G01*
X36205000Y-34831000D01*
G75*
G02*
X36405000Y-35031000I0J-200000D01*
G01*
G37*
%TD*%
%TO.C,R18*%
G36*
G01*
X43351000Y-37105000D02*
X43351000Y-36555000D01*
G75*
G02*
X43551000Y-36355000I200000J0D01*
G01*
X43951000Y-36355000D01*
G75*
G02*
X44151000Y-36555000I0J-200000D01*
G01*
X44151000Y-37105000D01*
G75*
G02*
X43951000Y-37305000I-200000J0D01*
G01*
X43551000Y-37305000D01*
G75*
G02*
X43351000Y-37105000I0J200000D01*
G01*
G37*
G36*
G01*
X41701000Y-37105000D02*
X41701000Y-36555000D01*
G75*
G02*
X41901000Y-36355000I200000J0D01*
G01*
X42301000Y-36355000D01*
G75*
G02*
X42501000Y-36555000I0J-200000D01*
G01*
X42501000Y-37105000D01*
G75*
G02*
X42301000Y-37305000I-200000J0D01*
G01*
X41901000Y-37305000D01*
G75*
G02*
X41701000Y-37105000I0J200000D01*
G01*
G37*
%TD*%
%TO.C,R19*%
G36*
G01*
X44151000Y-54589000D02*
X44151000Y-55139000D01*
G75*
G02*
X43951000Y-55339000I-200000J0D01*
G01*
X43551000Y-55339000D01*
G75*
G02*
X43351000Y-55139000I0J200000D01*
G01*
X43351000Y-54589000D01*
G75*
G02*
X43551000Y-54389000I200000J0D01*
G01*
X43951000Y-54389000D01*
G75*
G02*
X44151000Y-54589000I0J-200000D01*
G01*
G37*
G36*
G01*
X42501000Y-54589000D02*
X42501000Y-55139000D01*
G75*
G02*
X42301000Y-55339000I-200000J0D01*
G01*
X41901000Y-55339000D01*
G75*
G02*
X41701000Y-55139000I0J200000D01*
G01*
X41701000Y-54589000D01*
G75*
G02*
X41901000Y-54389000I200000J0D01*
G01*
X42301000Y-54389000D01*
G75*
G02*
X42501000Y-54589000I0J-200000D01*
G01*
G37*
%TD*%
%TO.C,R20*%
G36*
G01*
X44151000Y-38841000D02*
X44151000Y-39391000D01*
G75*
G02*
X43951000Y-39591000I-200000J0D01*
G01*
X43551000Y-39591000D01*
G75*
G02*
X43351000Y-39391000I0J200000D01*
G01*
X43351000Y-38841000D01*
G75*
G02*
X43551000Y-38641000I200000J0D01*
G01*
X43951000Y-38641000D01*
G75*
G02*
X44151000Y-38841000I0J-200000D01*
G01*
G37*
G36*
G01*
X42501000Y-38841000D02*
X42501000Y-39391000D01*
G75*
G02*
X42301000Y-39591000I-200000J0D01*
G01*
X41901000Y-39591000D01*
G75*
G02*
X41701000Y-39391000I0J200000D01*
G01*
X41701000Y-38841000D01*
G75*
G02*
X41901000Y-38641000I200000J0D01*
G01*
X42301000Y-38641000D01*
G75*
G02*
X42501000Y-38841000I0J-200000D01*
G01*
G37*
%TD*%
%TO.C,R21*%
G36*
G01*
X35605000Y-39391000D02*
X35605000Y-38841000D01*
G75*
G02*
X35805000Y-38641000I200000J0D01*
G01*
X36205000Y-38641000D01*
G75*
G02*
X36405000Y-38841000I0J-200000D01*
G01*
X36405000Y-39391000D01*
G75*
G02*
X36205000Y-39591000I-200000J0D01*
G01*
X35805000Y-39591000D01*
G75*
G02*
X35605000Y-39391000I0J200000D01*
G01*
G37*
G36*
G01*
X37255000Y-39391000D02*
X37255000Y-38841000D01*
G75*
G02*
X37455000Y-38641000I200000J0D01*
G01*
X37855000Y-38641000D01*
G75*
G02*
X38055000Y-38841000I0J-200000D01*
G01*
X38055000Y-39391000D01*
G75*
G02*
X37855000Y-39591000I-200000J0D01*
G01*
X37455000Y-39591000D01*
G75*
G02*
X37255000Y-39391000I0J200000D01*
G01*
G37*
%TD*%
%TO.C,R22*%
G36*
G01*
X43351000Y-53615000D02*
X43351000Y-53065000D01*
G75*
G02*
X43551000Y-52865000I200000J0D01*
G01*
X43951000Y-52865000D01*
G75*
G02*
X44151000Y-53065000I0J-200000D01*
G01*
X44151000Y-53615000D01*
G75*
G02*
X43951000Y-53815000I-200000J0D01*
G01*
X43551000Y-53815000D01*
G75*
G02*
X43351000Y-53615000I0J200000D01*
G01*
G37*
G36*
G01*
X41701000Y-53615000D02*
X41701000Y-53065000D01*
G75*
G02*
X41901000Y-52865000I200000J0D01*
G01*
X42301000Y-52865000D01*
G75*
G02*
X42501000Y-53065000I0J-200000D01*
G01*
X42501000Y-53615000D01*
G75*
G02*
X42301000Y-53815000I-200000J0D01*
G01*
X41901000Y-53815000D01*
G75*
G02*
X41701000Y-53615000I0J200000D01*
G01*
G37*
%TD*%
%TO.C,R23*%
G36*
G01*
X24213000Y-33507000D02*
X24213000Y-34057000D01*
G75*
G02*
X24013000Y-34257000I-200000J0D01*
G01*
X23613000Y-34257000D01*
G75*
G02*
X23413000Y-34057000I0J200000D01*
G01*
X23413000Y-33507000D01*
G75*
G02*
X23613000Y-33307000I200000J0D01*
G01*
X24013000Y-33307000D01*
G75*
G02*
X24213000Y-33507000I0J-200000D01*
G01*
G37*
G36*
G01*
X25863000Y-33507000D02*
X25863000Y-34057000D01*
G75*
G02*
X25663000Y-34257000I-200000J0D01*
G01*
X25263000Y-34257000D01*
G75*
G02*
X25063000Y-34057000I0J200000D01*
G01*
X25063000Y-33507000D01*
G75*
G02*
X25263000Y-33307000I200000J0D01*
G01*
X25663000Y-33307000D01*
G75*
G02*
X25863000Y-33507000I0J-200000D01*
G01*
G37*
%TD*%
%TO.C,R24*%
G36*
G01*
X25863000Y-31983000D02*
X25863000Y-32533000D01*
G75*
G02*
X25663000Y-32733000I-200000J0D01*
G01*
X25263000Y-32733000D01*
G75*
G02*
X25063000Y-32533000I0J200000D01*
G01*
X25063000Y-31983000D01*
G75*
G02*
X25263000Y-31783000I200000J0D01*
G01*
X25663000Y-31783000D01*
G75*
G02*
X25863000Y-31983000I0J-200000D01*
G01*
G37*
G36*
G01*
X24213000Y-31983000D02*
X24213000Y-32533000D01*
G75*
G02*
X24013000Y-32733000I-200000J0D01*
G01*
X23613000Y-32733000D01*
G75*
G02*
X23413000Y-32533000I0J200000D01*
G01*
X23413000Y-31983000D01*
G75*
G02*
X23613000Y-31783000I200000J0D01*
G01*
X24013000Y-31783000D01*
G75*
G02*
X24213000Y-31983000I0J-200000D01*
G01*
G37*
%TD*%
%TO.C,R25*%
G36*
G01*
X24213000Y-43413000D02*
X24213000Y-43963000D01*
G75*
G02*
X24013000Y-44163000I-200000J0D01*
G01*
X23613000Y-44163000D01*
G75*
G02*
X23413000Y-43963000I0J200000D01*
G01*
X23413000Y-43413000D01*
G75*
G02*
X23613000Y-43213000I200000J0D01*
G01*
X24013000Y-43213000D01*
G75*
G02*
X24213000Y-43413000I0J-200000D01*
G01*
G37*
G36*
G01*
X25863000Y-43413000D02*
X25863000Y-43963000D01*
G75*
G02*
X25663000Y-44163000I-200000J0D01*
G01*
X25263000Y-44163000D01*
G75*
G02*
X25063000Y-43963000I0J200000D01*
G01*
X25063000Y-43413000D01*
G75*
G02*
X25263000Y-43213000I200000J0D01*
G01*
X25663000Y-43213000D01*
G75*
G02*
X25863000Y-43413000I0J-200000D01*
G01*
G37*
%TD*%
%TO.C,R26*%
G36*
G01*
X24213000Y-41889000D02*
X24213000Y-42439000D01*
G75*
G02*
X24013000Y-42639000I-200000J0D01*
G01*
X23613000Y-42639000D01*
G75*
G02*
X23413000Y-42439000I0J200000D01*
G01*
X23413000Y-41889000D01*
G75*
G02*
X23613000Y-41689000I200000J0D01*
G01*
X24013000Y-41689000D01*
G75*
G02*
X24213000Y-41889000I0J-200000D01*
G01*
G37*
G36*
G01*
X25863000Y-41889000D02*
X25863000Y-42439000D01*
G75*
G02*
X25663000Y-42639000I-200000J0D01*
G01*
X25263000Y-42639000D01*
G75*
G02*
X25063000Y-42439000I0J200000D01*
G01*
X25063000Y-41889000D01*
G75*
G02*
X25263000Y-41689000I200000J0D01*
G01*
X25663000Y-41689000D01*
G75*
G02*
X25863000Y-41889000I0J-200000D01*
G01*
G37*
%TD*%
%TO.C,R27*%
G36*
G01*
X24213000Y-53827000D02*
X24213000Y-54377000D01*
G75*
G02*
X24013000Y-54577000I-200000J0D01*
G01*
X23613000Y-54577000D01*
G75*
G02*
X23413000Y-54377000I0J200000D01*
G01*
X23413000Y-53827000D01*
G75*
G02*
X23613000Y-53627000I200000J0D01*
G01*
X24013000Y-53627000D01*
G75*
G02*
X24213000Y-53827000I0J-200000D01*
G01*
G37*
G36*
G01*
X25863000Y-53827000D02*
X25863000Y-54377000D01*
G75*
G02*
X25663000Y-54577000I-200000J0D01*
G01*
X25263000Y-54577000D01*
G75*
G02*
X25063000Y-54377000I0J200000D01*
G01*
X25063000Y-53827000D01*
G75*
G02*
X25263000Y-53627000I200000J0D01*
G01*
X25663000Y-53627000D01*
G75*
G02*
X25863000Y-53827000I0J-200000D01*
G01*
G37*
%TD*%
%TO.C,R28*%
G36*
G01*
X25863000Y-52303000D02*
X25863000Y-52853000D01*
G75*
G02*
X25663000Y-53053000I-200000J0D01*
G01*
X25263000Y-53053000D01*
G75*
G02*
X25063000Y-52853000I0J200000D01*
G01*
X25063000Y-52303000D01*
G75*
G02*
X25263000Y-52103000I200000J0D01*
G01*
X25663000Y-52103000D01*
G75*
G02*
X25863000Y-52303000I0J-200000D01*
G01*
G37*
G36*
G01*
X24213000Y-52303000D02*
X24213000Y-52853000D01*
G75*
G02*
X24013000Y-53053000I-200000J0D01*
G01*
X23613000Y-53053000D01*
G75*
G02*
X23413000Y-52853000I0J200000D01*
G01*
X23413000Y-52303000D01*
G75*
G02*
X23613000Y-52103000I200000J0D01*
G01*
X24013000Y-52103000D01*
G75*
G02*
X24213000Y-52303000I0J-200000D01*
G01*
G37*
%TD*%
%TO.C,U1*%
G36*
G01*
X67026000Y-19417000D02*
X67026000Y-19617000D01*
G75*
G02*
X66926000Y-19717000I-100000J0D01*
G01*
X65501000Y-19717000D01*
G75*
G02*
X65401000Y-19617000I0J100000D01*
G01*
X65401000Y-19417000D01*
G75*
G02*
X65501000Y-19317000I100000J0D01*
G01*
X66926000Y-19317000D01*
G75*
G02*
X67026000Y-19417000I0J-100000D01*
G01*
G37*
G36*
G01*
X67026000Y-18767000D02*
X67026000Y-18967000D01*
G75*
G02*
X66926000Y-19067000I-100000J0D01*
G01*
X65501000Y-19067000D01*
G75*
G02*
X65401000Y-18967000I0J100000D01*
G01*
X65401000Y-18767000D01*
G75*
G02*
X65501000Y-18667000I100000J0D01*
G01*
X66926000Y-18667000D01*
G75*
G02*
X67026000Y-18767000I0J-100000D01*
G01*
G37*
G36*
G01*
X67026000Y-18117000D02*
X67026000Y-18317000D01*
G75*
G02*
X66926000Y-18417000I-100000J0D01*
G01*
X65501000Y-18417000D01*
G75*
G02*
X65401000Y-18317000I0J100000D01*
G01*
X65401000Y-18117000D01*
G75*
G02*
X65501000Y-18017000I100000J0D01*
G01*
X66926000Y-18017000D01*
G75*
G02*
X67026000Y-18117000I0J-100000D01*
G01*
G37*
G36*
G01*
X67026000Y-17467000D02*
X67026000Y-17667000D01*
G75*
G02*
X66926000Y-17767000I-100000J0D01*
G01*
X65501000Y-17767000D01*
G75*
G02*
X65401000Y-17667000I0J100000D01*
G01*
X65401000Y-17467000D01*
G75*
G02*
X65501000Y-17367000I100000J0D01*
G01*
X66926000Y-17367000D01*
G75*
G02*
X67026000Y-17467000I0J-100000D01*
G01*
G37*
G36*
G01*
X71251000Y-17467000D02*
X71251000Y-17667000D01*
G75*
G02*
X71151000Y-17767000I-100000J0D01*
G01*
X69726000Y-17767000D01*
G75*
G02*
X69626000Y-17667000I0J100000D01*
G01*
X69626000Y-17467000D01*
G75*
G02*
X69726000Y-17367000I100000J0D01*
G01*
X71151000Y-17367000D01*
G75*
G02*
X71251000Y-17467000I0J-100000D01*
G01*
G37*
G36*
G01*
X71251000Y-18117000D02*
X71251000Y-18317000D01*
G75*
G02*
X71151000Y-18417000I-100000J0D01*
G01*
X69726000Y-18417000D01*
G75*
G02*
X69626000Y-18317000I0J100000D01*
G01*
X69626000Y-18117000D01*
G75*
G02*
X69726000Y-18017000I100000J0D01*
G01*
X71151000Y-18017000D01*
G75*
G02*
X71251000Y-18117000I0J-100000D01*
G01*
G37*
G36*
G01*
X71251000Y-18767000D02*
X71251000Y-18967000D01*
G75*
G02*
X71151000Y-19067000I-100000J0D01*
G01*
X69726000Y-19067000D01*
G75*
G02*
X69626000Y-18967000I0J100000D01*
G01*
X69626000Y-18767000D01*
G75*
G02*
X69726000Y-18667000I100000J0D01*
G01*
X71151000Y-18667000D01*
G75*
G02*
X71251000Y-18767000I0J-100000D01*
G01*
G37*
G36*
G01*
X71251000Y-19417000D02*
X71251000Y-19617000D01*
G75*
G02*
X71151000Y-19717000I-100000J0D01*
G01*
X69726000Y-19717000D01*
G75*
G02*
X69626000Y-19617000I0J100000D01*
G01*
X69626000Y-19417000D01*
G75*
G02*
X69726000Y-19317000I100000J0D01*
G01*
X71151000Y-19317000D01*
G75*
G02*
X71251000Y-19417000I0J-100000D01*
G01*
G37*
%TD*%
%TO.C,U2*%
G36*
G01*
X71251000Y-30847000D02*
X71251000Y-31047000D01*
G75*
G02*
X71151000Y-31147000I-100000J0D01*
G01*
X69726000Y-31147000D01*
G75*
G02*
X69626000Y-31047000I0J100000D01*
G01*
X69626000Y-30847000D01*
G75*
G02*
X69726000Y-30747000I100000J0D01*
G01*
X71151000Y-30747000D01*
G75*
G02*
X71251000Y-30847000I0J-100000D01*
G01*
G37*
G36*
G01*
X71251000Y-30197000D02*
X71251000Y-30397000D01*
G75*
G02*
X71151000Y-30497000I-100000J0D01*
G01*
X69726000Y-30497000D01*
G75*
G02*
X69626000Y-30397000I0J100000D01*
G01*
X69626000Y-30197000D01*
G75*
G02*
X69726000Y-30097000I100000J0D01*
G01*
X71151000Y-30097000D01*
G75*
G02*
X71251000Y-30197000I0J-100000D01*
G01*
G37*
G36*
G01*
X71251000Y-29547000D02*
X71251000Y-29747000D01*
G75*
G02*
X71151000Y-29847000I-100000J0D01*
G01*
X69726000Y-29847000D01*
G75*
G02*
X69626000Y-29747000I0J100000D01*
G01*
X69626000Y-29547000D01*
G75*
G02*
X69726000Y-29447000I100000J0D01*
G01*
X71151000Y-29447000D01*
G75*
G02*
X71251000Y-29547000I0J-100000D01*
G01*
G37*
G36*
G01*
X71251000Y-28897000D02*
X71251000Y-29097000D01*
G75*
G02*
X71151000Y-29197000I-100000J0D01*
G01*
X69726000Y-29197000D01*
G75*
G02*
X69626000Y-29097000I0J100000D01*
G01*
X69626000Y-28897000D01*
G75*
G02*
X69726000Y-28797000I100000J0D01*
G01*
X71151000Y-28797000D01*
G75*
G02*
X71251000Y-28897000I0J-100000D01*
G01*
G37*
G36*
G01*
X67026000Y-28897000D02*
X67026000Y-29097000D01*
G75*
G02*
X66926000Y-29197000I-100000J0D01*
G01*
X65501000Y-29197000D01*
G75*
G02*
X65401000Y-29097000I0J100000D01*
G01*
X65401000Y-28897000D01*
G75*
G02*
X65501000Y-28797000I100000J0D01*
G01*
X66926000Y-28797000D01*
G75*
G02*
X67026000Y-28897000I0J-100000D01*
G01*
G37*
G36*
G01*
X67026000Y-29547000D02*
X67026000Y-29747000D01*
G75*
G02*
X66926000Y-29847000I-100000J0D01*
G01*
X65501000Y-29847000D01*
G75*
G02*
X65401000Y-29747000I0J100000D01*
G01*
X65401000Y-29547000D01*
G75*
G02*
X65501000Y-29447000I100000J0D01*
G01*
X66926000Y-29447000D01*
G75*
G02*
X67026000Y-29547000I0J-100000D01*
G01*
G37*
G36*
G01*
X67026000Y-30197000D02*
X67026000Y-30397000D01*
G75*
G02*
X66926000Y-30497000I-100000J0D01*
G01*
X65501000Y-30497000D01*
G75*
G02*
X65401000Y-30397000I0J100000D01*
G01*
X65401000Y-30197000D01*
G75*
G02*
X65501000Y-30097000I100000J0D01*
G01*
X66926000Y-30097000D01*
G75*
G02*
X67026000Y-30197000I0J-100000D01*
G01*
G37*
G36*
G01*
X67026000Y-30847000D02*
X67026000Y-31047000D01*
G75*
G02*
X66926000Y-31147000I-100000J0D01*
G01*
X65501000Y-31147000D01*
G75*
G02*
X65401000Y-31047000I0J100000D01*
G01*
X65401000Y-30847000D01*
G75*
G02*
X65501000Y-30747000I100000J0D01*
G01*
X66926000Y-30747000D01*
G75*
G02*
X67026000Y-30847000I0J-100000D01*
G01*
G37*
%TD*%
D18*
%TO.C,U4*%
X32035750Y-28513999D03*
X32035750Y-30414001D03*
X29432250Y-30414001D03*
X29432250Y-29464000D03*
X29432250Y-28513999D03*
%TD*%
%TO.C,U5*%
X29432250Y-38419999D03*
X29432250Y-39370000D03*
X29432250Y-40320001D03*
X32035750Y-40320001D03*
X32035750Y-38419999D03*
%TD*%
%TO.C,U6*%
X32035750Y-48833999D03*
X32035750Y-50734001D03*
X29432250Y-50734001D03*
X29432250Y-49784000D03*
X29432250Y-48833999D03*
%TD*%
D19*
%TO.C,U7*%
X46542000Y-37192000D03*
X46542000Y-37692000D03*
X46542000Y-38192000D03*
X46542000Y-38692000D03*
X46542000Y-39192000D03*
X46542000Y-39692000D03*
X46542000Y-40192000D03*
X46542000Y-40692000D03*
X46542000Y-41192000D03*
X46542000Y-41692000D03*
X46542000Y-42192000D03*
X46542000Y-42692000D03*
X46542000Y-43192000D03*
X46542000Y-43692000D03*
X46542000Y-44192000D03*
X46542000Y-44692000D03*
X46542000Y-45192000D03*
X46542000Y-45692000D03*
X46542000Y-46192000D03*
X46542000Y-46692000D03*
X46542000Y-47192000D03*
X46542000Y-47692000D03*
X46542000Y-48192000D03*
X46542000Y-48692000D03*
X46542000Y-49192000D03*
X46542000Y-49692000D03*
X46542000Y-50192000D03*
X46542000Y-50692000D03*
X54042000Y-50692000D03*
X54042000Y-50192000D03*
X54042000Y-49692000D03*
X54042000Y-49192000D03*
X54042000Y-48692000D03*
X54042000Y-48192000D03*
X54042000Y-47692000D03*
X54042000Y-47192000D03*
X54042000Y-46692000D03*
X54042000Y-46192000D03*
X54042000Y-45692000D03*
X54042000Y-45192000D03*
X54042000Y-44692000D03*
X54042000Y-44192000D03*
X54042000Y-43692000D03*
X54042000Y-43192000D03*
X54042000Y-42692000D03*
X54042000Y-42192000D03*
X54042000Y-41692000D03*
X54042000Y-41192000D03*
X54042000Y-40692000D03*
X54042000Y-40192000D03*
X54042000Y-39692000D03*
X54042000Y-39192000D03*
X54042000Y-38692000D03*
X54042000Y-38192000D03*
X54042000Y-37692000D03*
X54042000Y-37192000D03*
D20*
X50292000Y-43942000D03*
%TD*%
D21*
%TO.C,U8*%
X50292000Y-10947000D03*
D22*
X50292000Y-17247000D03*
X52592000Y-17247000D03*
X47992000Y-17247000D03*
%TD*%
D18*
%TO.C,U9*%
X23336250Y-28513999D03*
X23336250Y-29464000D03*
X23336250Y-30414001D03*
X25939750Y-30414001D03*
X25939750Y-28513999D03*
%TD*%
%TO.C,U10*%
X23336250Y-38419999D03*
X23336250Y-39370000D03*
X23336250Y-40320001D03*
X25939750Y-40320001D03*
X25939750Y-38419999D03*
%TD*%
%TO.C,U11*%
X25939750Y-48833999D03*
X25939750Y-50734001D03*
X23336250Y-50734001D03*
X23336250Y-49784000D03*
X23336250Y-48833999D03*
%TD*%
D23*
%TO.C,J1*%
X1778000Y-19812000D03*
D24*
X4318000Y-19812000D03*
X1778000Y-22352000D03*
X4318000Y-22352000D03*
X1778000Y-24892000D03*
X4318000Y-24892000D03*
X1778000Y-27432000D03*
X4318000Y-27432000D03*
X1778000Y-29972000D03*
X4318000Y-29972000D03*
X1778000Y-32512000D03*
X4318000Y-32512000D03*
X1778000Y-35052000D03*
X4318000Y-35052000D03*
X1778000Y-37592000D03*
X4318000Y-37592000D03*
X1778000Y-40132000D03*
X4318000Y-40132000D03*
X1778000Y-42672000D03*
X4318000Y-42672000D03*
X1778000Y-45212000D03*
X4318000Y-45212000D03*
X1778000Y-47752000D03*
X4318000Y-47752000D03*
X1778000Y-50292000D03*
X4318000Y-50292000D03*
X1778000Y-52832000D03*
X4318000Y-52832000D03*
X1778000Y-55372000D03*
X4318000Y-55372000D03*
%TD*%
M02*
