%TF.GenerationSoftware,KiCad,Pcbnew,(5.1.7-0-10_14)*%
%TF.CreationDate,2021-01-04T14:16:26+09:00*%
%TF.ProjectId,rotomdriver,726f746f-6d64-4726-9976-65722e6b6963,rev?*%
%TF.SameCoordinates,Original*%
%TF.FileFunction,Soldermask,Bot*%
%TF.FilePolarity,Negative*%
%FSLAX46Y46*%
G04 Gerber Fmt 4.6, Leading zero omitted, Abs format (unit mm)*
G04 Created by KiCad (PCBNEW (5.1.7-0-10_14)) date 2021-01-04 14:16:26*
%MOMM*%
%LPD*%
G01*
G04 APERTURE LIST*
%ADD10C,2.700000*%
%ADD11R,1.700000X1.100000*%
%ADD12R,1.300000X0.700000*%
%ADD13R,0.850000X1.100000*%
%ADD14R,1.440000X1.870000*%
%ADD15C,1.143000*%
%ADD16R,10.160000X10.160000*%
%ADD17R,6.350000X6.350000*%
%ADD18R,1.700000X1.700000*%
%ADD19O,1.700000X1.700000*%
G04 APERTURE END LIST*
D10*
%TO.C,REF\u002A\u002A*%
X62000000Y-54000000D03*
%TD*%
%TO.C,REF\u002A\u002A*%
X3000000Y-3000000D03*
%TD*%
D11*
%TO.C,Q4*%
X62062000Y-21771999D03*
X64262000Y-21771999D03*
X66462000Y-21771999D03*
X62062000Y-12771999D03*
X64262000Y-12771999D03*
X66462000Y-12771999D03*
D12*
X64262000Y-15021999D03*
D13*
X62536999Y-16421999D03*
X63686999Y-16421999D03*
X64836999Y-16421999D03*
X65986999Y-16421999D03*
X62536999Y-19221999D03*
X63686999Y-19221999D03*
X64836999Y-19221999D03*
X65986999Y-19221999D03*
%TD*%
D11*
%TO.C,Q2*%
X69682000Y-33201999D03*
X71882000Y-33201999D03*
X74082000Y-33201999D03*
X69682000Y-24201999D03*
X71882000Y-24201999D03*
X74082000Y-24201999D03*
D12*
X71882000Y-26451999D03*
D13*
X70156999Y-27851999D03*
X71306999Y-27851999D03*
X72456999Y-27851999D03*
X73606999Y-27851999D03*
X70156999Y-30651999D03*
X71306999Y-30651999D03*
X72456999Y-30651999D03*
X73606999Y-30651999D03*
%TD*%
D11*
%TO.C,Q3*%
X69682000Y-44631999D03*
X71882000Y-44631999D03*
X74082000Y-44631999D03*
X69682000Y-35631999D03*
X71882000Y-35631999D03*
X74082000Y-35631999D03*
D12*
X71882000Y-37881999D03*
D13*
X70156999Y-39281999D03*
X71306999Y-39281999D03*
X72456999Y-39281999D03*
X73606999Y-39281999D03*
X70156999Y-42081999D03*
X71306999Y-42081999D03*
X72456999Y-42081999D03*
X73606999Y-42081999D03*
%TD*%
D14*
%TO.C,R6*%
X76822000Y-40132000D03*
X79502000Y-40132000D03*
%TD*%
D15*
%TO.C,P5*%
X76454000Y-55880000D03*
X74549000Y-55880000D03*
X72644000Y-55880000D03*
X70739000Y-55880000D03*
X68834000Y-55880000D03*
X76454000Y-53975000D03*
X74549000Y-53975000D03*
X72644000Y-53975000D03*
X70739000Y-53975000D03*
X68834000Y-53975000D03*
X76454000Y-52070000D03*
X74549000Y-52070000D03*
X72644000Y-52070000D03*
X70739000Y-52070000D03*
X68834000Y-52070000D03*
X76454000Y-50165000D03*
X74549000Y-50165000D03*
X72644000Y-50165000D03*
X70739000Y-50165000D03*
X68834000Y-50165000D03*
X76454000Y-48260000D03*
X74549000Y-48260000D03*
X72644000Y-48260000D03*
X70739000Y-48260000D03*
X68834000Y-48260000D03*
D16*
X72644000Y-52070000D03*
%TD*%
D15*
%TO.C,P1*%
X76454000Y-9144000D03*
X74549000Y-9144000D03*
X72644000Y-9144000D03*
X70739000Y-9144000D03*
X68834000Y-9144000D03*
X76454000Y-7239000D03*
X74549000Y-7239000D03*
X72644000Y-7239000D03*
X70739000Y-7239000D03*
X68834000Y-7239000D03*
X76454000Y-5334000D03*
X74549000Y-5334000D03*
X72644000Y-5334000D03*
X70739000Y-5334000D03*
X68834000Y-5334000D03*
X76454000Y-3429000D03*
X74549000Y-3429000D03*
X72644000Y-3429000D03*
X70739000Y-3429000D03*
X68834000Y-3429000D03*
X76454000Y-1524000D03*
X74549000Y-1524000D03*
X72644000Y-1524000D03*
X70739000Y-1524000D03*
X68834000Y-1524000D03*
D16*
X72644000Y-5334000D03*
%TD*%
D11*
%TO.C,Q6*%
X62062000Y-44631999D03*
X64262000Y-44631999D03*
X66462000Y-44631999D03*
X62062000Y-35631999D03*
X64262000Y-35631999D03*
X66462000Y-35631999D03*
D12*
X64262000Y-37881999D03*
D13*
X62536999Y-39281999D03*
X63686999Y-39281999D03*
X64836999Y-39281999D03*
X65986999Y-39281999D03*
X62536999Y-42081999D03*
X63686999Y-42081999D03*
X64836999Y-42081999D03*
X65986999Y-42081999D03*
%TD*%
D17*
%TO.C,P2*%
X84582000Y-17272000D03*
D15*
X82677000Y-15367000D03*
X84582000Y-15367000D03*
X86487000Y-15367000D03*
X82677000Y-17272000D03*
X84582000Y-17272000D03*
X86487000Y-17272000D03*
X82677000Y-19177000D03*
X84582000Y-19177000D03*
X86487000Y-19177000D03*
%TD*%
D17*
%TO.C,P3*%
X84582000Y-28702000D03*
D15*
X82677000Y-26797000D03*
X84582000Y-26797000D03*
X86487000Y-26797000D03*
X82677000Y-28702000D03*
X84582000Y-28702000D03*
X86487000Y-28702000D03*
X82677000Y-30607000D03*
X84582000Y-30607000D03*
X86487000Y-30607000D03*
%TD*%
%TO.C,P4*%
X86487000Y-42037000D03*
X84582000Y-42037000D03*
X82677000Y-42037000D03*
X86487000Y-40132000D03*
X84582000Y-40132000D03*
X82677000Y-40132000D03*
X86487000Y-38227000D03*
X84582000Y-38227000D03*
X82677000Y-38227000D03*
D17*
X84582000Y-40132000D03*
%TD*%
D13*
%TO.C,Q1*%
X73606999Y-19221999D03*
X72456999Y-19221999D03*
X71306999Y-19221999D03*
X70156999Y-19221999D03*
X73606999Y-16421999D03*
X72456999Y-16421999D03*
X71306999Y-16421999D03*
X70156999Y-16421999D03*
D12*
X71882000Y-15021999D03*
D11*
X74082000Y-12771999D03*
X71882000Y-12771999D03*
X69682000Y-12771999D03*
X74082000Y-21771999D03*
X71882000Y-21771999D03*
X69682000Y-21771999D03*
%TD*%
D13*
%TO.C,Q5*%
X65986999Y-30651999D03*
X64836999Y-30651999D03*
X63686999Y-30651999D03*
X62536999Y-30651999D03*
X65986999Y-27851999D03*
X64836999Y-27851999D03*
X63686999Y-27851999D03*
X62536999Y-27851999D03*
D12*
X64262000Y-26451999D03*
D11*
X66462000Y-24201999D03*
X64262000Y-24201999D03*
X62062000Y-24201999D03*
X66462000Y-33201999D03*
X64262000Y-33201999D03*
X62062000Y-33201999D03*
%TD*%
D14*
%TO.C,R4*%
X79572000Y-17272000D03*
X76892000Y-17272000D03*
%TD*%
%TO.C,R5*%
X76892000Y-28702000D03*
X79572000Y-28702000D03*
%TD*%
D18*
%TO.C,J1*%
X1778000Y-19812000D03*
D19*
X4318000Y-19812000D03*
X1778000Y-22352000D03*
X4318000Y-22352000D03*
X1778000Y-24892000D03*
X4318000Y-24892000D03*
X1778000Y-27432000D03*
X4318000Y-27432000D03*
X1778000Y-29972000D03*
X4318000Y-29972000D03*
X1778000Y-32512000D03*
X4318000Y-32512000D03*
X1778000Y-35052000D03*
X4318000Y-35052000D03*
X1778000Y-37592000D03*
X4318000Y-37592000D03*
X1778000Y-40132000D03*
X4318000Y-40132000D03*
X1778000Y-42672000D03*
X4318000Y-42672000D03*
X1778000Y-45212000D03*
X4318000Y-45212000D03*
X1778000Y-47752000D03*
X4318000Y-47752000D03*
X1778000Y-50292000D03*
X4318000Y-50292000D03*
X1778000Y-52832000D03*
X4318000Y-52832000D03*
X1778000Y-55372000D03*
X4318000Y-55372000D03*
%TD*%
M02*
