M48
METRIC,TZ
T1C0.400
T2C1.000
T3C1.016
%
G90
G05
T1
X6604Y-52070
X8636Y-23114
X10462Y-25606
X17780Y-34254
X17780Y-35034
X17780Y-35814
X19304Y-44450
X19558Y-33274
X19558Y-34290
X20320Y-45720
X20320Y-46736
X20320Y-47752
X20320Y-48768
X20320Y-52832
X20320Y-53848
X20320Y-54864
X24638Y-30226
X24844Y-39068
X24892Y-50038
X26670Y-33782
X26670Y-43688
X26670Y-54102
X27686Y-38354
X27686Y-48768
X29210Y-47752
X32258Y-36830
X32258Y-39370
X32512Y-32258
X32512Y-42164
X32512Y-47498
X33020Y-25400
X33020Y-27432
X33020Y-33020
X33020Y-35306
X33020Y-37338
X33020Y-45212
X33068Y-30178
X33274Y-50800
X33528Y-54610
X33782Y-38354
X35054Y-36830
X36796Y-52132
X37802Y-47542
X38354Y-46990
X38862Y-39116
X38862Y-45466
X38862Y-46246
X39370Y-29718
X39525Y-43492
X39586Y-45075
X39634Y-44264
X39878Y-32258
X40640Y-39116
X40688Y-35258
X41910Y-21318
X41910Y-22098
X44688Y-41876
X44703Y-40316
X44714Y-41096
X45013Y-42585
X50292Y-15494
X52811Y-37837
X53086Y-51562
X55372Y-38354
X55880Y-40132
X55880Y-50800
X58336Y-49192
X59944Y-21336
X61091Y-29766
X61976Y-13970
X61976Y-25146
X62024Y-36624
X62435Y-40640
X64262Y-17780
X64262Y-20828
X64262Y-29210
X64262Y-32258
X64262Y-40640
X64262Y-43688
X65532Y-14986
X65532Y-26416
X65532Y-37846
X67564Y-16764
X67564Y-18652
X67564Y-28194
X67564Y-30226
X67564Y-39624
X67564Y-41512
X68072Y-11176
X68834Y-11176
X69596Y-11176
X70358Y-11176
X70612Y-14986
X70612Y-26416
X70612Y-37846
X71120Y-11176
X71882Y-11176
X72644Y-11176
X73406Y-11176
X73406Y-25654
X73406Y-37084
X73660Y-17780
X73660Y-29210
X73660Y-40640
X74168Y-11176
X74168Y-25654
X74168Y-37084
X74930Y-11176
X74930Y-25654
X74930Y-37084
X75692Y-11176
X75692Y-11938
X75692Y-12700
X75692Y-13462
X75692Y-14224
X75692Y-14986
X75692Y-20828
X75692Y-21590
X75692Y-22352
X75692Y-23114
X75692Y-24130
X75692Y-24892
X75692Y-25654
X75692Y-26416
X75692Y-32258
X75692Y-33020
X75692Y-33782
X75692Y-34544
X75692Y-35560
X75692Y-36322
X75692Y-37084
X75692Y-37846
X75692Y-43688
X75692Y-44450
X75692Y-45212
X76454Y-11176
X76454Y-11938
X76454Y-12700
X76454Y-13462
X76454Y-14224
X76454Y-14986
X76454Y-20828
X76454Y-21590
X76454Y-22352
X76454Y-23114
X76454Y-24130
X76454Y-24892
X76454Y-25654
X76454Y-26416
X76454Y-32258
X76454Y-33020
X76454Y-33782
X76454Y-34544
X76454Y-35560
X76454Y-36322
X76454Y-37084
X76454Y-37846
X76454Y-43688
X76454Y-44450
X76454Y-45212
X77216Y-11176
X77216Y-11938
X77216Y-12700
X77216Y-13462
X77216Y-14224
X77216Y-14986
X77216Y-20828
X77216Y-21590
X77216Y-22352
X77216Y-23114
X77216Y-24130
X77216Y-24892
X77216Y-25654
X77216Y-26416
X77216Y-32258
X77216Y-33020
X77216Y-33782
X77216Y-34544
X77216Y-35560
X77216Y-36322
X77216Y-37084
X77216Y-37846
X77216Y-43688
X77216Y-44450
X77216Y-45212
T2
X1778Y-19812
X1778Y-22352
X1778Y-24892
X1778Y-27432
X1778Y-29972
X1778Y-32512
X1778Y-35052
X1778Y-37592
X1778Y-40132
X1778Y-42672
X1778Y-45212
X1778Y-47752
X1778Y-50292
X1778Y-52832
X1778Y-55372
X4318Y-19812
X4318Y-22352
X4318Y-24892
X4318Y-27432
X4318Y-29972
X4318Y-32512
X4318Y-35052
X4318Y-37592
X4318Y-40132
X4318Y-42672
X4318Y-45212
X4318Y-47752
X4318Y-50292
X4318Y-52832
X4318Y-55372
T3
X68834Y-48260
X68834Y-50165
X68834Y-52070
X68834Y-53975
X68834Y-55880
X70739Y-48260
X70739Y-50165
X70739Y-52070
X70739Y-53975
X70739Y-55880
X72644Y-48260
X72644Y-50165
X72644Y-52070
X72644Y-53975
X72644Y-55880
X74549Y-48260
X74549Y-50165
X74549Y-52070
X74549Y-53975
X74549Y-55880
X76454Y-48260
X76454Y-50165
X76454Y-52070
X76454Y-53975
X76454Y-55880
X82677Y-38227
X82677Y-40132
X82677Y-42037
X84582Y-38227
X84582Y-40132
X84582Y-42037
X86487Y-38227
X86487Y-40132
X86487Y-42037
X82677Y-26797
X82677Y-28702
X82677Y-30607
X84582Y-26797
X84582Y-28702
X84582Y-30607
X86487Y-26797
X86487Y-28702
X86487Y-30607
X82677Y-15367
X82677Y-17272
X82677Y-19177
X84582Y-15367
X84582Y-17272
X84582Y-19177
X86487Y-15367
X86487Y-17272
X86487Y-19177
X68834Y-1524
X68834Y-3429
X68834Y-5334
X68834Y-7239
X68834Y-9144
X70739Y-1524
X70739Y-3429
X70739Y-5334
X70739Y-7239
X70739Y-9144
X72644Y-1524
X72644Y-3429
X72644Y-5334
X72644Y-7239
X72644Y-9144
X74549Y-1524
X74549Y-3429
X74549Y-5334
X74549Y-7239
X74549Y-9144
X76454Y-1524
X76454Y-3429
X76454Y-5334
X76454Y-7239
X76454Y-9144
T0
M30
